Manrope-ExtraLight.ufo
<glyph name="exclam" format="2">
  <advance width="282"/>
  <unicode hex="0021"/>
  <note>
exclam
</note>
  <outline>
    <contour>
      <point x="120" y="64" type="line"/>
      <point x="120" y="0" type="line"/>
      <point x="162" y="0" type="line"/>
      <point x="162" y="64" type="line"/>
    </contour>
    <component base="idotless" xOffset="40" yOffset="180"/>
  </outline>
</glyph>
<glyph name="numbersign" format="2">
  <advance width="913"/>
  <unicode hex="0023"/>
  <note>
numbersign
</note>
  <outline>
    <contour>
      <point x="217" y="0" type="line"/>
      <point x="260" y="0" type="line"/>
      <point x="322" y="231" type="line"/>
      <point x="518" y="231" type="line"/>
      <point x="457" y="0" type="line"/>
      <point x="500" y="0" type="line"/>
      <point x="562" y="231" type="line"/>
      <point x="780" y="231" type="line"/>
      <point x="791" y="273" type="line"/>
      <point x="573" y="273" type="line"/>
      <point x="624" y="462" type="line"/>
      <point x="842" y="462" type="line"/>
      <point x="853" y="504" type="line"/>
      <point x="635" y="504" type="line"/>
      <point x="693" y="720" type="line"/>
      <point x="649" y="720" type="line"/>
      <point x="592" y="504" type="line"/>
      <point x="395" y="504" type="line"/>
      <point x="453" y="720" type="line"/>
      <point x="409" y="720" type="line"/>
      <point x="352" y="504" type="line"/>
      <point x="133" y="504" type="line"/>
      <point x="122" y="462" type="line"/>
      <point x="340" y="462" type="line"/>
      <point x="290" y="273" type="line"/>
      <point x="71" y="273" type="line"/>
      <point x="60" y="231" type="line"/>
      <point x="278" y="231" type="line"/>
    </contour>
    <contour>
      <point x="333" y="273" type="line"/>
      <point x="384" y="462" type="line"/>
      <point x="580" y="462" type="line"/>
      <point x="530" y="273" type="line"/>
    </contour>
  </outline>
</glyph>
<glyph name="dollar" format="2">
  <advance width="557"/>
  <unicode hex="0024"/>
  <note>
dollar
</note>
  <outline>
    <contour>
      <point x="278" y="-15" type="curve" smooth="yes"/>
      <point x="345" y="-15"/>
      <point x="401" y="5"/>
      <point x="439" y="39" type="curve"/>
      <point x="476" y="72"/>
      <point x="497" y="119"/>
      <point x="497" y="174" type="curve" smooth="yes"/>
      <point x="497" y="229"/>
      <point x="472" y="270"/>
      <point x="433" y="302" type="curve"/>
      <point x="393" y="336"/>
      <point x="339" y="360"/>
      <point x="286" y="379" type="curve"/>
      <point x="224" y="402"/>
      <point x="181" y="426"/>
      <point x="154" y="454" type="curve"/>
      <point x="128" y="480"/>
      <point x="117" y="510"/>
      <point x="117" y="546" type="curve" smooth="yes"/>
      <point x="117" y="589"/>
      <point x="135" y="626"/>
      <point x="164" y="653" type="curve"/>
      <point x="193" y="678"/>
      <point x="232" y="693"/>
      <point x="278" y="693" type="curve" smooth="yes"/>
      <point x="320" y="693"/>
      <point x="358" y="677"/>
      <point x="387" y="651" type="curve"/>
      <point x="419" y="622"/>
      <point x="440" y="579"/>
      <point x="440" y="531" type="curve"/>
      <point x="482" y="531" type="line"/>
      <point x="482" y="591"/>
      <point x="456" y="646"/>
      <point x="414" y="683" type="curve"/>
      <point x="378" y="715"/>
      <point x="330" y="735"/>
      <point x="278" y="735" type="curve" smooth="yes"/>
      <point x="221" y="735"/>
      <point x="171" y="716"/>
      <point x="135" y="683" type="curve"/>
      <point x="98" y="649"/>
      <point x="75" y="601"/>
      <point x="75" y="546" type="curve" smooth="yes"/>
      <point x="75" y="495"/>
      <point x="93" y="456"/>
      <point x="122" y="426" type="curve"/>
      <point x="160" y="386"/>
      <point x="216" y="360"/>
      <point x="271" y="340" type="curve"/>
      <point x="322" y="322"/>
      <point x="374" y="299"/>
      <point x="409" y="267" type="curve"/>
      <point x="437" y="243"/>
      <point x="455" y="212"/>
      <point x="455" y="174" type="curve" smooth="yes"/>
      <point x="455" y="129"/>
      <point x="439" y="97"/>
      <point x="415" y="74" type="curve"/>
      <point x="379" y="40"/>
      <point x="326" y="27"/>
      <point x="278" y="27" type="curve" smooth="yes"/>
      <point x="227" y="27"/>
      <point x="182" y="48"/>
      <point x="150" y="83" type="curve"/>
      <point x="120" y="114"/>
      <point x="102" y="157"/>
      <point x="102" y="204" type="curve"/>
      <point x="60" y="204" type="line"/>
      <point x="60" y="147"/>
      <point x="82" y="95"/>
      <point x="117" y="56" type="curve"/>
      <point x="157" y="12"/>
      <point x="215" y="-15"/>
    </contour>
    <contour>
      <point x="257" y="-98" type="line"/>
      <point x="299" y="-98" type="line"/>
      <point x="299" y="20" type="line"/>
      <point x="257" y="20" type="line"/>
    </contour>
    <contour>
      <point x="257" y="702" type="line"/>
      <point x="299" y="702" type="line"/>
      <point x="299" y="820" type="line"/>
      <point x="257" y="820" type="line"/>
    </contour>
  </outline>
</glyph>
<glyph name="ampersand" format="2">
  <advance width="640"/>
  <unicode hex="0026"/>
  <note>
ampersand
</note>
  <outline>
    <contour>
      <point x="545" y="330" type="line"/>
      <point x="500" y="330" type="line"/>
      <point x="501" y="213" type="line" smooth="yes"/>
      <point x="501" y="193"/>
      <point x="500" y="175"/>
      <point x="496" y="153" type="curve"/>
      <point x="237" y="394" type="line" smooth="yes"/>
      <point x="218" y="411"/>
      <point x="199" y="427"/>
      <point x="183" y="445" type="curve" smooth="yes"/>
      <point x="152" y="482"/>
      <point x="139" y="507"/>
      <point x="139" y="553" type="curve" smooth="yes"/>
      <point x="139" y="607"/>
      <point x="162" y="650"/>
      <point x="207" y="673" type="curve" smooth="yes"/>
      <point x="234" y="686"/>
      <point x="266" y="693"/>
      <point x="298" y="693" type="curve" smooth="yes"/>
      <point x="336" y="693"/>
      <point x="374" y="684"/>
      <point x="403" y="664" type="curve" smooth="yes"/>
      <point x="422" y="651"/>
      <point x="436" y="635"/>
      <point x="445" y="614" type="curve"/>
      <point x="484" y="632" type="line"/>
      <point x="472" y="658"/>
      <point x="452" y="682"/>
      <point x="428" y="698" type="curve" smooth="yes"/>
      <point x="393" y="723"/>
      <point x="342" y="735"/>
      <point x="294" y="735" type="curve" smooth="yes"/>
      <point x="258" y="735"/>
      <point x="221" y="728"/>
      <point x="187" y="711" type="curve" smooth="yes"/>
      <point x="128" y="681"/>
      <point x="94" y="619"/>
      <point x="94" y="551" type="curve" smooth="yes"/>
      <point x="94" y="481"/>
      <point x="125" y="443"/>
      <point x="182" y="386" type="curve"/>
      <point x="150" y="374"/>
      <point x="118" y="356"/>
      <point x="95" y="327" type="curve" smooth="yes"/>
      <point x="63" y="289"/>
      <point x="49" y="237"/>
      <point x="50" y="190" type="curve" smooth="yes"/>
      <point x="52" y="139"/>
      <point x="69" y="91"/>
      <point x="103" y="55" type="curve" smooth="yes"/>
      <point x="148" y="7"/>
      <point x="216" y="-15"/>
      <point x="297" y="-15" type="curve" smooth="yes"/>
      <point x="346" y="-15"/>
      <point x="396" y="-9"/>
      <point x="437" y="13" type="curve" smooth="yes"/>
      <point x="465" y="28"/>
      <point x="497" y="54"/>
      <point x="512" y="81" type="curve"/>
      <point x="598" y="0" type="line"/>
      <point x="627" y="31" type="line"/>
      <point x="532" y="119" type="line"/>
      <point x="539" y="140"/>
      <point x="545" y="169"/>
      <point x="545" y="233" type="curve" smooth="yes"/>
    </contour>
    <contour>
      <point x="481" y="113" type="line"/>
      <point x="472" y="99"/>
      <point x="459" y="78"/>
      <point x="417" y="52" type="curve" smooth="yes"/>
      <point x="382" y="31"/>
      <point x="344" y="27"/>
      <point x="295" y="27" type="curve" smooth="yes"/>
      <point x="233" y="27"/>
      <point x="170" y="45"/>
      <point x="134" y="86" type="curve"/>
      <point x="108" y="113"/>
      <point x="96" y="151"/>
      <point x="95" y="191" type="curve" smooth="yes"/>
      <point x="94" y="231"/>
      <point x="105" y="270"/>
      <point x="129" y="299" type="curve" smooth="yes"/>
      <point x="151" y="325"/>
      <point x="183" y="343"/>
      <point x="218" y="353" type="curve"/>
    </contour>
  </outline>
</glyph>
<glyph name="parenleft" format="2">
  <advance width="408"/>
  <unicode hex="0028"/>
  <note>
parenleft
</note>
  <outline>
    <contour>
      <point x="363" y="806" type="line"/>
      <point x="249" y="672"/>
      <point x="180" y="501"/>
      <point x="180" y="330" type="curve" smooth="yes"/>
      <point x="180" y="162"/>
      <point x="251" y="-17"/>
      <point x="363" y="-145" type="curve"/>
      <point x="332" y="-172" type="line"/>
      <point x="214" y="-38"/>
      <point x="140" y="146"/>
      <point x="140" y="330" type="curve" smooth="yes"/>
      <point x="140" y="514"/>
      <point x="214" y="698"/>
      <point x="332" y="832" type="curve"/>
    </contour>
  </outline>
</glyph>
<glyph name="asterisk" format="2">
  <advance width="418"/>
  <unicode hex="002A"/>
  <note>
asterisk
</note>
  <outline>
    <contour>
      <point x="113" y="407" type="line"/>
      <point x="194" y="518" type="line"/>
      <point x="274" y="407" type="line"/>
      <point x="308" y="432" type="line"/>
      <point x="228" y="543" type="line"/>
      <point x="358" y="585" type="line"/>
      <point x="345" y="625" type="line"/>
      <point x="215" y="583" type="line"/>
      <point x="215" y="720" type="line"/>
      <point x="173" y="720" type="line"/>
      <point x="173" y="583" type="line"/>
      <point x="43" y="625" type="line"/>
      <point x="30" y="585" type="line"/>
      <point x="160" y="543" type="line"/>
      <point x="79" y="432" type="line"/>
    </contour>
  </outline>
</glyph>
<glyph name="plus" format="2">
  <advance width="580"/>
  <unicode hex="002B"/>
  <note>
plus
</note>
  <outline>
    <contour>
      <point x="269" y="130" type="line"/>
      <point x="311" y="130" type="line"/>
      <point x="311" y="339" type="line"/>
      <point x="520" y="339" type="line"/>
      <point x="520" y="381" type="line"/>
      <point x="311" y="381" type="line"/>
      <point x="311" y="590" type="line"/>
      <point x="269" y="590" type="line"/>
      <point x="269" y="381" type="line"/>
      <point x="60" y="381" type="line"/>
      <point x="60" y="339" type="line"/>
      <point x="269" y="339" type="line"/>
    </contour>
  </outline>
</glyph>
<glyph name="comma" format="2">
  <advance width="240"/>
  <unicode hex="002C"/>
  <note>
comma
</note>
  <outline>
    <contour>
      <point x="120" y="-30" type="curve"/>
      <point x="120" y="90" type="line"/>
      <point x="60" y="90" type="line"/>
      <point x="60" y="0" type="line"/>
      <point x="93" y="0" type="line"/>
      <point x="93" y="-32"/>
      <point x="98" y="-65"/>
      <point x="63" y="-63" type="curve"/>
      <point x="60" y="-89" type="line"/>
      <point x="98" y="-96"/>
      <point x="120" y="-71"/>
    </contour>
  </outline>
</glyph>
<glyph name="period" format="2">
  <advance width="220"/>
  <unicode hex="002E"/>
  <note>
period
</note>
  <outline>
    <contour>
      <point x="80" y="60" type="line"/>
      <point x="80" y="0" type="line"/>
      <point x="140" y="0" type="line"/>
      <point x="140" y="60" type="line"/>
    </contour>
  </outline>
</glyph>
<glyph name="zero" format="2">
  <advance width="578"/>
  <unicode hex="0030"/>
  <outline>
    <contour>
      <point x="289" y="-15" type="curve" smooth="yes"/>
      <point x="226" y="-15"/>
      <point x="168" y="12"/>
      <point x="128" y="56" type="curve" smooth="yes"/>
      <point x="92" y="95"/>
      <point x="70" y="147"/>
      <point x="70" y="204" type="curve" smooth="yes"/>
      <point x="70" y="517" type="line" smooth="yes"/>
      <point x="70" y="576"/>
      <point x="94" y="630"/>
      <point x="133" y="669" type="curve" smooth="yes"/>
      <point x="174" y="710"/>
      <point x="228" y="735"/>
      <point x="289" y="735" type="curve" smooth="yes"/>
      <point x="350" y="735"/>
      <point x="406" y="710"/>
      <point x="446" y="669" type="curve" smooth="yes"/>
      <point x="484" y="630"/>
      <point x="508" y="576"/>
      <point x="508" y="517" type="curve" smooth="yes"/>
      <point x="508" y="204" type="line" smooth="yes"/>
      <point x="508" y="146"/>
      <point x="486" y="94"/>
      <point x="449" y="55" type="curve" smooth="yes"/>
      <point x="409" y="13"/>
      <point x="352" y="-15"/>
    </contour>
    <contour>
      <point x="289" y="693" type="curve" smooth="yes"/>
      <point x="230" y="693"/>
      <point x="176" y="663"/>
      <point x="144" y="618" type="curve" smooth="yes"/>
      <point x="124" y="590"/>
      <point x="112" y="555"/>
      <point x="112" y="517" type="curve" smooth="yes"/>
      <point x="112" y="204" type="line" smooth="yes"/>
      <point x="112" y="168"/>
      <point x="123" y="134"/>
      <point x="142" y="106" type="curve" smooth="yes"/>
      <point x="174" y="58"/>
      <point x="228" y="27"/>
      <point x="289" y="27" type="curve" smooth="yes"/>
      <point x="350" y="27"/>
      <point x="404" y="58"/>
      <point x="436" y="106" type="curve" smooth="yes"/>
      <point x="455" y="134"/>
      <point x="466" y="168"/>
      <point x="466" y="204" type="curve" smooth="yes"/>
      <point x="466" y="517" type="line" smooth="yes"/>
      <point x="466" y="554"/>
      <point x="454" y="589"/>
      <point x="434" y="617" type="curve" smooth="yes"/>
      <point x="401" y="663"/>
      <point x="349" y="693"/>
    </contour>
  </outline>
</glyph>
<glyph name="two" format="2">
  <advance width="553"/>
  <unicode hex="0032"/>
  <note>
two
</note>
  <outline>
    <contour>
      <point x="57" y="512" type="curve"/>
      <point x="99" y="512" type="line"/>
      <point x="99" y="569"/>
      <point x="126" y="620"/>
      <point x="167" y="654" type="curve" smooth="yes"/>
      <point x="198" y="678"/>
      <point x="237" y="693"/>
      <point x="280" y="693" type="curve"/>
      <point x="323" y="693"/>
      <point x="363" y="678"/>
      <point x="394" y="653" type="curve" smooth="yes"/>
      <point x="435" y="620"/>
      <point x="461" y="569"/>
      <point x="461" y="512" type="curve"/>
      <point x="461" y="452"/>
      <point x="449" y="404"/>
      <point x="388" y="349" type="curve"/>
      <point x="51" y="42" type="line"/>
      <point x="50" y="0" type="line"/>
      <point x="503" y="0" type="line"/>
      <point x="503" y="42" type="line"/>
      <point x="113" y="42" type="line"/>
      <point x="416" y="318" type="line"/>
      <point x="478" y="374"/>
      <point x="503" y="430"/>
      <point x="503" y="512" type="curve"/>
      <point x="503" y="581"/>
      <point x="471" y="643"/>
      <point x="422" y="684" type="curve" smooth="yes"/>
      <point x="383" y="716"/>
      <point x="334" y="735"/>
      <point x="280" y="735" type="curve"/>
      <point x="226" y="735"/>
      <point x="177" y="716"/>
      <point x="138" y="684" type="curve" smooth="yes"/>
      <point x="89" y="643"/>
      <point x="57" y="581"/>
    </contour>
  </outline>
</glyph>
<glyph name="three" format="2">
  <advance width="534"/>
  <unicode hex="0033"/>
  <note>
three
</note>
  <outline>
    <contour>
      <point x="255" y="-15" type="curve" smooth="yes"/>
      <point x="386" y="-15"/>
      <point x="474" y="76"/>
      <point x="474" y="216" type="curve" smooth="yes"/>
      <point x="474" y="379"/>
      <point x="352" y="476"/>
      <point x="190" y="438" type="curve"/>
      <point x="191" y="413" type="line"/>
      <point x="468" y="677" type="line"/>
      <point x="468" y="720" type="line"/>
      <point x="69" y="720" type="line"/>
      <point x="69" y="678" type="line"/>
      <point x="452" y="678" type="line"/>
      <point x="439" y="709" type="line"/>
      <point x="134" y="416" type="line"/>
      <point x="159" y="382" type="line"/>
      <point x="187" y="395"/>
      <point x="223" y="404"/>
      <point x="252" y="404" type="curve" smooth="yes"/>
      <point x="359" y="404"/>
      <point x="429" y="332"/>
      <point x="429" y="216" type="curve" smooth="yes"/>
      <point x="429" y="102"/>
      <point x="367" y="30"/>
      <point x="254" y="27" type="curve" smooth="yes"/>
      <point x="174" y="25"/>
      <point x="108" y="66"/>
      <point x="79" y="147" type="curve"/>
      <point x="40" y="133" type="line"/>
      <point x="70" y="40"/>
      <point x="149" y="-15"/>
    </contour>
  </outline>
</glyph>
<glyph name="four" format="2">
  <advance width="577"/>
  <unicode hex="0034"/>
  <note>
four
</note>
  <outline>
    <contour>
      <point x="441" y="195" type="line"/>
      <point x="441" y="420" type="line"/>
      <point x="399" y="420" type="line"/>
      <point x="399" y="195" type="line"/>
      <point x="96" y="195" type="line"/>
      <point x="344" y="720" type="line"/>
      <point x="298" y="720" type="line"/>
      <point x="50" y="195" type="line"/>
      <point x="50" y="153" type="line"/>
      <point x="399" y="153" type="line"/>
      <point x="399" y="0" type="line"/>
      <point x="441" y="0" type="line"/>
      <point x="441" y="153" type="line"/>
      <point x="527" y="153" type="line"/>
      <point x="527" y="195" type="line"/>
    </contour>
  </outline>
</glyph>
<glyph name="five" format="2">
  <advance width="572"/>
  <unicode hex="0035"/>
  <note>
five
</note>
  <outline>
    <contour>
      <point x="90" y="720" type="line"/>
      <point x="68" y="350" type="line"/>
      <point x="111" y="325" type="line"/>
      <point x="147" y="385"/>
      <point x="206" y="424"/>
      <point x="282" y="424" type="curve" smooth="yes"/>
      <point x="332" y="424"/>
      <point x="377" y="405"/>
      <point x="412" y="375" type="curve" smooth="yes"/>
      <point x="454" y="339"/>
      <point x="480" y="285"/>
      <point x="480" y="226" type="curve" smooth="yes"/>
      <point x="480" y="170"/>
      <point x="457" y="121"/>
      <point x="421" y="85" type="curve" smooth="yes"/>
      <point x="385" y="49"/>
      <point x="336" y="28"/>
      <point x="282" y="28" type="curve" smooth="yes"/>
      <point x="232" y="28"/>
      <point x="186" y="47"/>
      <point x="151" y="77" type="curve" smooth="yes"/>
      <point x="121" y="102"/>
      <point x="100" y="137"/>
      <point x="90" y="176" type="curve"/>
      <point x="50" y="165" type="line"/>
      <point x="62" y="120"/>
      <point x="87" y="79"/>
      <point x="120" y="48" type="curve" smooth="yes"/>
      <point x="162" y="8"/>
      <point x="219" y="-15"/>
      <point x="282" y="-15" type="curve" smooth="yes"/>
      <point x="349" y="-15"/>
      <point x="410" y="13"/>
      <point x="453" y="58" type="curve" smooth="yes"/>
      <point x="495" y="102"/>
      <point x="522" y="161"/>
      <point x="522" y="226" type="curve" smooth="yes"/>
      <point x="522" y="297"/>
      <point x="491" y="360"/>
      <point x="442" y="404" type="curve" smooth="yes"/>
      <point x="399" y="442"/>
      <point x="343" y="466"/>
      <point x="282" y="466" type="curve" smooth="yes"/>
      <point x="216" y="466"/>
      <point x="156" y="439"/>
      <point x="113" y="396" type="curve"/>
      <point x="130" y="678" type="line"/>
      <point x="470" y="678" type="line"/>
      <point x="470" y="720" type="line"/>
    </contour>
  </outline>
</glyph>
<glyph name="six" format="2">
  <advance width="620"/>
  <unicode hex="0036"/>
  <note>
six
</note>
  <outline>
    <contour>
      <point x="517" y="615" type="line"/>
      <point x="476" y="687"/>
      <point x="398" y="735"/>
      <point x="310" y="735" type="curve" smooth="yes"/>
      <point x="245" y="735"/>
      <point x="187" y="710"/>
      <point x="144" y="668" type="curve"/>
      <point x="98" y="625"/>
      <point x="70" y="563"/>
      <point x="70" y="495" type="curve" smooth="yes"/>
      <point x="70" y="225" type="line" smooth="yes"/>
      <point x="70" y="164"/>
      <point x="93" y="108"/>
      <point x="131" y="65" type="curve"/>
      <point x="175" y="16"/>
      <point x="239" y="-15"/>
      <point x="310" y="-15" type="curve" smooth="yes"/>
      <point x="379" y="-15"/>
      <point x="441" y="14"/>
      <point x="484" y="61" type="curve"/>
      <point x="525" y="104"/>
      <point x="550" y="162"/>
      <point x="550" y="225" type="curve" smooth="yes"/>
      <point x="550" y="291"/>
      <point x="523" y="351"/>
      <point x="480" y="395" type="curve"/>
      <point x="436" y="438"/>
      <point x="376" y="465"/>
      <point x="310" y="465" type="curve" smooth="yes"/>
      <point x="228" y="465"/>
      <point x="156" y="422"/>
      <point x="112" y="358" type="curve"/>
      <point x="112" y="495" type="line" smooth="yes"/>
      <point x="112" y="549"/>
      <point x="134" y="599"/>
      <point x="170" y="635" type="curve"/>
      <point x="205" y="671"/>
      <point x="255" y="693"/>
      <point x="310" y="693" type="curve" smooth="yes"/>
      <point x="383" y="693"/>
      <point x="447" y="653"/>
      <point x="481" y="594" type="curve"/>
    </contour>
    <contour>
      <point x="310" y="27" type="curve" smooth="yes"/>
      <point x="252" y="27"/>
      <point x="200" y="52"/>
      <point x="164" y="91" type="curve"/>
      <point x="132" y="127"/>
      <point x="112" y="174"/>
      <point x="112" y="225" type="curve" smooth="yes"/>
      <point x="112" y="278"/>
      <point x="132" y="326"/>
      <point x="166" y="361" type="curve"/>
      <point x="202" y="399"/>
      <point x="253" y="423"/>
      <point x="310" y="423" type="curve" smooth="yes"/>
      <point x="364" y="423"/>
      <point x="412" y="402"/>
      <point x="448" y="367" type="curve"/>
      <point x="485" y="331"/>
      <point x="508" y="281"/>
      <point x="508" y="225" type="curve" smooth="yes"/>
      <point x="508" y="174"/>
      <point x="488" y="127"/>
      <point x="456" y="92" type="curve"/>
      <point x="420" y="52"/>
      <point x="368" y="27"/>
    </contour>
  </outline>
</glyph>
<glyph name="seven" format="2">
  <advance width="481"/>
  <unicode hex="0037"/>
  <note>
seven
</note>
  <outline>
    <contour>
      <point x="110" y="0" type="line"/>
      <point x="155" y="0" type="line"/>
      <point x="431" y="677" type="line"/>
      <point x="431" y="720" type="line"/>
      <point x="40" y="720" type="line"/>
      <point x="40" y="677" type="line"/>
      <point x="386" y="677" type="line"/>
    </contour>
  </outline>
</glyph>
<glyph name="eight" format="2">
  <advance width="559"/>
  <unicode hex="0038"/>
  <note>
eight
</note>
  <outline>
    <contour>
      <point x="279" y="-15" type="curve" smooth="yes"/>
      <point x="409" y="-15"/>
      <point x="499" y="65"/>
      <point x="499" y="195" type="curve" smooth="yes"/>
      <point x="499" y="291"/>
      <point x="450" y="365"/>
      <point x="349" y="398" type="curve"/>
      <point x="353" y="376" type="line"/>
      <point x="440" y="394"/>
      <point x="482" y="468"/>
      <point x="482" y="548" type="curve" smooth="yes"/>
      <point x="482" y="666"/>
      <point x="397" y="735"/>
      <point x="279" y="735" type="curve" smooth="yes"/>
      <point x="161" y="735"/>
      <point x="76" y="666"/>
      <point x="76" y="548" type="curve" smooth="yes"/>
      <point x="76" y="468"/>
      <point x="120" y="393"/>
      <point x="207" y="375" type="curve"/>
      <point x="207" y="398" type="line"/>
      <point x="106" y="365"/>
      <point x="60" y="291"/>
      <point x="60" y="195" type="curve" smooth="yes"/>
      <point x="60" y="65"/>
      <point x="149" y="-15"/>
    </contour>
    <contour>
      <point x="279" y="27" type="curve" smooth="yes"/>
      <point x="175" y="27"/>
      <point x="104" y="87"/>
      <point x="104" y="195" type="curve" smooth="yes"/>
      <point x="104" y="305"/>
      <point x="173" y="363"/>
      <point x="279" y="363" type="curve" smooth="yes"/>
      <point x="385" y="363"/>
      <point x="454" y="305"/>
      <point x="454" y="195" type="curve" smooth="yes"/>
      <point x="454" y="87"/>
      <point x="383" y="27"/>
    </contour>
    <contour>
      <point x="279" y="405" type="curve" smooth="yes"/>
      <point x="185" y="405"/>
      <point x="121" y="454"/>
      <point x="121" y="548" type="curve" smooth="yes"/>
      <point x="121" y="642"/>
      <point x="185" y="690"/>
      <point x="279" y="690" type="curve" smooth="yes"/>
      <point x="373" y="690"/>
      <point x="437" y="642"/>
      <point x="437" y="548" type="curve" smooth="yes"/>
      <point x="437" y="454"/>
      <point x="373" y="405"/>
    </contour>
  </outline>
</glyph>
<glyph name="less" format="2">
  <advance width="599"/>
  <unicode hex="003C"/>
  <note>
less
</note>
  <outline>
    <contour>
      <point x="371" y="84" type="line"/>
      <point x="399" y="111" type="line"/>
      <point x="195" y="315" type="line"/>
      <point x="399" y="519" type="line"/>
      <point x="371" y="546" type="line"/>
      <point x="140" y="315" type="line"/>
    </contour>
  </outline>
</glyph>
<glyph name="equal" format="2">
  <advance width="750"/>
  <unicode hex="003D"/>
  <note>
equal
</note>
  <outline>
    <contour>
      <point x="120" y="418" type="line"/>
      <point x="630" y="418" type="line"/>
      <point x="630" y="460" type="line"/>
      <point x="120" y="460" type="line"/>
    </contour>
    <contour>
      <point x="120" y="260" type="line"/>
      <point x="630" y="260" type="line"/>
      <point x="630" y="302" type="line"/>
      <point x="120" y="302" type="line"/>
    </contour>
  </outline>
</glyph>
<glyph name="question" format="2">
  <advance width="504"/>
  <unicode hex="003F"/>
  <note>
question
</note>
  <outline>
    <contour>
      <point x="454" y="599"/>
      <point x="440" y="642"/>
      <point x="407" y="677" type="curve"/>
      <point x="369" y="718"/>
      <point x="312" y="735"/>
      <point x="252" y="735" type="curve" smooth="yes"/>
      <point x="195" y="735"/>
      <point x="136" y="718"/>
      <point x="96" y="677" type="curve"/>
      <point x="63" y="643"/>
      <point x="50" y="594"/>
      <point x="50" y="550" type="curve"/>
      <point x="92" y="550" type="line"/>
      <point x="92" y="587"/>
      <point x="102" y="623"/>
      <point x="127" y="648" type="curve"/>
      <point x="154" y="678"/>
      <point x="199" y="693"/>
      <point x="250" y="693" type="curve" smooth="yes"/>
      <point x="297" y="693"/>
      <point x="345" y="682"/>
      <point x="377" y="645" type="curve"/>
      <point x="398" y="622"/>
      <point x="409" y="590"/>
      <point x="409" y="549" type="curve" smooth="yes"/>
      <point x="409" y="515"/>
      <point x="402" y="483"/>
      <point x="377" y="454" type="curve"/>
      <point x="339" y="413"/>
      <point x="270" y="387"/>
      <point x="238" y="327" type="curve"/>
      <point x="216" y="285"/>
      <point x="218" y="253"/>
      <point x="218" y="197" type="curve"/>
      <point x="263" y="197" type="line"/>
      <point x="263" y="244"/>
      <point x="259" y="275"/>
      <point x="276" y="307" type="curve"/>
      <point x="301" y="355"/>
      <point x="372" y="386"/>
      <point x="408" y="425" type="curve"/>
      <point x="439" y="456"/>
      <point x="454" y="502"/>
      <point x="454" y="548" type="curve" smooth="yes"/>
    </contour>
    <contour>
      <point x="218" y="0" type="line"/>
      <point x="263" y="0" type="line"/>
      <point x="263" y="75" type="line"/>
      <point x="218" y="75" type="line"/>
    </contour>
  </outline>
</glyph>
<glyph name="at" format="2">
  <advance width="911"/>
  <unicode hex="0040"/>
  <note>
at
</note>
  <outline>
    <contour>
      <point x="459" y="-105" type="curve" smooth="yes"/>
      <point x="534" y="-105"/>
      <point x="612" y="-88"/>
      <point x="677" y="-46" type="curve"/>
      <point x="654" y="-9" type="line"/>
      <point x="597" y="-46"/>
      <point x="529" y="-63"/>
      <point x="459" y="-63" type="curve" smooth="yes"/>
      <point x="376" y="-63"/>
      <point x="292" y="-43"/>
      <point x="229" y="11" type="curve" smooth="yes"/>
      <point x="155" y="74"/>
      <point x="125" y="166"/>
      <point x="125" y="271" type="curve" smooth="yes"/>
      <point x="125" y="364"/>
      <point x="151" y="457"/>
      <point x="220" y="518" type="curve" smooth="yes"/>
      <point x="281" y="572"/>
      <point x="366" y="600"/>
      <point x="453" y="600" type="curve" smooth="yes"/>
      <point x="557" y="600"/>
      <point x="663" y="564"/>
      <point x="723" y="481" type="curve" smooth="yes"/>
      <point x="766" y="421"/>
      <point x="784" y="349"/>
      <point x="786" y="269" type="curve" smooth="yes"/>
      <point x="787" y="223"/>
      <point x="779" y="173"/>
      <point x="752" y="143" type="curve" smooth="yes"/>
      <point x="737" y="126"/>
      <point x="713" y="117"/>
      <point x="689" y="117" type="curve" smooth="yes"/>
      <point x="660" y="117"/>
      <point x="638" y="129"/>
      <point x="617" y="150" type="curve" smooth="yes"/>
      <point x="592" y="175"/>
      <point x="593" y="203"/>
      <point x="593" y="242" type="curve"/>
      <point x="593" y="392" type="line"/>
      <point x="554" y="392" type="line"/>
      <point x="554" y="369" type="line"/>
      <point x="527" y="396"/>
      <point x="488" y="406"/>
      <point x="455" y="406" type="curve" smooth="yes"/>
      <point x="421" y="406"/>
      <point x="383" y="395"/>
      <point x="356" y="368" type="curve" smooth="yes"/>
      <point x="329" y="341"/>
      <point x="318" y="303"/>
      <point x="319" y="269" type="curve" smooth="yes"/>
      <point x="320" y="235"/>
      <point x="328" y="198"/>
      <point x="356" y="170" type="curve" smooth="yes"/>
      <point x="383" y="143"/>
      <point x="421" y="133"/>
      <point x="455" y="133" type="curve" smooth="yes"/>
      <point x="491" y="133"/>
      <point x="531" y="146"/>
      <point x="556" y="171" type="curve"/>
      <point x="560" y="154"/>
      <point x="566" y="142"/>
      <point x="583" y="123" type="curve" smooth="yes"/>
      <point x="607" y="96"/>
      <point x="646" y="75"/>
      <point x="689" y="75" type="curve" smooth="yes"/>
      <point x="721" y="75"/>
      <point x="759" y="87"/>
      <point x="783" y="113" type="curve" smooth="yes"/>
      <point x="819" y="151"/>
      <point x="831" y="205"/>
      <point x="831" y="269" type="curve" smooth="yes"/>
      <point x="831" y="358"/>
      <point x="812" y="438"/>
      <point x="759" y="508" type="curve" smooth="yes"/>
      <point x="690" y="599"/>
      <point x="575" y="645"/>
      <point x="453" y="645" type="curve" smooth="yes"/>
      <point x="356" y="645"/>
      <point x="256" y="616"/>
      <point x="186" y="548" type="curve" smooth="yes"/>
      <point x="112" y="477"/>
      <point x="78" y="375"/>
      <point x="80" y="271" type="curve" smooth="yes"/>
      <point x="82" y="154"/>
      <point x="117" y="47"/>
      <point x="201" y="-22" type="curve" smooth="yes"/>
      <point x="271" y="-80"/>
      <point x="362" y="-105"/>
    </contour>
    <contour>
      <point x="455" y="176" type="curve" smooth="yes"/>
      <point x="428" y="176"/>
      <point x="402" y="184"/>
      <point x="385" y="201" type="curve" smooth="yes"/>
      <point x="368" y="218"/>
      <point x="361" y="243"/>
      <point x="361" y="270" type="curve" smooth="yes"/>
      <point x="361" y="297"/>
      <point x="368" y="323"/>
      <point x="385" y="340" type="curve" smooth="yes"/>
      <point x="402" y="357"/>
      <point x="428" y="365"/>
      <point x="455" y="365" type="curve" smooth="yes"/>
      <point x="482" y="365"/>
      <point x="507" y="356"/>
      <point x="524" y="339" type="curve" smooth="yes"/>
      <point x="541" y="322"/>
      <point x="548" y="297"/>
      <point x="548" y="270" type="curve" smooth="yes"/>
      <point x="548" y="243"/>
      <point x="541" y="218"/>
      <point x="524" y="202" type="curve" smooth="yes"/>
      <point x="506" y="185"/>
      <point x="482" y="176"/>
    </contour>
  </outline>
</glyph>
<glyph name="A" format="2">
  <advance width="609"/>
  <unicode hex="0041"/>
  <note>
A
</note>
  <outline>
    <contour>
      <point x="120" y="227" type="line"/>
      <point x="120" y="187" type="line"/>
      <point x="488" y="187" type="line"/>
      <point x="488" y="227" type="line"/>
    </contour>
    <component base="V" yScale="-1" xOffset="15" yOffset="720"/>
  </outline>
</glyph>
<glyph name="B" format="2">
  <advance width="601"/>
  <unicode hex="0042"/>
  <note>
B
</note>
  <outline>
    <contour>
      <point x="110" y="400" type="line"/>
      <point x="343" y="400" type="line" smooth="yes"/>
      <point x="387" y="400"/>
      <point x="437" y="422"/>
      <point x="464" y="462" type="curve" smooth="yes"/>
      <point x="482" y="488"/>
      <point x="491" y="519"/>
      <point x="491" y="550" type="curve" smooth="yes"/>
      <point x="491" y="584"/>
      <point x="478" y="613"/>
      <point x="455" y="636" type="curve" smooth="yes"/>
      <point x="427" y="664"/>
      <point x="387" y="679"/>
      <point x="343" y="679" type="curve"/>
      <point x="110" y="679" type="line"/>
      <point x="110" y="720" type="line"/>
      <point x="343" y="720" type="line"/>
      <point x="402" y="720"/>
      <point x="449" y="699"/>
      <point x="488" y="662" type="curve" smooth="yes"/>
      <point x="519" y="632"/>
      <point x="536" y="582"/>
      <point x="536" y="540" type="curve" smooth="yes"/>
      <point x="536" y="502"/>
      <point x="523" y="467"/>
      <point x="501" y="436" type="curve" smooth="yes"/>
      <point x="467" y="388"/>
      <point x="415" y="359"/>
      <point x="348" y="359" type="curve"/>
      <point x="110" y="359" type="line"/>
    </contour>
    <contour>
      <point x="90" y="42" type="line"/>
      <point x="342" y="42" type="line"/>
      <point x="403" y="42"/>
      <point x="442" y="51"/>
      <point x="487" y="94" type="curve" smooth="yes"/>
      <point x="514" y="120"/>
      <point x="526" y="153"/>
      <point x="526" y="190" type="curve" smooth="yes"/>
      <point x="526" y="225"/>
      <point x="516" y="260"/>
      <point x="496" y="288" type="curve" smooth="yes"/>
      <point x="468" y="332"/>
      <point x="408" y="359"/>
      <point x="362" y="359" type="curve"/>
      <point x="110" y="359" type="line"/>
      <point x="110" y="399" type="line"/>
      <point x="362" y="399" type="line"/>
      <point x="434" y="399"/>
      <point x="493" y="368"/>
      <point x="531" y="315" type="curve" smooth="yes"/>
      <point x="559" y="280"/>
      <point x="574" y="234"/>
      <point x="571" y="190" type="curve" smooth="yes"/>
      <point x="568" y="146"/>
      <point x="554" y="99"/>
      <point x="526" y="68" type="curve" smooth="yes"/>
      <point x="477" y="15"/>
      <point x="433" y="0"/>
      <point x="343" y="0" type="curve"/>
      <point x="90" y="0" type="line"/>
    </contour>
    <contour>
      <point x="70" y="720" type="line"/>
      <point x="112" y="720" type="line"/>
      <point x="112" y="0" type="line"/>
      <point x="70" y="0" type="line"/>
    </contour>
  </outline>
</glyph>
<glyph name="C" format="2">
  <advance width="702"/>
  <unicode hex="0043"/>
  <note>
C
</note>
  <outline>
    <contour>
      <point x="615" y="228" type="line"/>
      <point x="580" y="100"/>
      <point x="481" y="25"/>
      <point x="353" y="27" type="curve" smooth="yes"/>
      <point x="267" y="28"/>
      <point x="191" y="57"/>
      <point x="141" y="124" type="curve" smooth="yes"/>
      <point x="85" y="198"/>
      <point x="75" y="276"/>
      <point x="75" y="360" type="curve" smooth="yes"/>
      <point x="75" y="554"/>
      <point x="169" y="694"/>
      <point x="353" y="692" type="curve" smooth="yes"/>
      <point x="493" y="690"/>
      <point x="590" y="611"/>
      <point x="618" y="479" type="curve"/>
      <point x="662" y="486" type="line"/>
      <point x="626" y="644"/>
      <point x="510" y="735"/>
      <point x="353" y="735" type="curve" smooth="yes"/>
      <point x="143" y="735"/>
      <point x="35" y="585"/>
      <point x="30" y="360" type="curve" smooth="yes"/>
      <point x="25" y="150"/>
      <point x="139" y="-15"/>
      <point x="353" y="-15" type="curve" smooth="yes"/>
      <point x="506" y="-15"/>
      <point x="623" y="73"/>
      <point x="657" y="216" type="curve"/>
    </contour>
  </outline>
</glyph>
<glyph name="D" format="2">
  <advance width="652"/>
  <unicode hex="0044"/>
  <note>
D
</note>
  <outline>
    <contour>
      <point x="612" y="360" type="curve" smooth="yes"/>
      <point x="612" y="175"/>
      <point x="536" y="28"/>
      <point x="376" y="5" type="curve" smooth="yes"/>
      <point x="351" y="1"/>
      <point x="315" y="0"/>
      <point x="281" y="0" type="curve" smooth="yes"/>
      <point x="70" y="0" type="line"/>
      <point x="70" y="720" type="line"/>
      <point x="281" y="720" type="line" smooth="yes"/>
      <point x="315" y="720"/>
      <point x="351" y="719"/>
      <point x="376" y="715" type="curve" smooth="yes"/>
      <point x="536" y="692"/>
      <point x="612" y="545"/>
    </contour>
    <contour>
      <point x="567" y="360" type="curve" smooth="yes"/>
      <point x="567" y="518"/>
      <point x="518" y="645"/>
      <point x="370" y="672" type="curve" smooth="yes"/>
      <point x="348" y="676"/>
      <point x="313" y="678"/>
      <point x="281" y="678" type="curve" smooth="yes"/>
      <point x="115" y="678" type="line"/>
      <point x="115" y="42" type="line"/>
      <point x="281" y="42" type="line" smooth="yes"/>
      <point x="313" y="42"/>
      <point x="348" y="44"/>
      <point x="370" y="48" type="curve" smooth="yes"/>
      <point x="518" y="75"/>
      <point x="567" y="202"/>
    </contour>
  </outline>
</glyph>
<glyph name="E" format="2">
  <advance width="560"/>
  <unicode hex="0045"/>
  <note>
E
</note>
  <outline>
    <contour>
      <point x="70" y="720" type="line"/>
      <point x="70" y="0" type="line"/>
      <point x="112" y="0" type="line"/>
      <point x="112" y="720" type="line"/>
    </contour>
    <contour>
      <point x="97" y="720" type="line"/>
      <point x="97" y="678" type="line"/>
      <point x="510" y="678" type="line"/>
      <point x="510" y="720" type="line"/>
    </contour>
    <contour>
      <point x="97" y="42" type="line"/>
      <point x="97" y="0" type="line"/>
      <point x="510" y="0" type="line"/>
      <point x="510" y="42" type="line"/>
    </contour>
    <contour>
      <point x="97" y="381" type="line"/>
      <point x="97" y="339" type="line"/>
      <point x="450" y="339" type="line"/>
      <point x="450" y="381" type="line"/>
    </contour>
  </outline>
</glyph>
<glyph name="F" format="2">
  <advance width="490"/>
  <unicode hex="0046"/>
  <note>
F
</note>
  <outline>
    <contour>
      <point x="70" y="720" type="line"/>
      <point x="112" y="720" type="line"/>
      <point x="112" y="0" type="line"/>
      <point x="70" y="0" type="line"/>
    </contour>
    <contour>
      <point x="97" y="720" type="line"/>
      <point x="470" y="720" type="line"/>
      <point x="470" y="678" type="line"/>
      <point x="97" y="678" type="line"/>
    </contour>
    <contour>
      <point x="97" y="381" type="line"/>
      <point x="410" y="381" type="line"/>
      <point x="410" y="339" type="line"/>
      <point x="97" y="339" type="line"/>
    </contour>
  </outline>
</glyph>
<glyph name="G" format="2">
  <advance width="687"/>
  <unicode hex="0047"/>
  <note>
G
</note>
  <outline>
    <contour>
      <point x="30" y="360" type="curve" smooth="yes"/>
      <point x="30" y="140"/>
      <point x="138" y="-15"/>
      <point x="353" y="-15" type="curve" smooth="yes"/>
      <point x="566" y="-15"/>
      <point x="657" y="129"/>
      <point x="657" y="317" type="curve" smooth="yes"/>
      <point x="657" y="326"/>
      <point x="657" y="341"/>
      <point x="655" y="360" type="curve"/>
      <point x="612" y="318" type="line"/>
      <point x="612" y="145"/>
      <point x="538" y="27"/>
      <point x="353" y="27" type="curve" smooth="yes"/>
      <point x="168" y="27"/>
      <point x="73" y="165"/>
      <point x="75" y="360" type="curve" smooth="yes"/>
      <point x="77" y="555"/>
      <point x="168" y="692"/>
      <point x="353" y="692" type="curve" smooth="yes"/>
      <point x="466" y="692"/>
      <point x="546" y="634"/>
      <point x="581" y="544" type="curve"/>
      <point x="622" y="561" type="line"/>
      <point x="583" y="663"/>
      <point x="490" y="734"/>
      <point x="353" y="734" type="curve" smooth="yes"/>
      <point x="138" y="734"/>
      <point x="30" y="580"/>
    </contour>
    <contour>
      <point x="420" y="318" type="line"/>
      <point x="630" y="318" type="line"/>
      <point x="655" y="360" type="line"/>
      <point x="420" y="360" type="line"/>
    </contour>
  </outline>
</glyph>
<glyph name="H" format="2">
  <advance width="660"/>
  <unicode hex="0048"/>
  <note>
H
</note>
  <outline>
    <contour>
      <point x="70" y="720" type="line"/>
      <point x="70" y="0" type="line"/>
      <point x="112" y="0" type="line"/>
      <point x="112" y="720" type="line"/>
    </contour>
    <contour>
      <point x="548" y="720" type="line"/>
      <point x="548" y="0" type="line"/>
      <point x="590" y="0" type="line"/>
      <point x="590" y="720" type="line"/>
    </contour>
    <contour>
      <point x="80" y="381" type="line"/>
      <point x="80" y="339" type="line"/>
      <point x="576" y="339" type="line"/>
      <point x="576" y="381" type="line"/>
    </contour>
  </outline>
</glyph>
<glyph name="I" format="2">
  <advance width="202"/>
  <unicode hex="0049"/>
  <note>
I
</note>
  <outline>
    <contour>
      <point x="80" y="720" type="line"/>
      <point x="80" y="0" type="line"/>
      <point x="122" y="0" type="line"/>
      <point x="122" y="720" type="line"/>
    </contour>
  </outline>
</glyph>
<glyph name="J" format="2">
  <advance width="439"/>
  <unicode hex="004A"/>
  <note>
J
</note>
  <outline>
    <contour>
      <point x="358" y="720" type="line"/>
      <point x="358" y="212" type="line" smooth="yes"/>
      <point x="358" y="157"/>
      <point x="360" y="115"/>
      <point x="335" y="71" type="curve" smooth="yes"/>
      <point x="303" y="15"/>
      <point x="245" y="-14"/>
      <point x="179" y="-14" type="curve" smooth="yes"/>
      <point x="92" y="-14"/>
      <point x="20" y="41"/>
      <point x="0" y="125" type="curve"/>
      <point x="43" y="135" type="line"/>
      <point x="56" y="78"/>
      <point x="110" y="28"/>
      <point x="177" y="28" type="curve" smooth="yes"/>
      <point x="227" y="28"/>
      <point x="274" y="48"/>
      <point x="298" y="93" type="curve" smooth="yes"/>
      <point x="316" y="127"/>
      <point x="316" y="158"/>
      <point x="316" y="212" type="curve" smooth="yes"/>
      <point x="316" y="720" type="line"/>
    </contour>
  </outline>
</glyph>
<glyph name="K" format="2">
  <advance width="558"/>
  <unicode hex="004B"/>
  <note>
K
</note>
  <outline>
    <contour>
      <point x="70" y="0" type="line"/>
      <point x="112" y="0" type="line"/>
      <point x="112" y="376" type="line"/>
      <point x="500" y="0" type="line"/>
      <point x="558" y="0" type="line"/>
      <point x="173" y="376" type="line"/>
      <point x="526" y="720" type="line"/>
      <point x="468" y="720" type="line"/>
      <point x="112" y="376" type="line"/>
      <point x="112" y="720" type="line"/>
      <point x="70" y="720" type="line"/>
    </contour>
  </outline>
</glyph>
<glyph name="L" format="2">
  <advance width="495"/>
  <unicode hex="004C"/>
  <note>
L
</note>
  <outline>
    <contour>
      <point x="122" y="720" type="line"/>
      <point x="122" y="42" type="line"/>
      <point x="480" y="42" type="line"/>
      <point x="480" y="0" type="line"/>
      <point x="80" y="0" type="line"/>
      <point x="80" y="720" type="line"/>
    </contour>
  </outline>
</glyph>
<glyph name="M" format="2">
  <advance width="831"/>
  <unicode hex="004D"/>
  <note>
M
</note>
  <outline>
    <contour>
      <point x="70" y="0" type="line"/>
      <point x="112" y="0" type="line"/>
      <point x="112" y="619" type="line"/>
      <point x="392" y="0" type="line"/>
      <point x="439" y="0" type="line"/>
      <point x="719" y="619" type="line"/>
      <point x="719" y="1" type="line"/>
      <point x="761" y="1" type="line"/>
      <point x="761" y="720" type="line"/>
      <point x="719" y="720" type="line"/>
      <point x="416" y="51" type="line"/>
      <point x="110" y="720" type="line"/>
      <point x="70" y="720" type="line"/>
    </contour>
  </outline>
</glyph>
<glyph name="N" format="2">
  <advance width="662"/>
  <unicode hex="004E"/>
  <note>
N
</note>
  <outline>
    <contour>
      <point x="112" y="720" type="line"/>
      <point x="70" y="720" type="line"/>
      <point x="70" y="0" type="line"/>
      <point x="112" y="0" type="line"/>
      <point x="112" y="646" type="line"/>
      <point x="550" y="0" type="line"/>
      <point x="592" y="0" type="line"/>
      <point x="592" y="720" type="line"/>
      <point x="550" y="720" type="line"/>
      <point x="550" y="75" type="line"/>
    </contour>
  </outline>
</glyph>
<glyph name="O" format="2">
  <advance width="706"/>
  <unicode hex="004F"/>
  <outline>
    <contour>
      <point x="353" y="-15" type="curve" smooth="yes"/>
      <point x="568" y="-15"/>
      <point x="676" y="140"/>
      <point x="676" y="360" type="curve" smooth="yes"/>
      <point x="676" y="580"/>
      <point x="568" y="734"/>
      <point x="353" y="734" type="curve" smooth="yes"/>
      <point x="138" y="734"/>
      <point x="30" y="580"/>
      <point x="30" y="360" type="curve" smooth="yes"/>
      <point x="30" y="140"/>
      <point x="138" y="-15"/>
    </contour>
    <contour>
      <point x="353" y="27" type="curve" smooth="yes"/>
      <point x="168" y="27"/>
      <point x="73" y="165"/>
      <point x="75" y="360" type="curve" smooth="yes"/>
      <point x="77" y="555"/>
      <point x="168" y="692"/>
      <point x="353" y="692" type="curve" smooth="yes"/>
      <point x="538" y="692"/>
      <point x="633" y="555"/>
      <point x="631" y="360" type="curve" smooth="yes"/>
      <point x="629" y="165"/>
      <point x="538" y="27"/>
    </contour>
  </outline>
</glyph>
<glyph name="Q" format="2">
  <advance width="706"/>
  <unicode hex="0051"/>
  <note>
Q
</note>
  <outline>
    <contour>
      <point x="669" y="19" type="line"/>
      <point x="487" y="201" type="line"/>
      <point x="454" y="168" type="line"/>
      <point x="637" y="-14" type="line"/>
    </contour>
    <component base="O"/>
  </outline>
</glyph>
<glyph name="R" format="2">
  <advance width="591"/>
  <unicode hex="0052"/>
  <note>
R
</note>
  <outline>
    <contour>
      <point x="571" y="0" type="line"/>
      <point x="415" y="320" type="line"/>
      <point x="379" y="293" type="line"/>
      <point x="521" y="0" type="line"/>
    </contour>
    <component base="P"/>
  </outline>
</glyph>
<glyph name="S" format="2">
  <advance width="589"/>
  <unicode hex="0053"/>
  <note>
S
</note>
  <outline>
    <contour>
      <point x="309" y="-15" type="curve" smooth="yes"/>
      <point x="450" y="-15"/>
      <point x="559" y="55"/>
      <point x="559" y="188" type="curve" smooth="yes"/>
      <point x="559" y="318"/>
      <point x="453" y="353"/>
      <point x="396" y="370" type="curve" smooth="yes"/>
      <point x="247" y="415" type="line" smooth="yes"/>
      <point x="163" y="440"/>
      <point x="103" y="469"/>
      <point x="103" y="546" type="curve" smooth="yes"/>
      <point x="103" y="633"/>
      <point x="185" y="693"/>
      <point x="293" y="693" type="curve" smooth="yes"/>
      <point x="406" y="693"/>
      <point x="499" y="627"/>
      <point x="514" y="517" type="curve"/>
      <point x="556" y="525" type="line"/>
      <point x="537" y="658"/>
      <point x="428" y="735"/>
      <point x="293" y="735" type="curve" smooth="yes"/>
      <point x="160" y="735"/>
      <point x="58" y="661"/>
      <point x="58" y="545" type="curve" smooth="yes"/>
      <point x="58" y="427"/>
      <point x="165" y="393"/>
      <point x="207" y="381" type="curve" smooth="yes"/>
      <point x="366" y="334" type="line" smooth="yes"/>
      <point x="437" y="313"/>
      <point x="518" y="288"/>
      <point x="518" y="189" type="curve" smooth="yes"/>
      <point x="518" y="82"/>
      <point x="423" y="27"/>
      <point x="309" y="27" type="curve" smooth="yes"/>
      <point x="193" y="27"/>
      <point x="99" y="84"/>
      <point x="72" y="187" type="curve"/>
      <point x="30" y="179" type="line"/>
      <point x="57" y="54"/>
      <point x="170" y="-15"/>
    </contour>
  </outline>
</glyph>
<glyph name="T" format="2">
  <advance width="590"/>
  <unicode hex="0054"/>
  <note>
T
</note>
  <outline>
    <contour>
      <point x="274" y="0" type="line"/>
      <point x="316" y="0" type="line"/>
      <point x="316" y="678" type="line"/>
      <point x="580" y="678" type="line"/>
      <point x="580" y="720" type="line"/>
      <point x="10" y="720" type="line"/>
      <point x="10" y="678" type="line"/>
      <point x="274" y="678" type="line"/>
    </contour>
  </outline>
</glyph>
<glyph name="V" format="2">
  <advance width="579"/>
  <unicode hex="0056"/>
  <note>
V
</note>
  <outline>
    <contour>
      <point x="267" y="0" type="line"/>
      <point x="312" y="0" type="line"/>
      <point x="574" y="720" type="line"/>
      <point x="529" y="720" type="line"/>
      <point x="289" y="61" type="line"/>
      <point x="50" y="720" type="line"/>
      <point x="5" y="720" type="line"/>
    </contour>
  </outline>
</glyph>
<glyph name="W" format="2">
  <advance width="909"/>
  <unicode hex="0057"/>
  <note>
W
</note>
  <outline>
    <contour>
      <point x="845" y="720" type="line"/>
      <point x="661" y="76" type="line"/>
      <point x="476" y="720" type="line"/>
      <point x="432" y="720" type="line"/>
      <point x="248" y="76" type="line"/>
      <point x="63" y="720" type="line"/>
      <point x="20" y="720" type="line"/>
      <point x="226" y="0" type="line"/>
      <point x="270" y="0" type="line"/>
      <point x="454" y="643" type="line"/>
      <point x="639" y="0" type="line"/>
      <point x="683" y="0" type="line"/>
      <point x="889" y="720" type="line"/>
    </contour>
  </outline>
</glyph>
<glyph name="X" format="2">
  <advance width="573"/>
  <unicode hex="0058"/>
  <note>
X
</note>
  <outline>
    <contour>
      <point x="310" y="365" type="line"/>
      <point x="557" y="720" type="line"/>
      <point x="507" y="720" type="line"/>
      <point x="286" y="399" type="line"/>
      <point x="66" y="720" type="line"/>
      <point x="16" y="720" type="line"/>
      <point x="263" y="365" type="line"/>
      <point x="10" y="0" type="line"/>
      <point x="60" y="0" type="line"/>
      <point x="286" y="330" type="line"/>
      <point x="513" y="0" type="line"/>
      <point x="563" y="0" type="line"/>
    </contour>
  </outline>
</glyph>
<glyph name="Y" format="2">
  <advance width="519"/>
  <unicode hex="0059"/>
  <note>
Y
</note>
  <outline>
    <contour>
      <point x="471" y="720" type="line"/>
      <point x="260" y="354" type="line"/>
      <point x="48" y="720" type="line"/>
      <point x="0" y="720" type="line"/>
      <point x="239" y="306" type="line"/>
      <point x="239" y="0" type="line"/>
      <point x="281" y="0" type="line"/>
      <point x="281" y="306" type="line"/>
      <point x="519" y="720" type="line"/>
    </contour>
  </outline>
</glyph>
<glyph name="Z" format="2">
  <advance width="581"/>
  <unicode hex="005A"/>
  <note>
Z
</note>
  <outline>
    <contour>
      <point x="50" y="0" type="line"/>
      <point x="531" y="0" type="line"/>
      <point x="531" y="41" type="line"/>
      <point x="114" y="41" type="line"/>
      <point x="531" y="703" type="line"/>
      <point x="531" y="720" type="line"/>
      <point x="50" y="720" type="line"/>
      <point x="50" y="678" type="line"/>
      <point x="469" y="678" type="line"/>
      <point x="50" y="15" type="line"/>
    </contour>
  </outline>
</glyph>
<glyph name="bracketleft" format="2">
  <advance width="396"/>
  <unicode hex="005B"/>
  <outline>
    <contour>
      <point x="152" y="882" type="line"/>
      <point x="152" y="840" type="line"/>
      <point x="306" y="840" type="line"/>
      <point x="306" y="882" type="line"/>
    </contour>
    <contour>
      <point x="140" y="882" type="line"/>
      <point x="140" y="-222" type="line"/>
      <point x="182" y="-222" type="line"/>
      <point x="182" y="882" type="line"/>
    </contour>
    <contour>
      <point x="152" y="-180" type="line"/>
      <point x="152" y="-222" type="line"/>
      <point x="306" y="-222" type="line"/>
      <point x="306" y="-180" type="line"/>
    </contour>
  </outline>
</glyph>
<glyph name="backslash" format="2">
  <advance width="357"/>
  <unicode hex="005C"/>
  <outline>
    <contour>
      <point x="105" y="720" type="line"/>
      <point x="60" y="720" type="line"/>
      <point x="252" y="0" type="line"/>
      <point x="297" y="0" type="line"/>
    </contour>
  </outline>
</glyph>
<glyph name="a" format="2">
  <advance width="542"/>
  <unicode hex="0061"/>
  <note>
a
</note>
  <outline>
    <contour>
      <point x="482" y="0" type="line"/>
      <point x="482" y="338" type="line"/>
      <point x="482" y="366"/>
      <point x="480" y="391"/>
      <point x="473" y="417" type="curve" smooth="yes"/>
      <point x="449" y="504"/>
      <point x="383" y="555"/>
      <point x="283" y="555" type="curve" smooth="yes"/>
      <point x="168" y="555"/>
      <point x="83" y="510"/>
      <point x="61" y="411" type="curve"/>
      <point x="105" y="397" type="line"/>
      <point x="127" y="482"/>
      <point x="191" y="513"/>
      <point x="280" y="513" type="curve" smooth="yes"/>
      <point x="386" y="513"/>
      <point x="440" y="448"/>
      <point x="440" y="332" type="curve"/>
      <point x="338" y="319"/>
      <point x="254" y="312"/>
      <point x="176" y="294" type="curve" smooth="yes"/>
      <point x="78" y="271"/>
      <point x="40" y="213"/>
      <point x="40" y="146" type="curve" smooth="yes"/>
      <point x="40" y="46"/>
      <point x="117" y="-15"/>
      <point x="217" y="-15" type="curve" smooth="yes"/>
      <point x="314" y="-15"/>
      <point x="398" y="18"/>
      <point x="443" y="98" type="curve"/>
      <point x="443" y="0" type="line"/>
    </contour>
    <contour>
      <point x="416" y="134" type="curve"/>
      <point x="380" y="61"/>
      <point x="309" y="27"/>
      <point x="218" y="27" type="curve" smooth="yes"/>
      <point x="140" y="27"/>
      <point x="84" y="70"/>
      <point x="84" y="146" type="curve" smooth="yes"/>
      <point x="84" y="202"/>
      <point x="125" y="238"/>
      <point x="190" y="256" type="curve" smooth="yes"/>
      <point x="264" y="277"/>
      <point x="344" y="281"/>
      <point x="440" y="291" type="curve"/>
      <point x="440" y="251"/>
      <point x="439" y="181"/>
    </contour>
  </outline>
</glyph>
<glyph name="c" format="2">
  <advance width="539"/>
  <unicode hex="0063"/>
  <note>
c
</note>
  <outline>
    <contour>
      <point x="504" y="421" type="line"/>
      <point x="471" y="504"/>
      <point x="387" y="555"/>
      <point x="287" y="555" type="curve" smooth="yes"/>
      <point x="127" y="555"/>
      <point x="43" y="443"/>
      <point x="40" y="270" type="curve" smooth="yes"/>
      <point x="43" y="101"/>
      <point x="126" y="-15"/>
      <point x="287" y="-15" type="curve" smooth="yes"/>
      <point x="385" y="-15"/>
      <point x="459" y="30"/>
      <point x="504" y="117" type="curve"/>
      <point x="463" y="135" type="line"/>
      <point x="430" y="64"/>
      <point x="366" y="27"/>
      <point x="287" y="27" type="curve" smooth="yes"/>
      <point x="154" y="27"/>
      <point x="87" y="123"/>
      <point x="85" y="270" type="curve" smooth="yes"/>
      <point x="87" y="414"/>
      <point x="151" y="513"/>
      <point x="287" y="513" type="curve" smooth="yes"/>
      <point x="368" y="513"/>
      <point x="434" y="473"/>
      <point x="464" y="404" type="curve"/>
    </contour>
  </outline>
</glyph>
<glyph name="e" format="2">
  <advance width="573"/>
  <unicode hex="0065"/>
  <note>
e
</note>
  <outline>
    <contour>
      <point x="485" y="149" type="line"/>
      <point x="445" y="68"/>
      <point x="377" y="27"/>
      <point x="287" y="27" type="curve" smooth="yes"/>
      <point x="154" y="27"/>
      <point x="85" y="123"/>
      <point x="85" y="270" type="curve" smooth="yes"/>
      <point x="85" y="413"/>
      <point x="152" y="515"/>
      <point x="287" y="513" type="curve" smooth="yes"/>
      <point x="419" y="515"/>
      <point x="484" y="420"/>
      <point x="488" y="272" type="curve"/>
      <point x="488" y="258" type="line"/>
      <point x="533" y="258" type="line"/>
      <point x="533" y="435"/>
      <point x="454" y="555"/>
      <point x="287" y="555" type="curve" smooth="yes"/>
      <point x="129" y="555"/>
      <point x="40" y="440"/>
      <point x="40" y="270" type="curve" smooth="yes"/>
      <point x="40" y="103"/>
      <point x="128" y="-15"/>
      <point x="287" y="-15" type="curve" smooth="yes"/>
      <point x="393" y="-15"/>
      <point x="476" y="35"/>
      <point x="520" y="129" type="curve"/>
    </contour>
    <contour>
      <point x="67" y="300" type="line"/>
      <point x="67" y="258" type="line"/>
      <point x="507" y="258" type="line"/>
      <point x="507" y="300" type="line"/>
    </contour>
  </outline>
</glyph>
<glyph name="g" format="2">
  <advance width="576"/>
  <unicode hex="0067"/>
  <note>
g
</note>
  <outline>
    <contour>
      <point x="506" y="540" type="line"/>
      <point x="467" y="540" type="line"/>
      <point x="467" y="168" type="line"/>
      <point x="463" y="168" type="line"/>
      <point x="463" y="30" type="line" smooth="yes"/>
      <point x="463" y="-130"/>
      <point x="421" y="-212"/>
      <point x="276" y="-212" type="curve" smooth="yes"/>
      <point x="209" y="-212"/>
      <point x="137" y="-184"/>
      <point x="101" y="-110" type="curve"/>
      <point x="64" y="-135" type="line"/>
      <point x="113" y="-226"/>
      <point x="198" y="-255"/>
      <point x="276" y="-255" type="curve" smooth="yes"/>
      <point x="415" y="-255"/>
      <point x="485" y="-194"/>
      <point x="501" y="-63" type="curve" smooth="yes"/>
      <point x="505" y="-33"/>
      <point x="506" y="-3"/>
      <point x="506" y="30" type="curve" smooth="yes"/>
    </contour>
    <component base="oval-inner"/>
  </outline>
</glyph>
<glyph name="j" format="2">
  <advance width="225"/>
  <unicode hex="006A"/>
  <note>
j
</note>
  <outline>
    <contour>
      <point x="24" y="-197" type="line"/>
      <point x="47" y="-197"/>
      <point x="68" y="-192"/>
      <point x="86" y="-172" type="curve" smooth="yes"/>
      <point x="104" y="-152"/>
      <point x="103" y="-126"/>
      <point x="103" y="-60" type="curve" smooth="yes"/>
      <point x="103" y="540" type="line"/>
      <point x="145" y="540" type="line"/>
      <point x="145" y="-60" type="line" smooth="yes"/>
      <point x="145" y="-128"/>
      <point x="149" y="-176"/>
      <point x="116" y="-210" type="curve" smooth="yes"/>
      <point x="90" y="-236"/>
      <point x="50" y="-240"/>
      <point x="23" y="-240" type="curve"/>
      <point x="-10" y="-240" type="line"/>
      <point x="-10" y="-197" type="line"/>
    </contour>
    <contour>
      <point x="103" y="710" type="line"/>
      <point x="103" y="646" type="line"/>
      <point x="145" y="646" type="line"/>
      <point x="145" y="710" type="line"/>
    </contour>
  </outline>
</glyph>
<glyph name="k" format="2">
  <advance width="468"/>
  <unicode hex="006B"/>
  <note>
k
</note>
  <outline>
    <contour>
      <point x="70" y="0" type="line"/>
      <point x="112" y="0" type="line"/>
      <point x="112" y="260" type="line"/>
      <point x="416" y="0" type="line"/>
      <point x="488" y="0" type="line"/>
      <point x="163" y="270" type="line"/>
      <point x="445" y="540" type="line"/>
      <point x="382" y="540" type="line"/>
      <point x="112" y="280" type="line"/>
      <point x="112" y="720" type="line"/>
      <point x="70" y="720" type="line"/>
    </contour>
  </outline>
</glyph>
<glyph name="l" format="2">
  <advance width="202"/>
  <unicode hex="006C"/>
  <note>
l
</note>
  <outline>
    <contour>
      <point x="80" y="0" type="line"/>
      <point x="80" y="735" type="line"/>
      <point x="122" y="735" type="line"/>
      <point x="122" y="0" type="line"/>
    </contour>
  </outline>
</glyph>
<glyph name="m" format="2">
  <advance width="814"/>
  <unicode hex="006D"/>
  <note>
m
</note>
  <outline>
    <contour>
      <point x="70" y="540" type="line"/>
      <point x="70" y="0" type="line"/>
      <point x="112" y="0" type="line"/>
      <point x="112" y="430" type="line"/>
      <point x="109" y="430" type="line"/>
      <point x="109" y="540" type="line"/>
    </contour>
    <contour>
      <point x="391" y="0" type="line"/>
      <point x="432" y="0" type="line"/>
      <point x="433" y="372" type="line" smooth="yes"/>
      <point x="433" y="499"/>
      <point x="349" y="555"/>
      <point x="258" y="555" type="curve" smooth="yes"/>
      <point x="151" y="555"/>
      <point x="75" y="479"/>
      <point x="75" y="375" type="curve"/>
      <point x="112" y="359" type="line"/>
      <point x="112" y="455"/>
      <point x="169" y="517"/>
      <point x="253" y="517" type="curve" smooth="yes"/>
      <point x="335" y="517"/>
      <point x="392" y="458"/>
      <point x="392" y="365" type="curve" smooth="yes"/>
    </contour>
    <contour>
      <point x="711" y="0" type="line"/>
      <point x="753" y="0" type="line"/>
      <point x="754" y="375" type="line" smooth="yes"/>
      <point x="754" y="487"/>
      <point x="680" y="555"/>
      <point x="578" y="555" type="curve" smooth="yes"/>
      <point x="470" y="555"/>
      <point x="391" y="478"/>
      <point x="396" y="359" type="curve"/>
      <point x="433" y="359" type="line"/>
      <point x="433" y="479"/>
      <point x="511" y="517"/>
      <point x="575" y="517" type="curve" smooth="yes"/>
      <point x="652" y="517"/>
      <point x="712" y="462"/>
      <point x="712" y="372" type="curve" smooth="yes"/>
    </contour>
  </outline>
</glyph>
<glyph name="n" format="2">
  <advance width="573"/>
  <unicode hex="006E"/>
  <note>
n
</note>
  <outline>
    <contour>
      <point x="471" y="0" type="line"/>
      <point x="513" y="0" type="line"/>
      <point x="513" y="294" type="line" smooth="yes"/>
      <point x="513" y="454"/>
      <point x="431" y="552"/>
      <point x="294" y="552" type="curve" smooth="yes"/>
      <point x="175" y="552"/>
      <point x="73" y="479"/>
      <point x="73" y="294" type="curve"/>
      <point x="112" y="295" type="line"/>
      <point x="112" y="411"/>
      <point x="162" y="511"/>
      <point x="294" y="511" type="curve" smooth="yes"/>
      <point x="406" y="511"/>
      <point x="471" y="440"/>
      <point x="471" y="286" type="curve" smooth="yes"/>
    </contour>
    <contour>
      <point x="70" y="0" type="line"/>
      <point x="112" y="0" type="line"/>
      <point x="112" y="430" type="line"/>
      <point x="109" y="430" type="line"/>
      <point x="109" y="540" type="line"/>
      <point x="70" y="540" type="line"/>
    </contour>
  </outline>
</glyph>
<glyph name="o" format="2">
  <advance width="574"/>
  <unicode hex="006F"/>
  <note>
o
</note>
  <outline>
    <contour>
      <point x="287" y="-15" type="curve" smooth="yes"/>
      <point x="446" y="-15"/>
      <point x="534" y="100"/>
      <point x="534" y="271" type="curve" smooth="yes"/>
      <point x="534" y="438"/>
      <point x="448" y="555"/>
      <point x="287" y="555" type="curve" smooth="yes"/>
      <point x="130" y="555"/>
      <point x="40" y="441"/>
      <point x="40" y="271" type="curve" smooth="yes"/>
      <point x="40" y="103"/>
      <point x="127" y="-15"/>
    </contour>
    <contour>
      <point x="489" y="271" type="curve" smooth="yes"/>
      <point x="489" y="126"/>
      <point x="423" y="27"/>
      <point x="287" y="27" type="curve" smooth="yes"/>
      <point x="154" y="27"/>
      <point x="85" y="124"/>
      <point x="85" y="271" type="curve" smooth="yes"/>
      <point x="85" y="413"/>
      <point x="150" y="513"/>
      <point x="287" y="513" type="curve" smooth="yes"/>
      <point x="422" y="513"/>
      <point x="489" y="418"/>
    </contour>
  </outline>
</glyph>
<glyph name="r" format="2">
  <advance width="335"/>
  <unicode hex="0072"/>
  <note>
r
</note>
  <outline>
    <contour>
      <point x="310" y="540" type="line"/>
      <point x="263" y="555"/>
      <point x="187" y="543"/>
      <point x="143" y="500" type="curve" smooth="yes"/>
      <point x="86" y="444"/>
      <point x="79" y="379"/>
      <point x="72" y="292" type="curve"/>
      <point x="72" y="227" type="line"/>
      <point x="112" y="227" type="line"/>
      <point x="112" y="325"/>
      <point x="109" y="413"/>
      <point x="169" y="468" type="curve" smooth="yes"/>
      <point x="212" y="508"/>
      <point x="265" y="510"/>
      <point x="310" y="500" type="curve"/>
    </contour>
    <component base="line-vertical-short" yScale="-1" xOffset="70" yOffset="540"/>
  </outline>
</glyph>
<glyph name="t" format="2">
  <advance width="379"/>
  <unicode hex="0074"/>
  <note>
t
</note>
  <outline>
    <contour>
      <point x="349" y="40" type="line"/>
      <point x="322" y="34"/>
      <point x="289" y="33"/>
      <point x="259" y="36" type="curve"/>
      <point x="228" y="39"/>
      <point x="201" y="55"/>
      <point x="190" y="82" type="curve"/>
      <point x="176" y="107"/>
      <point x="179" y="132"/>
      <point x="179" y="179" type="curve" smooth="yes"/>
      <point x="179" y="690" type="line"/>
      <point x="137" y="690" type="line"/>
      <point x="137" y="179" type="line" smooth="yes"/>
      <point x="137" y="132"/>
      <point x="136" y="98"/>
      <point x="152" y="63" type="curve"/>
      <point x="171" y="22"/>
      <point x="207" y="1"/>
      <point x="254" y="-5" type="curve"/>
      <point x="286" y="-9"/>
      <point x="317" y="-7"/>
      <point x="349" y="0" type="curve"/>
    </contour>
    <contour>
      <point x="10" y="540" type="line"/>
      <point x="10" y="498" type="line"/>
      <point x="349" y="498" type="line"/>
      <point x="349" y="540" type="line"/>
    </contour>
  </outline>
</glyph>
<glyph name="u" format="2">
  <advance width="573"/>
  <unicode hex="0075"/>
  <note>
u
</note>
  <outline>
    <contour>
      <point x="279" y="-12" type="curve" smooth="yes"/>
      <point x="398" y="-12"/>
      <point x="500" y="61"/>
      <point x="500" y="246" type="curve"/>
      <point x="461" y="245" type="line"/>
      <point x="461" y="129"/>
      <point x="411" y="29"/>
      <point x="279" y="29" type="curve" smooth="yes"/>
      <point x="167" y="29"/>
      <point x="102" y="100"/>
      <point x="102" y="254" type="curve" smooth="yes"/>
      <point x="102" y="540" type="line"/>
      <point x="60" y="540" type="line"/>
      <point x="60" y="246" type="line" smooth="yes"/>
      <point x="60" y="86"/>
      <point x="142" y="-12"/>
    </contour>
    <contour>
      <point x="464" y="0" type="line"/>
      <point x="503" y="0" type="line"/>
      <point x="503" y="540" type="line"/>
      <point x="461" y="540" type="line"/>
      <point x="461" y="110" type="line"/>
      <point x="464" y="110" type="line"/>
    </contour>
  </outline>
</glyph>
<glyph name="v" format="2">
  <advance width="478"/>
  <unicode hex="0076"/>
  <outline>
    <contour>
      <point x="413" y="540" type="line"/>
      <point x="239" y="61" type="line"/>
      <point x="64" y="540" type="line"/>
      <point x="20" y="540" type="line"/>
      <point x="216" y="0" type="line"/>
      <point x="262" y="0" type="line"/>
      <point x="458" y="540" type="line"/>
    </contour>
  </outline>
</glyph>
<glyph name="w" format="2">
  <advance width="744"/>
  <unicode hex="0077"/>
  <note>
w
</note>
  <outline>
    <contour>
      <point x="681" y="540" type="line"/>
      <point x="537" y="72" type="line"/>
      <point x="394" y="540" type="line"/>
      <point x="350" y="540" type="line"/>
      <point x="207" y="72" type="line"/>
      <point x="64" y="540" type="line"/>
      <point x="20" y="540" type="line"/>
      <point x="185" y="0" type="line"/>
      <point x="229" y="0" type="line"/>
      <point x="372" y="469" type="line"/>
      <point x="515" y="0" type="line"/>
      <point x="559" y="0" type="line"/>
      <point x="724" y="540" type="line"/>
    </contour>
  </outline>
</glyph>
<glyph name="x" format="2">
  <advance width="509"/>
  <unicode hex="0078"/>
  <note>
x
</note>
  <outline>
    <contour>
      <point x="494" y="540" type="line"/>
      <point x="442" y="540" type="line"/>
      <point x="255" y="304" type="line"/>
      <point x="67" y="540" type="line"/>
      <point x="15" y="540" type="line"/>
      <point x="230" y="273" type="line"/>
      <point x="10" y="0" type="line"/>
      <point x="63" y="0" type="line"/>
      <point x="255" y="242" type="line"/>
      <point x="446" y="0" type="line"/>
      <point x="499" y="0" type="line"/>
      <point x="279" y="273" type="line"/>
    </contour>
  </outline>
</glyph>
<glyph name="y" format="2">
  <advance width="506"/>
  <unicode hex="0079"/>
  <note>
y
</note>
  <outline>
    <contour>
      <point x="66" y="540" type="line"/>
      <point x="20" y="540" type="line"/>
      <point x="240" y="0" type="line"/>
      <point x="263" y="54" type="line"/>
    </contour>
    <contour>
      <point x="436" y="540" type="line"/>
      <point x="240" y="0" type="line"/>
      <point x="151" y="-240" type="line"/>
      <point x="198" y="-240" type="line"/>
      <point x="481" y="540" type="line"/>
    </contour>
  </outline>
</glyph>
<glyph name="z" format="2">
  <advance width="527"/>
  <unicode hex="007A"/>
  <note>
z
</note>
  <outline>
    <contour>
      <point x="463" y="44" type="line"/>
      <point x="97" y="44" type="line"/>
      <point x="487" y="523" type="line"/>
      <point x="487" y="540" type="line"/>
      <point x="44" y="540" type="line"/>
      <point x="44" y="496" type="line"/>
      <point x="410" y="496" type="line"/>
      <point x="20" y="15" type="line"/>
      <point x="20" y="0" type="line"/>
      <point x="463" y="0" type="line"/>
    </contour>
  </outline>
</glyph>
<glyph name="braceleft" format="2">
  <advance width="400"/>
  <unicode hex="007B"/>
  <outline>
    <contour>
      <point x="355" y="-222" type="line"/>
      <point x="301" y="-222" type="line"/>
      <point x="243" y="-222"/>
      <point x="196" y="-175"/>
      <point x="196" y="-118" type="curve"/>
      <point x="196" y="225" type="line"/>
      <point x="196" y="238"/>
      <point x="192" y="250"/>
      <point x="185" y="261" type="curve"/>
      <point x="144" y="318" type="line"/>
      <point x="139" y="325"/>
      <point x="139" y="335"/>
      <point x="144" y="342" type="curve"/>
      <point x="185" y="399" type="line"/>
      <point x="192" y="410"/>
      <point x="196" y="422"/>
      <point x="196" y="435" type="curve"/>
      <point x="196" y="777" type="line"/>
      <point x="196" y="835"/>
      <point x="243" y="882"/>
      <point x="301" y="882" type="curve"/>
      <point x="355" y="882" type="line"/>
      <point x="355" y="840" type="line"/>
      <point x="301" y="840" type="line"/>
      <point x="266" y="840"/>
      <point x="238" y="812"/>
      <point x="238" y="777" type="curve"/>
      <point x="238" y="435" type="line"/>
      <point x="238" y="413"/>
      <point x="232" y="393"/>
      <point x="219" y="375" type="curve"/>
      <point x="187" y="330" type="line"/>
      <point x="219" y="285" type="line"/>
      <point x="232" y="267"/>
      <point x="238" y="246"/>
      <point x="238" y="225" type="curve"/>
      <point x="238" y="-118" type="line"/>
      <point x="238" y="-152"/>
      <point x="266" y="-180"/>
      <point x="301" y="-180" type="curve"/>
      <point x="355" y="-180" type="line"/>
    </contour>
  </outline>
</glyph>
<glyph name="cent" format="2">
  <advance width="539"/>
  <unicode hex="00A2"/>
  <outline>
    <contour>
      <point x="267" y="80" type="line"/>
      <point x="267" y="-30" type="line"/>
      <point x="309" y="-30" type="line"/>
      <point x="309" y="80" type="line"/>
    </contour>
    <contour>
      <point x="267" y="720" type="line"/>
      <point x="267" y="600" type="line"/>
      <point x="309" y="600" type="line"/>
      <point x="309" y="720" type="line"/>
    </contour>
    <component base="c" yOffset="75"/>
  </outline>
</glyph>
<glyph name="sterling" format="2">
  <advance width="631"/>
  <unicode hex="00A3"/>
  <outline>
    <contour>
      <point x="571" y="561" type="line"/>
      <point x="532" y="678"/>
      <point x="471" y="735"/>
      <point x="384" y="735" type="curve" smooth="yes"/>
      <point x="281" y="735"/>
      <point x="205" y="660"/>
      <point x="205" y="550" type="curve" smooth="yes"/>
      <point x="205" y="111" type="line"/>
      <point x="205" y="73"/>
      <point x="174" y="42"/>
      <point x="136" y="42" type="curve"/>
      <point x="60" y="42" type="line"/>
      <point x="60" y="0" type="line"/>
      <point x="558" y="0" type="line"/>
      <point x="558" y="42" type="line"/>
      <point x="247" y="42" type="line"/>
      <point x="247" y="550" type="line" smooth="yes"/>
      <point x="247" y="637"/>
      <point x="301" y="693"/>
      <point x="383" y="693" type="curve" smooth="yes"/>
      <point x="452" y="693"/>
      <point x="498" y="648"/>
      <point x="531" y="548" type="curve"/>
    </contour>
    <contour>
      <point x="449" y="389" type="line"/>
      <point x="60" y="389" type="line"/>
      <point x="60" y="347" type="line"/>
      <point x="449" y="347" type="line"/>
    </contour>
  </outline>
</glyph>
<glyph name="currency" format="2">
  <advance width="622"/>
  <unicode hex="00A4"/>
  <outline>
    <contour>
      <point x="30" y="110" type="line"/>
      <point x="60" y="80" type="line"/>
      <point x="156" y="176" type="line"/>
      <point x="126" y="206" type="line"/>
    </contour>
    <contour>
      <point x="30" y="611" type="line"/>
      <point x="127" y="514" type="line"/>
      <point x="156" y="544" type="line"/>
      <point x="60" y="640" type="line"/>
    </contour>
    <contour>
      <point x="466" y="176" type="line"/>
      <point x="562" y="80" type="line"/>
      <point x="592" y="110" type="line"/>
      <point x="496" y="206" type="line"/>
    </contour>
    <contour>
      <point x="466" y="544" type="line"/>
      <point x="495" y="514" type="line"/>
      <point x="592" y="611" type="line"/>
      <point x="562" y="640" type="line"/>
    </contour>
    <contour>
      <point x="311" y="623" type="curve" smooth="yes"/>
      <point x="167" y="623"/>
      <point x="49" y="505"/>
      <point x="49" y="361" type="curve" smooth="yes"/>
      <point x="49" y="216"/>
      <point x="167" y="98"/>
      <point x="311" y="98" type="curve" smooth="yes"/>
      <point x="456" y="98"/>
      <point x="574" y="216"/>
      <point x="574" y="361" type="curve" smooth="yes"/>
      <point x="574" y="505"/>
      <point x="456" y="623"/>
    </contour>
    <contour>
      <point x="311" y="581" type="curve" smooth="yes"/>
      <point x="430" y="581"/>
      <point x="532" y="482"/>
      <point x="532" y="360" type="curve" smooth="yes"/>
      <point x="532" y="241"/>
      <point x="433" y="140"/>
      <point x="311" y="140" type="curve" smooth="yes"/>
      <point x="189" y="140"/>
      <point x="91" y="241"/>
      <point x="91" y="360" type="curve" smooth="yes"/>
      <point x="91" y="482"/>
      <point x="189" y="581"/>
    </contour>
  </outline>
</glyph>
<glyph name="yen" format="2">
  <advance width="519"/>
  <unicode hex="00A5"/>
  <outline>
    <contour>
      <point x="80" y="256" type="line"/>
      <point x="440" y="256" type="line"/>
      <point x="440" y="298" type="line"/>
      <point x="80" y="298" type="line"/>
    </contour>
    <contour>
      <point x="80" y="122" type="line"/>
      <point x="440" y="122" type="line"/>
      <point x="440" y="164" type="line"/>
      <point x="80" y="164" type="line"/>
    </contour>
    <component base="Y"/>
  </outline>
</glyph>
<glyph name="brokenbar" format="2">
  <advance width="222"/>
  <unicode hex="00A6"/>
  <outline>
    <contour>
      <point x="90" y="376" type="line"/>
      <point x="132" y="376" type="line"/>
      <point x="132" y="720" type="line"/>
      <point x="90" y="720" type="line"/>
    </contour>
    <contour>
      <point x="90" y="-124" type="line"/>
      <point x="132" y="-124" type="line"/>
      <point x="132" y="220" type="line"/>
      <point x="90" y="220" type="line"/>
    </contour>
  </outline>
</glyph>
<glyph name="copyright" format="2">
  <advance width="748"/>
  <unicode hex="00A9"/>
  <outline>
    <contour>
      <point x="374" y="-31" type="curve" smooth="yes"/>
      <point x="539" y="-31"/>
      <point x="673" y="103"/>
      <point x="673" y="270" type="curve" smooth="yes"/>
      <point x="673" y="435"/>
      <point x="539" y="569"/>
      <point x="374" y="569" type="curve" smooth="yes"/>
      <point x="207" y="569"/>
      <point x="73" y="435"/>
      <point x="73" y="270" type="curve" smooth="yes"/>
      <point x="73" y="103"/>
      <point x="207" y="-31"/>
    </contour>
    <contour>
      <point x="374" y="-75" type="curve" smooth="yes"/>
      <point x="184" y="-75"/>
      <point x="30" y="79"/>
      <point x="30" y="269" type="curve" smooth="yes"/>
      <point x="30" y="459"/>
      <point x="184" y="613"/>
      <point x="374" y="613" type="curve" smooth="yes"/>
      <point x="564" y="613"/>
      <point x="718" y="459"/>
      <point x="718" y="269" type="curve" smooth="yes"/>
      <point x="718" y="79"/>
      <point x="564" y="-75"/>
    </contour>
    <contour>
      <point x="540" y="375" type="line"/>
      <point x="529" y="409"/>
      <point x="504" y="437"/>
      <point x="475" y="455" type="curve" smooth="yes"/>
      <point x="445" y="473"/>
      <point x="414" y="480"/>
      <point x="377" y="480" type="curve" smooth="yes"/>
      <point x="319" y="480"/>
      <point x="270" y="460"/>
      <point x="235" y="416" type="curve" smooth="yes"/>
      <point x="201" y="374"/>
      <point x="193" y="321"/>
      <point x="192" y="270" type="curve" smooth="yes"/>
      <point x="191" y="220"/>
      <point x="202" y="167"/>
      <point x="235" y="124" type="curve" smooth="yes"/>
      <point x="268" y="81"/>
      <point x="319" y="60"/>
      <point x="377" y="60" type="curve" smooth="yes"/>
      <point x="415" y="60"/>
      <point x="448" y="69"/>
      <point x="478" y="88" type="curve" smooth="yes"/>
      <point x="505" y="105"/>
      <point x="526" y="133"/>
      <point x="540" y="163" type="curve"/>
      <point x="498" y="178" type="line"/>
      <point x="487" y="154"/>
      <point x="472" y="134"/>
      <point x="451" y="121" type="curve" smooth="yes"/>
      <point x="429" y="108"/>
      <point x="403" y="101"/>
      <point x="377" y="101" type="curve" smooth="yes"/>
      <point x="334" y="101"/>
      <point x="294" y="118"/>
      <point x="271" y="151" type="curve" smooth="yes"/>
      <point x="248" y="184"/>
      <point x="238" y="227"/>
      <point x="238" y="270" type="curve" smooth="yes"/>
      <point x="238" y="313"/>
      <point x="246" y="357"/>
      <point x="271" y="389" type="curve" smooth="yes"/>
      <point x="296" y="421"/>
      <point x="334" y="439"/>
      <point x="377" y="439" type="curve" smooth="yes"/>
      <point x="403" y="439"/>
      <point x="429" y="433"/>
      <point x="450" y="419" type="curve" smooth="yes"/>
      <point x="471" y="405"/>
      <point x="489" y="383"/>
      <point x="499" y="361" type="curve"/>
    </contour>
  </outline>
</glyph>
<glyph name="guillemetleft" format="2">
  <advance width="502"/>
  <unicode hex="00AB"/>
  <outline>
    <contour>
      <point x="251" y="101" type="line"/>
      <point x="80" y="316" type="line"/>
      <point x="251" y="530" type="line"/>
      <point x="282" y="506" type="line"/>
      <point x="130" y="316" type="line"/>
      <point x="282" y="125" type="line"/>
    </contour>
    <contour>
      <point x="401" y="101" type="line"/>
      <point x="230" y="316" type="line"/>
      <point x="401" y="530" type="line"/>
      <point x="432" y="506" type="line"/>
      <point x="280" y="316" type="line"/>
      <point x="432" y="125" type="line"/>
    </contour>
  </outline>
</glyph>
<glyph name="logicalnot" format="2">
  <advance width="600"/>
  <unicode hex="00AC"/>
  <outline>
    <contour>
      <point x="498" y="201" type="line"/>
      <point x="540" y="201" type="line"/>
      <point x="540" y="371" type="line"/>
      <point x="60" y="371" type="line"/>
      <point x="60" y="329" type="line"/>
      <point x="498" y="329" type="line"/>
    </contour>
  </outline>
</glyph>
<glyph name="degree" format="2">
  <advance width="450"/>
  <unicode hex="00B0"/>
  <outline>
    <contour>
      <point x="210" y="375" type="curve" smooth="yes"/>
      <point x="309" y="375"/>
      <point x="390" y="455"/>
      <point x="390" y="555" type="curve" smooth="yes"/>
      <point x="390" y="655"/>
      <point x="309" y="735"/>
      <point x="210" y="735" type="curve" smooth="yes"/>
      <point x="114" y="735"/>
      <point x="30" y="653"/>
      <point x="30" y="555" type="curve" smooth="yes"/>
      <point x="30" y="455"/>
      <point x="111" y="375"/>
    </contour>
    <contour>
      <point x="210" y="417" type="curve" smooth="yes"/>
      <point x="135" y="417"/>
      <point x="72" y="480"/>
      <point x="72" y="555" type="curve" smooth="yes"/>
      <point x="72" y="630"/>
      <point x="135" y="693"/>
      <point x="210" y="693" type="curve" smooth="yes"/>
      <point x="285" y="693"/>
      <point x="348" y="630"/>
      <point x="348" y="555" type="curve" smooth="yes"/>
      <point x="348" y="480"/>
      <point x="285" y="417"/>
    </contour>
  </outline>
</glyph>
<glyph name="plusminus" format="2">
  <advance width="600"/>
  <unicode hex="00B1"/>
  <outline>
    <contour>
      <point x="60" y="401" type="line"/>
      <point x="60" y="359" type="line"/>
      <point x="540" y="359" type="line"/>
      <point x="540" y="401" type="line"/>
    </contour>
    <contour>
      <point x="279" y="540" type="line"/>
      <point x="279" y="220" type="line"/>
      <point x="321" y="220" type="line"/>
      <point x="321" y="540" type="line"/>
    </contour>
    <contour>
      <point x="60" y="130" type="line"/>
      <point x="60" y="88" type="line"/>
      <point x="540" y="88" type="line"/>
      <point x="540" y="130" type="line"/>
    </contour>
  </outline>
</glyph>
<glyph name="paragraph" format="2">
  <advance width="581"/>
  <unicode hex="00B6"/>
  <outline>
    <contour>
      <point x="349" y="-141" type="line"/>
      <point x="391" y="-141" type="line"/>
      <point x="391" y="720" type="line"/>
      <point x="306" y="720" type="line" smooth="yes"/>
      <point x="292" y="720"/>
      <point x="278" y="719"/>
      <point x="260" y="716" type="curve" smooth="yes"/>
      <point x="156" y="699"/>
      <point x="90" y="612"/>
      <point x="90" y="504" type="curve" smooth="yes"/>
      <point x="90" y="396"/>
      <point x="156" y="309"/>
      <point x="260" y="292" type="curve" smooth="yes"/>
      <point x="278" y="289"/>
      <point x="292" y="288"/>
      <point x="306" y="288" type="curve" smooth="yes"/>
      <point x="349" y="288" type="line"/>
    </contour>
    <contour>
      <point x="449" y="-141" type="line"/>
      <point x="491" y="-141" type="line"/>
      <point x="491" y="720" type="line"/>
      <point x="449" y="720" type="line"/>
    </contour>
  </outline>
</glyph>
<glyph name="periodcentered" format="2">
  <advance width="560"/>
  <unicode hex="00B7"/>
  <outline>
    <contour>
      <point x="281" y="275" type="curve" smooth="yes"/>
      <point x="302" y="275"/>
      <point x="320" y="292"/>
      <point x="320" y="315" type="curve" smooth="yes"/>
      <point x="320" y="338"/>
      <point x="302" y="355"/>
      <point x="281" y="355" type="curve" smooth="yes"/>
      <point x="258" y="355"/>
      <point x="240" y="338"/>
      <point x="240" y="315" type="curve" smooth="yes"/>
      <point x="240" y="292"/>
      <point x="258" y="275"/>
    </contour>
  </outline>
</glyph>
<glyph name="onesuperior" format="2">
  <advance width="310"/>
  <unicode hex="00B9"/>
  <outline>
    <contour>
      <point x="147" y="720" type="line"/>
      <point x="60" y="668" type="line"/>
      <point x="60" y="621" type="line"/>
      <point x="147" y="673" type="line"/>
      <point x="147" y="260" type="line"/>
      <point x="190" y="260" type="line"/>
      <point x="190" y="720" type="line"/>
    </contour>
  </outline>
</glyph>
<glyph name="AE" format="2">
  <advance width="905"/>
  <unicode hex="00C6"/>
  <outline>
    <contour>
      <point x="110" y="197" type="line"/>
      <point x="110" y="157" type="line"/>
      <point x="455" y="157" type="line"/>
      <point x="455" y="197" type="line"/>
    </contour>
    <contour>
      <point x="282" y="720" type="line"/>
      <point x="20" y="0" type="line"/>
      <point x="65" y="0" type="line"/>
      <point x="311" y="678" type="line"/>
      <point x="435" y="678" type="line"/>
      <point x="435" y="720" type="line"/>
    </contour>
    <component base="E" xOffset="345"/>
  </outline>
</glyph>
<glyph name="Eth" format="2">
  <advance width="641"/>
  <unicode hex="00D0"/>
  <outline>
    <contour>
      <point x="10" y="381" type="line"/>
      <point x="310" y="381" type="line"/>
      <point x="310" y="339" type="line"/>
      <point x="10" y="339" type="line"/>
    </contour>
    <component base="D" xOffset="-11"/>
  </outline>
</glyph>
<glyph name="Thorn" format="2">
  <advance width="571"/>
  <unicode hex="00DE"/>
  <outline>
    <contour>
      <point x="112" y="534" type="line"/>
      <point x="112" y="576" type="line"/>
      <point x="325" y="576" type="line" smooth="yes"/>
      <point x="351" y="576"/>
      <point x="377" y="571"/>
      <point x="402" y="561" type="curve" smooth="yes"/>
      <point x="428" y="551"/>
      <point x="453" y="535"/>
      <point x="473" y="516" type="curve" smooth="yes"/>
      <point x="516" y="476"/>
      <point x="541" y="418"/>
      <point x="541" y="360" type="curve" smooth="yes"/>
      <point x="541" y="306"/>
      <point x="519" y="254"/>
      <point x="484" y="215" type="curve"/>
      <point x="445" y="171"/>
      <point x="384" y="144"/>
      <point x="325" y="144" type="curve"/>
      <point x="112" y="144" type="line"/>
      <point x="112" y="186" type="line"/>
      <point x="325" y="186" type="line" smooth="yes"/>
      <point x="374" y="186"/>
      <point x="423" y="210"/>
      <point x="455" y="248" type="curve"/>
      <point x="481" y="279"/>
      <point x="497" y="319"/>
      <point x="496" y="360" type="curve" smooth="yes"/>
      <point x="495" y="407"/>
      <point x="476" y="452"/>
      <point x="443" y="485" type="curve" smooth="yes"/>
      <point x="413" y="515"/>
      <point x="368" y="534"/>
      <point x="325" y="534" type="curve" smooth="yes"/>
    </contour>
    <contour>
      <point x="70" y="0" type="line"/>
      <point x="70" y="720" type="line"/>
      <point x="112" y="720" type="line"/>
      <point x="112" y="0" type="line"/>
    </contour>
  </outline>
</glyph>
<glyph name="germandbls" format="2">
  <advance width="575"/>
  <unicode hex="00DF"/>
  <outline>
    <contour>
      <point x="70" y="0" type="line"/>
      <point x="116" y="0" type="line"/>
      <point x="116" y="521" type="line" smooth="yes"/>
      <point x="116" y="550"/>
      <point x="118" y="580"/>
      <point x="126" y="606" type="curve" smooth="yes"/>
      <point x="144" y="665"/>
      <point x="199" y="693"/>
      <point x="261" y="693" type="curve" smooth="yes"/>
      <point x="350" y="693"/>
      <point x="404" y="640"/>
      <point x="404" y="550" type="curve" smooth="yes"/>
      <point x="404" y="457"/>
      <point x="333" y="415"/>
      <point x="260" y="406" type="curve"/>
      <point x="260" y="364" type="line"/>
      <point x="386" y="361"/>
      <point x="470" y="298"/>
      <point x="470" y="201" type="curve" smooth="yes"/>
      <point x="470" y="92"/>
      <point x="397" y="29"/>
      <point x="291" y="29" type="curve" smooth="yes"/>
      <point x="257" y="29"/>
      <point x="232" y="31"/>
      <point x="200" y="42" type="curve"/>
      <point x="200" y="0" type="line"/>
      <point x="229" y="-12"/>
      <point x="261" y="-14"/>
      <point x="291" y="-14" type="curve" smooth="yes"/>
      <point x="437" y="-14"/>
      <point x="515" y="72"/>
      <point x="515" y="201" type="curve" smooth="yes"/>
      <point x="515" y="327"/>
      <point x="405" y="389"/>
      <point x="345" y="392" type="curve"/>
      <point x="412" y="409"/>
      <point x="449" y="472"/>
      <point x="449" y="549" type="curve" smooth="yes"/>
      <point x="449" y="671"/>
      <point x="374" y="735"/>
      <point x="260" y="735" type="curve" smooth="yes"/>
      <point x="170" y="735"/>
      <point x="113" y="697"/>
      <point x="85" y="628" type="curve" smooth="yes"/>
      <point x="75" y="603"/>
      <point x="70" y="569"/>
      <point x="70" y="532" type="curve" smooth="yes"/>
    </contour>
  </outline>
</glyph>
<glyph name="ae" format="2">
  <advance width="964"/>
  <unicode hex="00E6"/>
  <outline>
    <contour>
      <point x="102" y="420" type="line"/>
      <point x="106" y="427"/>
      <point x="111" y="436"/>
      <point x="117" y="443" type="curve"/>
      <point x="155" y="490"/>
      <point x="211" y="513"/>
      <point x="271" y="512" type="curve" smooth="yes"/>
      <point x="321" y="512"/>
      <point x="372" y="498"/>
      <point x="405" y="468" type="curve"/>
      <point x="443" y="433"/>
      <point x="458" y="390"/>
      <point x="459" y="300" type="curve"/>
      <point x="348" y="300" type="line" smooth="yes"/>
      <point x="284" y="300"/>
      <point x="231" y="300"/>
      <point x="182" y="294" type="curve"/>
      <point x="122" y="286"/>
      <point x="74" y="258"/>
      <point x="54" y="209" type="curve"/>
      <point x="33" y="159"/>
      <point x="34" y="108"/>
      <point x="66" y="62" type="curve"/>
      <point x="93" y="15"/>
      <point x="147" y="-6"/>
      <point x="204" y="-13" type="curve"/>
      <point x="255" y="-16"/>
      <point x="309" y="-9"/>
      <point x="356" y="14" type="curve"/>
      <point x="403" y="37"/>
      <point x="441" y="74"/>
      <point x="466" y="123" type="curve"/>
      <point x="489" y="169"/>
      <point x="500" y="214"/>
      <point x="500" y="264" type="curve"/>
      <point x="501" y="338" type="line"/>
      <point x="501" y="397"/>
      <point x="482" y="457"/>
      <point x="434" y="501" type="curve"/>
      <point x="387" y="542"/>
      <point x="326" y="554"/>
      <point x="270" y="554" type="curve" smooth="yes"/>
      <point x="197" y="554"/>
      <point x="126" y="526"/>
      <point x="82" y="469" type="curve"/>
      <point x="75" y="460"/>
      <point x="68" y="449"/>
      <point x="62" y="439" type="curve"/>
    </contour>
    <contour>
      <point x="458" y="260" type="line"/>
      <point x="457" y="217"/>
      <point x="447" y="177"/>
      <point x="429" y="142" type="curve"/>
      <point x="411" y="107"/>
      <point x="375" y="68"/>
      <point x="338" y="49" type="curve"/>
      <point x="300" y="30"/>
      <point x="254" y="22"/>
      <point x="209" y="26" type="curve"/>
      <point x="173" y="29"/>
      <point x="126" y="50"/>
      <point x="103" y="85" type="curve"/>
      <point x="81" y="118"/>
      <point x="80" y="161"/>
      <point x="96" y="194" type="curve"/>
      <point x="112" y="227"/>
      <point x="142" y="249"/>
      <point x="188" y="255" type="curve"/>
      <point x="219" y="259"/>
      <point x="290" y="260"/>
      <point x="367" y="260" type="curve" smooth="yes"/>
    </contour>
    <component base="e" xScale="0.945" xOffset="420"/>
  </outline>
</glyph>
<glyph name="oslash" format="2">
  <advance width="574"/>
  <unicode hex="00F8"/>
  <outline>
    <contour>
      <point x="46" y="0" type="line"/>
      <point x="558" y="511" type="line"/>
      <point x="528" y="540" type="line"/>
      <point x="16" y="30" type="line"/>
    </contour>
    <component base="o"/>
  </outline>
</glyph>
<glyph name="thorn" format="2">
  <advance width="576"/>
  <unicode hex="00FE"/>
  <outline>
    <contour>
      <point x="70" y="720" type="line"/>
      <point x="70" y="391" type="line"/>
      <point x="112" y="391" type="line"/>
      <point x="112" y="720" type="line"/>
    </contour>
    <component base="p"/>
  </outline>
</glyph>
<glyph name="Hbar" format="2">
  <advance width="680"/>
  <unicode hex="0126"/>
  <outline>
    <contour>
      <point x="10" y="540" type="line"/>
      <point x="10" y="498" type="line"/>
      <point x="670" y="498" type="line"/>
      <point x="670" y="540" type="line"/>
    </contour>
    <component base="H"/>
  </outline>
</glyph>
<glyph name="Eng" format="2">
  <advance width="662"/>
  <unicode hex="014A"/>
  <outline>
    <contour>
      <point x="516" y="-179" type="curve" smooth="yes"/>
      <point x="557" y="-179"/>
      <point x="592" y="-166"/>
      <point x="592" y="-95" type="curve" smooth="yes"/>
      <point x="592" y="1" type="line"/>
      <point x="485" y="96" type="line"/>
      <point x="524" y="39" type="line" smooth="yes"/>
      <point x="542" y="12"/>
      <point x="550" y="-22"/>
      <point x="550" y="-55" type="curve" smooth="yes"/>
      <point x="550" y="-114"/>
      <point x="543" y="-136"/>
      <point x="504" y="-136" type="curve" smooth="yes"/>
      <point x="496" y="-136"/>
      <point x="486" y="-135"/>
      <point x="475" y="-133" type="curve"/>
      <point x="475" y="-174" type="line"/>
      <point x="489" y="-177"/>
      <point x="501" y="-179"/>
    </contour>
    <component base="N"/>
  </outline>
</glyph>
<glyph name="eng" format="2">
  <advance width="573"/>
  <unicode hex="014B"/>
  <outline>
    <contour>
      <point x="461" y="-178" type="curve" smooth="yes"/>
      <point x="491" y="-172"/>
      <point x="513" y="-152"/>
      <point x="513" y="-95" type="curve" smooth="yes"/>
      <point x="513" y="1" type="line"/>
      <point x="471" y="1" type="line"/>
      <point x="471" y="-55" type="line" smooth="yes"/>
      <point x="471" y="-126"/>
      <point x="461" y="-143"/>
      <point x="396" y="-133" type="curve"/>
      <point x="396" y="-174" type="line"/>
      <point x="416" y="-179"/>
      <point x="433" y="-181"/>
    </contour>
    <component base="n"/>
  </outline>
</glyph>
<glyph name="Tcedilla" format="2">
  <advance width="590"/>
  <unicode hex="0162"/>
  <outline>
    <contour>
      <point x="336" y="-114" type="curve"/>
      <point x="325" y="-94"/>
      <point x="307" y="-79"/>
      <point x="288" y="-71" type="curve"/>
      <point x="316" y="0" type="line"/>
      <point x="274" y="0" type="line"/>
      <point x="237" y="-96" type="line"/>
      <point x="269" y="-107"/>
      <point x="289" y="-112"/>
      <point x="299" y="-133" type="curve"/>
      <point x="307" y="-148"/>
      <point x="305" y="-164"/>
      <point x="296" y="-178" type="curve"/>
      <point x="288" y="-192"/>
      <point x="273" y="-199"/>
      <point x="254" y="-198" type="curve"/>
      <point x="242" y="-197"/>
      <point x="228" y="-193"/>
      <point x="214" y="-188" type="curve"/>
      <point x="200" y="-225" type="line"/>
      <point x="216" y="-232"/>
      <point x="233" y="-238"/>
      <point x="252" y="-239" type="curve"/>
      <point x="281" y="-242"/>
      <point x="315" y="-228"/>
      <point x="331" y="-202" type="curve"/>
      <point x="349" y="-177"/>
      <point x="351" y="-140"/>
    </contour>
    <component base="T"/>
  </outline>
</glyph>
<glyph name="tcedilla" format="2">
  <advance width="399"/>
  <unicode hex="0163"/>
  <outline>
    <contour>
      <point x="258" y="-115" type="curve"/>
      <point x="247" y="-95"/>
      <point x="229" y="-80"/>
      <point x="210" y="-72" type="curve"/>
      <point x="239" y="6" type="line"/>
      <point x="203" y="22" type="line"/>
      <point x="159" y="-97" type="line"/>
      <point x="191" y="-108"/>
      <point x="211" y="-113"/>
      <point x="221" y="-134" type="curve"/>
      <point x="229" y="-149"/>
      <point x="227" y="-165"/>
      <point x="218" y="-179" type="curve"/>
      <point x="210" y="-193"/>
      <point x="195" y="-200"/>
      <point x="176" y="-199" type="curve"/>
      <point x="164" y="-198"/>
      <point x="150" y="-194"/>
      <point x="136" y="-189" type="curve"/>
      <point x="122" y="-226" type="line"/>
      <point x="138" y="-233"/>
      <point x="155" y="-239"/>
      <point x="174" y="-240" type="curve"/>
      <point x="203" y="-243"/>
      <point x="237" y="-229"/>
      <point x="253" y="-203" type="curve"/>
      <point x="271" y="-178"/>
      <point x="273" y="-141"/>
    </contour>
    <component base="t"/>
  </outline>
</glyph>
<glyph name="Tbar" format="2">
  <advance width="590"/>
  <unicode hex="0166"/>
  <outline>
    <contour>
      <point x="85" y="339" type="line"/>
      <point x="505" y="339" type="line"/>
      <point x="505" y="381" type="line"/>
      <point x="85" y="381" type="line"/>
    </contour>
    <component base="T"/>
  </outline>
</glyph>
<glyph name="Uogonek" format="2">
  <advance width="690"/>
  <unicode hex="0172"/>
  <outline>
    <contour>
      <point x="546" y="69" type="curve"/>
      <point x="464" y="33" type="line"/>
      <point x="443" y="9"/>
      <point x="426" y="-10"/>
      <point x="407" y="-37" type="curve" smooth="yes"/>
      <point x="388" y="-64"/>
      <point x="372" y="-94"/>
      <point x="363" y="-123" type="curve"/>
      <point x="353" y="-159"/>
      <point x="358" y="-191"/>
      <point x="382" y="-215" type="curve"/>
      <point x="403" y="-239"/>
      <point x="442" y="-247"/>
      <point x="478" y="-232" type="curve"/>
      <point x="496" y="-224"/>
      <point x="511" y="-213"/>
      <point x="523" y="-201" type="curve"/>
      <point x="497" y="-172" type="line"/>
      <point x="473" y="-194"/>
      <point x="438" y="-212"/>
      <point x="411" y="-185" type="curve" smooth="yes"/>
      <point x="398" y="-172"/>
      <point x="397" y="-153"/>
      <point x="403" y="-134" type="curve"/>
      <point x="410" y="-108"/>
      <point x="427" y="-78"/>
      <point x="446" y="-49" type="curve" smooth="yes"/>
      <point x="465" y="-20"/>
      <point x="493" y="6"/>
    </contour>
    <component base="U"/>
  </outline>
</glyph>
<glyph name="florin" format="2">
  <advance width="784"/>
  <unicode hex="0192"/>
  <outline>
    <contour>
      <point x="182" y="-15" type="curve" smooth="yes"/>
      <point x="233" y="-15"/>
      <point x="345" y="4"/>
      <point x="374" y="181" type="curve" smooth="yes"/>
      <point x="435" y="554" type="line" smooth="yes"/>
      <point x="456" y="680"/>
      <point x="554" y="693"/>
      <point x="598" y="693" type="curve" smooth="yes"/>
      <point x="657" y="693"/>
      <point x="703" y="669"/>
      <point x="703" y="669" type="curve"/>
      <point x="724" y="705" type="line" smooth="yes"/>
      <point x="726" y="708"/>
      <point x="668" y="735"/>
      <point x="601" y="735" type="curve" smooth="yes"/>
      <point x="552" y="735"/>
      <point x="420" y="721"/>
      <point x="394" y="561" type="curve" smooth="yes"/>
      <point x="333" y="188" type="line" smooth="yes"/>
      <point x="310" y="48"/>
      <point x="231" y="27"/>
      <point x="183" y="27" type="curve" smooth="yes"/>
      <point x="130" y="27"/>
      <point x="80" y="52"/>
      <point x="78" y="52" type="curve"/>
      <point x="60" y="14" type="line"/>
      <point x="62" y="13"/>
      <point x="120" y="-15"/>
    </contour>
    <contour>
      <point x="160" y="339" type="line"/>
      <point x="653" y="339" type="line"/>
      <point x="653" y="381" type="line"/>
      <point x="160" y="381" type="line"/>
    </contour>
  </outline>
</glyph>
<glyph name="gravecomb" format="2">
  <unicode hex="0300"/>
  <outline>
    <contour>
      <point x="320" y="786" type="line"/>
      <point x="337" y="821" type="line"/>
      <point x="137" y="914" type="line"/>
      <point x="120" y="879" type="line"/>
    </contour>
  </outline>
</glyph>
<glyph name="acutecomb" format="2">
  <unicode hex="0301"/>
  <outline>
    <contour>
      <point x="137" y="786" type="line"/>
      <point x="120" y="821" type="line"/>
      <point x="320" y="914" type="line"/>
      <point x="337" y="879" type="line"/>
    </contour>
  </outline>
</glyph>
<glyph name="circumflexcomb" format="2">
  <unicode hex="0302"/>
  <outline>
    <contour>
      <point x="143" y="786" type="line"/>
      <point x="243" y="860" type="line"/>
      <point x="343" y="786" type="line"/>
      <point x="366" y="818" type="line"/>
      <point x="243" y="909" type="line"/>
      <point x="120" y="818" type="line"/>
    </contour>
  </outline>
</glyph>
<glyph name="tildecomb" format="2">
  <unicode hex="0303"/>
  <outline>
    <contour>
      <point x="392" y="895" type="curve"/>
      <point x="356" y="895" type="line"/>
      <point x="362" y="881"/>
      <point x="359" y="857"/>
      <point x="334" y="855" type="curve"/>
      <point x="313" y="853"/>
      <point x="294" y="862"/>
      <point x="258" y="877" type="curve"/>
      <point x="234" y="887"/>
      <point x="208" y="897"/>
      <point x="177" y="894" type="curve"/>
      <point x="160" y="893"/>
      <point x="139" y="884"/>
      <point x="128" y="865" type="curve"/>
      <point x="119" y="848"/>
      <point x="119" y="830"/>
      <point x="123" y="815" type="curve"/>
      <point x="159" y="815" type="line"/>
      <point x="153" y="829"/>
      <point x="156" y="853"/>
      <point x="181" y="855" type="curve"/>
      <point x="202" y="857"/>
      <point x="221" y="848"/>
      <point x="257" y="833" type="curve"/>
      <point x="281" y="823"/>
      <point x="307" y="813"/>
      <point x="338" y="816" type="curve"/>
      <point x="355" y="817"/>
      <point x="376" y="826"/>
      <point x="387" y="845" type="curve"/>
      <point x="396" y="862"/>
      <point x="396" y="880"/>
    </contour>
  </outline>
</glyph>
<glyph name="macroncomb" format="2">
  <unicode hex="0304"/>
  <outline>
    <contour>
      <point x="120" y="882" type="line"/>
      <point x="120" y="840" type="line"/>
      <point x="360" y="840" type="line"/>
      <point x="360" y="882" type="line"/>
    </contour>
  </outline>
</glyph>
<glyph name="brevecomb" format="2">
  <unicode hex="0306"/>
  <outline>
    <contour>
      <point x="309" y="894" type="line"/>
      <point x="309" y="853"/>
      <point x="276" y="819"/>
      <point x="234" y="819" type="curve"/>
      <point x="193" y="819"/>
      <point x="159" y="853"/>
      <point x="159" y="894" type="curve"/>
      <point x="120" y="894" type="line"/>
      <point x="120" y="831"/>
      <point x="171" y="780"/>
      <point x="234" y="780" type="curve"/>
      <point x="297" y="780"/>
      <point x="348" y="831"/>
      <point x="348" y="894" type="curve"/>
    </contour>
  </outline>
</glyph>
<glyph name="dieresiscomb" format="2">
  <unicode hex="0308"/>
  <outline>
    <contour>
      <point x="120" y="900" type="line"/>
      <point x="120" y="840" type="line"/>
      <point x="180" y="840" type="line"/>
      <point x="180" y="900" type="line"/>
    </contour>
    <contour>
      <point x="300" y="900" type="line"/>
      <point x="300" y="840" type="line"/>
      <point x="360" y="840" type="line"/>
      <point x="360" y="900" type="line"/>
    </contour>
  </outline>
</glyph>
<glyph name="ringcomb" format="2">
  <unicode hex="030A"/>
  <outline>
    <contour>
      <point x="219" y="681" type="curve" smooth="yes"/>
      <point x="274" y="681"/>
      <point x="318" y="725"/>
      <point x="318" y="780" type="curve" smooth="yes"/>
      <point x="318" y="834"/>
      <point x="274" y="879"/>
      <point x="219" y="879" type="curve" smooth="yes"/>
      <point x="165" y="879"/>
      <point x="120" y="834"/>
      <point x="120" y="780" type="curve" smooth="yes"/>
      <point x="120" y="725"/>
      <point x="165" y="681"/>
    </contour>
    <contour>
      <point x="219" y="720" type="curve" smooth="yes"/>
      <point x="186" y="720"/>
      <point x="159" y="747"/>
      <point x="159" y="780" type="curve" smooth="yes"/>
      <point x="159" y="813"/>
      <point x="186" y="840"/>
      <point x="219" y="840" type="curve" smooth="yes"/>
      <point x="253" y="840"/>
      <point x="279" y="813"/>
      <point x="279" y="780" type="curve" smooth="yes"/>
      <point x="279" y="747"/>
      <point x="253" y="720"/>
    </contour>
  </outline>
</glyph>
<glyph name="commaaccentcomb" format="2">
  <unicode hex="0326"/>
  <outline>
    <contour>
      <point x="180" y="-150" type="curve"/>
      <point x="180" y="-90" type="line"/>
      <point x="120" y="-90" type="line"/>
      <point x="120" y="-150" type="line"/>
      <point x="151" y="-150" type="line"/>
      <point x="154" y="-179"/>
      <point x="130" y="-189"/>
      <point x="120" y="-189" type="curve"/>
      <point x="120" y="-219" type="line"/>
      <point x="144" y="-219"/>
      <point x="180" y="-201"/>
    </contour>
  </outline>
</glyph>
<glyph name="ogonekcomb" format="2">
  <unicode hex="0328"/>
  <outline>
    <contour>
      <point x="263" y="0" type="curve"/>
      <point x="241" y="36" type="line"/>
      <point x="154" y="-40"/>
      <point x="83" y="-141"/>
      <point x="142" y="-210" type="curve" smooth="yes"/>
      <point x="179" y="-254"/>
      <point x="242" y="-254"/>
      <point x="285" y="-201" type="curve"/>
      <point x="260" y="-173" type="line"/>
      <point x="235" y="-202"/>
      <point x="199" y="-214"/>
      <point x="175" y="-185" type="curve" smooth="yes"/>
      <point x="136" y="-137"/>
      <point x="203" y="-50"/>
    </contour>
  </outline>
</glyph>
<glyph name="slashshortcomb" format="2">
  <unicode hex="0337"/>
  <outline>
    <contour>
      <point x="49" y="225" type="line"/>
      <point x="49" y="275" type="line"/>
      <point x="312" y="426" type="line"/>
      <point x="312" y="377" type="line"/>
    </contour>
  </outline>
</glyph>
<glyph name="slashlongcomb" format="2">
  <unicode hex="0338"/>
  <outline>
    <contour>
      <point x="30" y="0" type="line"/>
      <point x="722" y="691" type="line"/>
      <point x="692" y="720" type="line"/>
      <point x="0" y="30" type="line"/>
    </contour>
  </outline>
</glyph>
<glyph name="tonos" format="2">
  <advance width="600"/>
  <unicode hex="0384"/>
  <outline>
    <contour>
      <point x="288" y="640" type="line"/>
      <point x="245" y="640" type="line"/>
      <point x="312" y="860" type="line"/>
      <point x="355" y="860" type="line"/>
    </contour>
  </outline>
</glyph>
<glyph name="dieresistonos" format="2">
  <advance width="600"/>
  <unicode hex="0385"/>
  <outline>
    <contour>
      <point x="161" y="720" type="line"/>
      <point x="161" y="660" type="line"/>
      <point x="221" y="660" type="line"/>
      <point x="221" y="720" type="line"/>
    </contour>
    <contour>
      <point x="380" y="720" type="line"/>
      <point x="380" y="660" type="line"/>
      <point x="440" y="660" type="line"/>
      <point x="440" y="720" type="line"/>
    </contour>
    <component base="tonos" xOffset="17"/>
  </outline>
</glyph>
<glyph name="Delta" format="2">
  <advance width="609"/>
  <unicode hex="0394"/>
  <outline>
    <contour>
      <point x="55" y="0" type="line"/>
      <point x="554" y="0" type="line"/>
      <point x="554" y="42" type="line"/>
      <point x="55" y="42" type="line"/>
    </contour>
    <component base="Lambda" xOffset="15"/>
  </outline>
</glyph>
<glyph name="Xi" format="2">
  <advance width="670"/>
  <unicode hex="039E"/>
  <outline>
    <contour>
      <point x="70" y="678" type="line"/>
      <point x="600" y="678" type="line"/>
      <point x="600" y="720" type="line"/>
      <point x="70" y="720" type="line"/>
    </contour>
    <contour>
      <point x="70" y="0" type="line"/>
      <point x="600" y="0" type="line"/>
      <point x="600" y="42" type="line"/>
      <point x="70" y="42" type="line"/>
    </contour>
    <contour>
      <point x="120" y="339" type="line"/>
      <point x="550" y="339" type="line"/>
      <point x="550" y="381" type="line"/>
      <point x="120" y="381" type="line"/>
    </contour>
  </outline>
</glyph>
<glyph name="Psi" format="2">
  <advance width="690"/>
  <unicode hex="03A8"/>
  <outline>
    <contour>
      <point x="620" y="720" type="line"/>
      <point x="578" y="720" type="line"/>
      <point x="578" y="507" type="line" smooth="yes"/>
      <point x="578" y="464"/>
      <point x="576" y="428"/>
      <point x="568" y="395" type="curve" smooth="yes"/>
      <point x="545" y="299"/>
      <point x="472" y="227"/>
      <point x="366" y="227" type="curve"/>
      <point x="324" y="227" type="line"/>
      <point x="218" y="228"/>
      <point x="145" y="299"/>
      <point x="122" y="395" type="curve" smooth="yes"/>
      <point x="114" y="428"/>
      <point x="112" y="464"/>
      <point x="112" y="507" type="curve" smooth="yes"/>
      <point x="112" y="720" type="line"/>
      <point x="70" y="720" type="line"/>
      <point x="70" y="455" type="line" smooth="yes"/>
      <point x="70" y="415"/>
      <point x="76" y="380"/>
      <point x="89" y="349" type="curve" smooth="yes"/>
      <point x="129" y="252"/>
      <point x="207" y="187"/>
      <point x="334" y="187" type="curve"/>
      <point x="356" y="187" type="line"/>
      <point x="483" y="187"/>
      <point x="561" y="252"/>
      <point x="601" y="349" type="curve" smooth="yes"/>
      <point x="614" y="380"/>
      <point x="620" y="415"/>
      <point x="620" y="455" type="curve" smooth="yes"/>
    </contour>
    <contour>
      <point x="324" y="720" type="line"/>
      <point x="324" y="0" type="line"/>
      <point x="366" y="0" type="line"/>
      <point x="366" y="720" type="line"/>
    </contour>
  </outline>
</glyph>
<glyph name="Omega" format="2">
  <advance width="706"/>
  <unicode hex="03A9"/>
  <outline>
    <contour>
      <point x="30" y="0" type="line"/>
      <point x="256" y="0" type="line"/>
      <point x="256" y="42" type="line"/>
      <point x="176" y="82"/>
      <point x="73" y="203"/>
      <point x="75" y="360" type="curve" smooth="yes"/>
      <point x="77" y="545"/>
      <point x="178" y="692"/>
      <point x="353" y="692" type="curve" smooth="yes"/>
      <point x="528" y="692"/>
      <point x="633" y="545"/>
      <point x="631" y="360" type="curve" smooth="yes"/>
      <point x="629" y="203"/>
      <point x="530" y="83"/>
      <point x="450" y="42" type="curve"/>
      <point x="449" y="0" type="line"/>
      <point x="675" y="0" type="line"/>
      <point x="675" y="42" type="line"/>
      <point x="519" y="42" type="line"/>
      <point x="612" y="112"/>
      <point x="676" y="227"/>
      <point x="676" y="370" type="curve" smooth="yes"/>
      <point x="676" y="580"/>
      <point x="558" y="734"/>
      <point x="353" y="734" type="curve" smooth="yes"/>
      <point x="148" y="734"/>
      <point x="30" y="580"/>
      <point x="30" y="370" type="curve" smooth="yes"/>
      <point x="30" y="227"/>
      <point x="94" y="112"/>
      <point x="187" y="42" type="curve"/>
      <point x="30" y="42" type="line"/>
    </contour>
  </outline>
</glyph>
<glyph name="alpha" format="2">
  <advance width="596"/>
  <unicode hex="03B1"/>
  <outline>
    <contour>
      <point x="272" y="-15" type="curve" smooth="yes"/>
      <point x="387" y="-15"/>
      <point x="460" y="60"/>
      <point x="487" y="169" type="curve"/>
      <point x="487" y="0" type="line"/>
      <point x="526" y="0" type="line"/>
      <point x="526" y="540" type="line"/>
      <point x="487" y="540" type="line"/>
      <point x="487" y="373" type="line"/>
      <point x="459" y="483"/>
      <point x="383" y="555"/>
      <point x="270" y="555" type="curve" smooth="yes"/>
      <point x="121" y="555"/>
      <point x="40" y="430"/>
      <point x="40" y="270" type="curve" smooth="yes"/>
      <point x="40" y="109"/>
      <point x="123" y="-15"/>
    </contour>
    <contour>
      <point x="275" y="27" type="curve" smooth="yes"/>
      <point x="150" y="27"/>
      <point x="85" y="132"/>
      <point x="85" y="271" type="curve" smooth="yes"/>
      <point x="85" y="409"/>
      <point x="146" y="513"/>
      <point x="275" y="513" type="curve" smooth="yes"/>
      <point x="401" y="513"/>
      <point x="467" y="412"/>
      <point x="467" y="271" type="curve" smooth="yes"/>
      <point x="467" y="132"/>
      <point x="402" y="27"/>
    </contour>
  </outline>
</glyph>
<glyph name="delta" format="2">
  <advance width="574"/>
  <unicode hex="03B4"/>
  <outline>
    <contour>
      <point x="115" y="621" type="curve"/>
      <point x="118" y="520"/>
      <point x="276" y="501"/>
      <point x="358" y="473" type="curve"/>
      <point x="374" y="506" type="line"/>
      <point x="236" y="549"/>
      <point x="157" y="574"/>
      <point x="157" y="627" type="curve" smooth="yes"/>
      <point x="157" y="662"/>
      <point x="178" y="684"/>
      <point x="216" y="692" type="curve" smooth="yes"/>
      <point x="230" y="695"/>
      <point x="247" y="697"/>
      <point x="265" y="697" type="curve" smooth="yes"/>
      <point x="456" y="697" type="line"/>
      <point x="456" y="735" type="line"/>
      <point x="256" y="735" type="line" smooth="yes"/>
      <point x="239" y="735"/>
      <point x="219" y="734"/>
      <point x="199" y="729" type="curve" smooth="yes"/>
      <point x="145" y="716"/>
      <point x="115" y="682"/>
    </contour>
    <contour>
      <point x="287" y="-14" type="curve" smooth="yes"/>
      <point x="446" y="-14"/>
      <point x="534" y="94"/>
      <point x="534" y="253" type="curve" smooth="yes"/>
      <point x="534" y="410"/>
      <point x="448" y="519"/>
      <point x="287" y="519" type="curve"/>
      <point x="287" y="512" type="line"/>
      <point x="132" y="520"/>
      <point x="40" y="410"/>
      <point x="40" y="250" type="curve" smooth="yes"/>
      <point x="40" y="93"/>
      <point x="127" y="-14"/>
    </contour>
    <contour>
      <point x="489" y="253" type="curve" smooth="yes"/>
      <point x="489" y="118"/>
      <point x="423" y="28"/>
      <point x="287" y="28" type="curve" smooth="yes"/>
      <point x="154" y="28"/>
      <point x="85" y="116"/>
      <point x="85" y="253" type="curve" smooth="yes"/>
      <point x="85" y="386"/>
      <point x="150" y="477"/>
      <point x="287" y="477" type="curve" smooth="yes"/>
      <point x="422" y="477"/>
      <point x="489" y="391"/>
    </contour>
  </outline>
</glyph>
<glyph name="zeta" format="2">
  <advance width="490"/>
  <unicode hex="03B6"/>
  <outline>
    <contour>
      <point x="441" y="710" type="line"/>
      <point x="340" y="606"/>
      <point x="271" y="534"/>
      <point x="188" y="447" type="curve" smooth="yes"/>
      <point x="56" y="308"/>
      <point x="40" y="230"/>
      <point x="40" y="177" type="curve" smooth="yes"/>
      <point x="40" y="36"/>
      <point x="119" y="0"/>
      <point x="271" y="0" type="curve" smooth="yes"/>
      <point x="397" y="0"/>
      <point x="440" y="-17"/>
      <point x="429" y="-120" type="curve"/>
      <point x="470" y="-120" type="line"/>
      <point x="485" y="-14"/>
      <point x="431" y="27"/>
      <point x="371" y="35" type="curve" smooth="yes"/>
      <point x="333" y="40"/>
      <point x="310" y="40"/>
      <point x="271" y="40" type="curve" smooth="yes"/>
      <point x="151" y="40"/>
      <point x="84" y="77"/>
      <point x="84" y="171" type="curve" smooth="yes"/>
      <point x="84" y="248"/>
      <point x="119" y="315"/>
      <point x="233" y="433" type="curve" smooth="yes"/>
      <point x="308" y="511"/>
      <point x="399" y="604"/>
      <point x="470" y="678" type="curve"/>
    </contour>
    <contour>
      <point x="70" y="720" type="line"/>
      <point x="70" y="678" type="line"/>
      <point x="448" y="678" type="line"/>
      <point x="470" y="678" type="line"/>
      <point x="470" y="720" type="line"/>
    </contour>
  </outline>
</glyph>
<glyph name="theta" format="2">
  <advance width="618"/>
  <unicode hex="03B8"/>
  <outline>
    <contour>
      <point x="309" y="-15" type="curve" smooth="yes"/>
      <point x="499" y="-15"/>
      <point x="588" y="160"/>
      <point x="588" y="360" type="curve" smooth="yes"/>
      <point x="588" y="550"/>
      <point x="499" y="734"/>
      <point x="309" y="734" type="curve" smooth="yes"/>
      <point x="119" y="734"/>
      <point x="30" y="550"/>
      <point x="30" y="360" type="curve" smooth="yes"/>
      <point x="30" y="170"/>
      <point x="119" y="-15"/>
    </contour>
    <contour>
      <point x="309" y="27" type="curve" smooth="yes"/>
      <point x="154" y="27"/>
      <point x="73" y="185"/>
      <point x="75" y="360" type="curve" smooth="yes"/>
      <point x="77" y="535"/>
      <point x="154" y="692"/>
      <point x="309" y="692" type="curve" smooth="yes"/>
      <point x="464" y="692"/>
      <point x="545" y="535"/>
      <point x="543" y="360" type="curve" smooth="yes"/>
      <point x="541" y="185"/>
      <point x="464" y="27"/>
    </contour>
    <contour>
      <point x="59" y="381" type="line"/>
      <point x="59" y="339" type="line"/>
      <point x="559" y="339" type="line"/>
      <point x="559" y="381" type="line"/>
    </contour>
  </outline>
</glyph>
<glyph name="iota" format="2">
  <advance width="302"/>
  <unicode hex="03B9"/>
  <outline>
    <contour>
      <point x="292" y="40" type="line"/>
      <point x="265" y="34"/>
      <point x="232" y="33"/>
      <point x="202" y="36" type="curve"/>
      <point x="171" y="39"/>
      <point x="144" y="55"/>
      <point x="133" y="82" type="curve"/>
      <point x="119" y="107"/>
      <point x="122" y="132"/>
      <point x="122" y="179" type="curve" smooth="yes"/>
      <point x="122" y="540" type="line"/>
      <point x="80" y="540" type="line"/>
      <point x="80" y="179" type="line" smooth="yes"/>
      <point x="80" y="132"/>
      <point x="79" y="98"/>
      <point x="95" y="63" type="curve"/>
      <point x="114" y="22"/>
      <point x="150" y="1"/>
      <point x="197" y="-5" type="curve"/>
      <point x="229" y="-9"/>
      <point x="260" y="-7"/>
      <point x="292" y="0" type="curve"/>
    </contour>
  </outline>
</glyph>
<glyph name="lambda" format="2">
  <advance width="478"/>
  <unicode hex="03BB"/>
  <outline>
    <contour>
      <point x="20" y="0" type="line"/>
      <point x="64" y="0" type="line"/>
      <point x="239" y="479" type="line"/>
      <point x="413" y="0" type="line"/>
      <point x="458" y="0" type="line"/>
      <point x="262" y="540" type="line" smooth="yes"/>
      <point x="230" y="629"/>
      <point x="206" y="716"/>
      <point x="135" y="731" type="curve" smooth="yes"/>
      <point x="122" y="734"/>
      <point x="104" y="735"/>
      <point x="90" y="735" type="curve" smooth="yes"/>
      <point x="60" y="735" type="line"/>
      <point x="60" y="697" type="line"/>
      <point x="85" y="697" type="line" smooth="yes"/>
      <point x="169" y="697"/>
      <point x="177" y="643"/>
      <point x="216" y="540" type="curve"/>
    </contour>
  </outline>
</glyph>
<glyph name="mu" format="2">
  <advance width="583"/>
  <unicode hex="03BC"/>
  <outline>
    <contour>
      <point x="513" y="0" type="line"/>
      <point x="513" y="540" type="line"/>
      <point x="471" y="540" type="line"/>
      <point x="471" y="302" type="line"/>
      <point x="474" y="302" type="line"/>
      <point x="474" y="0" type="line"/>
    </contour>
    <component base="n-curve" xScale="-1" yScale="-1" xOffset="509" yOffset="540"/>
    <component base="line-vertical-ac" yScale="-1" xOffset="70" yOffset="300"/>
  </outline>
</glyph>
<glyph name="xi" format="2">
  <advance width="561"/>
  <unicode hex="03BE"/>
  <outline>
    <contour>
      <point x="40" y="210" type="curve" smooth="yes"/>
      <point x="40" y="96"/>
      <point x="115" y="0"/>
      <point x="324" y="0" type="curve" smooth="yes"/>
      <point x="460" y="0"/>
      <point x="503" y="-17"/>
      <point x="492" y="-120" type="curve"/>
      <point x="533" y="-120" type="line"/>
      <point x="548" y="-14"/>
      <point x="494" y="27"/>
      <point x="434" y="35" type="curve" smooth="yes"/>
      <point x="396" y="40"/>
      <point x="363" y="40"/>
      <point x="324" y="40" type="curve" smooth="yes"/>
      <point x="173" y="40"/>
      <point x="85" y="96"/>
      <point x="85" y="211" type="curve" smooth="yes"/>
      <point x="85" y="326"/>
      <point x="167" y="358"/>
      <point x="277" y="361" type="curve" smooth="yes"/>
      <point x="310" y="362"/>
      <point x="337" y="364"/>
      <point x="360" y="364" type="curve"/>
      <point x="360" y="406" type="line"/>
      <point x="336" y="406"/>
      <point x="310" y="406"/>
      <point x="277" y="407" type="curve" smooth="yes"/>
      <point x="172" y="410"/>
      <point x="108" y="462"/>
      <point x="108" y="559" type="curve" smooth="yes"/>
      <point x="108" y="643"/>
      <point x="181" y="693"/>
      <point x="277" y="693" type="curve" smooth="yes"/>
      <point x="384" y="693"/>
      <point x="438" y="643"/>
      <point x="482" y="557" type="curve"/>
      <point x="526" y="574" type="line"/>
      <point x="482" y="670"/>
      <point x="404" y="735"/>
      <point x="277" y="735" type="curve" smooth="yes"/>
      <point x="163" y="735"/>
      <point x="63" y="673"/>
      <point x="63" y="559" type="curve" smooth="yes"/>
      <point x="63" y="470"/>
      <point x="104" y="415"/>
      <point x="169" y="385" type="curve"/>
      <point x="90" y="365"/>
      <point x="40" y="306"/>
    </contour>
  </outline>
</glyph>
<glyph name="pi" format="2">
  <advance width="640"/>
  <unicode hex="03C0"/>
  <outline>
    <contour>
      <point x="140" y="0" type="line"/>
      <point x="182" y="0" type="line"/>
      <point x="182" y="540" type="line"/>
      <point x="140" y="540" type="line"/>
    </contour>
    <contour>
      <point x="458" y="540" type="line"/>
      <point x="458" y="0" type="line"/>
      <point x="500" y="0" type="line"/>
      <point x="500" y="540" type="line"/>
    </contour>
    <contour>
      <point x="20" y="540" type="line"/>
      <point x="20" y="498" type="line"/>
      <point x="620" y="498" type="line"/>
      <point x="620" y="540" type="line"/>
    </contour>
  </outline>
</glyph>
<glyph name="rho" format="2">
  <advance width="572"/>
  <unicode hex="03C1"/>
  <outline>
    <contour>
      <point x="70" y="241" type="line"/>
      <point x="70" y="-240" type="line"/>
      <point x="112" y="-240" type="line"/>
      <point x="112" y="241" type="line"/>
    </contour>
    <contour>
      <point x="305" y="555" type="curve" smooth="yes"/>
      <point x="161" y="555"/>
      <point x="85" y="464"/>
      <point x="72" y="317" type="curve" smooth="yes"/>
      <point x="71" y="302"/>
      <point x="70" y="277"/>
      <point x="70" y="241" type="curve"/>
      <point x="102" y="117" type="line"/>
      <point x="127" y="41"/>
      <point x="202" y="-15"/>
      <point x="297" y="-15" type="curve" smooth="yes"/>
      <point x="450" y="-15"/>
      <point x="532" y="109"/>
      <point x="532" y="271" type="curve" smooth="yes"/>
      <point x="532" y="430"/>
      <point x="450" y="555"/>
    </contour>
    <contour>
      <point x="297" y="513" type="curve"/>
      <point x="426" y="513"/>
      <point x="487" y="409"/>
      <point x="487" y="271" type="curve" smooth="yes"/>
      <point x="487" y="132"/>
      <point x="422" y="27"/>
      <point x="297" y="27" type="curve" smooth="yes"/>
      <point x="170" y="27"/>
      <point x="112" y="132"/>
      <point x="112" y="271" type="curve" smooth="yes"/>
      <point x="112" y="412"/>
      <point x="171" y="513"/>
    </contour>
  </outline>
</glyph>
<glyph name="sigmafinal" format="2">
  <advance width="539"/>
  <unicode hex="03C2"/>
  <outline>
    <contour>
      <point x="40" y="272" type="curve" smooth="yes"/>
      <point x="40" y="185"/>
      <point x="56" y="0"/>
      <point x="271" y="0" type="curve" smooth="yes"/>
      <point x="397" y="0"/>
      <point x="440" y="-17"/>
      <point x="429" y="-120" type="curve"/>
      <point x="470" y="-120" type="line"/>
      <point x="485" y="-14"/>
      <point x="431" y="27"/>
      <point x="371" y="35" type="curve" smooth="yes"/>
      <point x="333" y="40"/>
      <point x="310" y="40"/>
      <point x="271" y="40" type="curve" smooth="yes"/>
      <point x="104" y="40"/>
      <point x="83" y="197"/>
      <point x="85" y="270" type="curve" smooth="yes"/>
      <point x="89" y="414"/>
      <point x="151" y="513"/>
      <point x="287" y="513" type="curve" smooth="yes"/>
      <point x="368" y="513"/>
      <point x="434" y="473"/>
      <point x="464" y="404" type="curve"/>
      <point x="504" y="421" type="line"/>
      <point x="471" y="504"/>
      <point x="387" y="555"/>
      <point x="287" y="555" type="curve" smooth="yes"/>
      <point x="128" y="555"/>
      <point x="40" y="444"/>
    </contour>
  </outline>
</glyph>
<glyph name="sigma" format="2">
  <advance width="584"/>
  <unicode hex="03C3"/>
  <outline>
    <contour>
      <point x="287" y="-15" type="curve" smooth="yes"/>
      <point x="446" y="-15"/>
      <point x="534" y="100"/>
      <point x="534" y="271" type="curve" smooth="yes"/>
      <point x="534" y="378"/>
      <point x="499" y="465"/>
      <point x="431" y="513" type="curve"/>
      <point x="564" y="513" type="line"/>
      <point x="564" y="555" type="line"/>
      <point x="287" y="555" type="line" smooth="yes"/>
      <point x="130" y="555"/>
      <point x="40" y="441"/>
      <point x="40" y="271" type="curve" smooth="yes"/>
      <point x="40" y="103"/>
      <point x="127" y="-15"/>
    </contour>
    <contour>
      <point x="287" y="27" type="curve" smooth="yes"/>
      <point x="154" y="27"/>
      <point x="85" y="124"/>
      <point x="85" y="271" type="curve" smooth="yes"/>
      <point x="85" y="413"/>
      <point x="150" y="513"/>
      <point x="287" y="513" type="curve" smooth="yes"/>
      <point x="422" y="513"/>
      <point x="489" y="418"/>
      <point x="489" y="271" type="curve" smooth="yes"/>
      <point x="489" y="126"/>
      <point x="423" y="27"/>
    </contour>
  </outline>
</glyph>
<glyph name="tau" format="2">
  <advance width="535"/>
  <unicode hex="03C4"/>
  <outline>
    <contour>
      <point x="25" y="540" type="line"/>
      <point x="25" y="498" type="line"/>
      <point x="465" y="498" type="line"/>
      <point x="465" y="540" type="line"/>
    </contour>
    <contour>
      <point x="436" y="40" type="line"/>
      <point x="409" y="34"/>
      <point x="376" y="33"/>
      <point x="346" y="36" type="curve"/>
      <point x="315" y="39"/>
      <point x="288" y="55"/>
      <point x="277" y="82" type="curve"/>
      <point x="263" y="107"/>
      <point x="266" y="132"/>
      <point x="266" y="179" type="curve" smooth="yes"/>
      <point x="266" y="520" type="line"/>
      <point x="224" y="520" type="line"/>
      <point x="224" y="179" type="line" smooth="yes"/>
      <point x="224" y="132"/>
      <point x="223" y="98"/>
      <point x="239" y="63" type="curve"/>
      <point x="258" y="22"/>
      <point x="294" y="1"/>
      <point x="341" y="-5" type="curve"/>
      <point x="373" y="-9"/>
      <point x="404" y="-7"/>
      <point x="436" y="0" type="curve"/>
    </contour>
  </outline>
</glyph>
<glyph name="upsilon" format="2">
  <advance width="558"/>
  <unicode hex="03C5"/>
  <outline>
    <contour>
      <point x="60" y="246" type="line" smooth="yes"/>
      <point x="60" y="86"/>
      <point x="142" y="-12"/>
      <point x="279" y="-12" type="curve" smooth="yes"/>
      <point x="416" y="-12"/>
      <point x="498" y="86"/>
      <point x="498" y="246" type="curve" smooth="yes"/>
      <point x="498" y="540" type="line"/>
      <point x="456" y="540" type="line"/>
      <point x="456" y="254" type="line" smooth="yes"/>
      <point x="456" y="100"/>
      <point x="391" y="29"/>
      <point x="279" y="29" type="curve" smooth="yes"/>
      <point x="167" y="29"/>
      <point x="102" y="100"/>
      <point x="102" y="254" type="curve" smooth="yes"/>
      <point x="102" y="540" type="line"/>
      <point x="60" y="540" type="line"/>
    </contour>
  </outline>
</glyph>
<glyph name="psi" format="2">
  <advance width="630"/>
  <unicode hex="03C8"/>
  <outline>
    <contour>
      <point x="590" y="540" type="line"/>
      <point x="548" y="540" type="line"/>
      <point x="548" y="305" type="line" smooth="yes"/>
      <point x="548" y="262"/>
      <point x="546" y="226"/>
      <point x="538" y="193" type="curve" smooth="yes"/>
      <point x="515" y="97"/>
      <point x="432" y="26"/>
      <point x="336" y="25" type="curve"/>
      <point x="294" y="25" type="line"/>
      <point x="198" y="26"/>
      <point x="115" y="97"/>
      <point x="92" y="193" type="curve" smooth="yes"/>
      <point x="84" y="226"/>
      <point x="82" y="262"/>
      <point x="82" y="305" type="curve" smooth="yes"/>
      <point x="82" y="540" type="line"/>
      <point x="40" y="540" type="line"/>
      <point x="40" y="253" type="line" smooth="yes"/>
      <point x="40" y="213"/>
      <point x="46" y="178"/>
      <point x="59" y="147" type="curve" smooth="yes"/>
      <point x="100" y="50"/>
      <point x="183" y="-15"/>
      <point x="304" y="-15" type="curve"/>
      <point x="326" y="-15" type="line"/>
      <point x="447" y="-15"/>
      <point x="530" y="50"/>
      <point x="571" y="147" type="curve" smooth="yes"/>
      <point x="584" y="178"/>
      <point x="590" y="213"/>
      <point x="590" y="253" type="curve" smooth="yes"/>
    </contour>
    <contour>
      <point x="294" y="540" type="line"/>
      <point x="294" y="-225" type="line"/>
      <point x="336" y="-225" type="line"/>
      <point x="336" y="540" type="line"/>
    </contour>
  </outline>
</glyph>
<glyph name="Dje-cy" format="2">
  <advance width="626"/>
  <unicode hex="0402"/>
  <outline>
    <contour>
      <point x="0" y="720" type="line"/>
      <point x="0" y="678" type="line"/>
      <point x="270" y="678" type="line"/>
      <point x="270" y="720" type="line"/>
    </contour>
    <contour>
      <point x="343" y="42" type="curve"/>
      <point x="343" y="0" type="line"/>
      <point x="507" y="0"/>
      <point x="586" y="114"/>
      <point x="586" y="291" type="curve" smooth="yes"/>
      <point x="586" y="466"/>
      <point x="493" y="555"/>
      <point x="327" y="555" type="curve" smooth="yes"/>
      <point x="206" y="555"/>
      <point x="109" y="502"/>
      <point x="85" y="384" type="curve" smooth="yes"/>
      <point x="75" y="334"/>
      <point x="73" y="284"/>
      <point x="73" y="238" type="curve"/>
      <point x="112" y="238" type="line"/>
      <point x="112" y="286"/>
      <point x="112" y="333"/>
      <point x="125" y="380" type="curve" smooth="yes"/>
      <point x="150" y="474"/>
      <point x="227" y="513"/>
      <point x="329" y="513" type="curve" smooth="yes"/>
      <point x="472" y="513"/>
      <point x="544" y="445"/>
      <point x="544" y="291" type="curve" smooth="yes"/>
      <point x="544" y="131"/>
      <point x="469" y="42"/>
    </contour>
    <component base="line-vertical-de" yScale="-1" xOffset="70" yOffset="720"/>
  </outline>
</glyph>
<glyph name="Nje-cy" format="2">
  <advance width="1019"/>
  <unicode hex="040A"/>
  <outline>
    <contour>
      <point x="70" y="0" type="line"/>
      <point x="112" y="0" type="line"/>
      <point x="112" y="390" type="line"/>
      <point x="536" y="390" type="line"/>
      <point x="536" y="432" type="line"/>
      <point x="112" y="432" type="line"/>
      <point x="112" y="720" type="line"/>
      <point x="70" y="720" type="line"/>
    </contour>
    <component base="Softsign-cy" xOffset="438"/>
  </outline>
</glyph>
<glyph name="Ge-cy" format="2">
  <advance width="520"/>
  <unicode hex="0413"/>
  <outline>
    <contour>
      <point x="70" y="0" type="line"/>
      <point x="112" y="0" type="line"/>
      <point x="112" y="678" type="line"/>
      <point x="510" y="678" type="line"/>
      <point x="510" y="720" type="line"/>
      <point x="70" y="720" type="line"/>
    </contour>
  </outline>
</glyph>
<glyph name="De-cy" format="2">
  <advance width="728"/>
  <unicode hex="0414"/>
  <outline>
    <contour>
      <point x="40" y="-120" type="line"/>
      <point x="82" y="-120" type="line"/>
      <point x="82" y="0" type="line"/>
      <point x="646" y="0" type="line"/>
      <point x="646" y="-120" type="line"/>
      <point x="688" y="-120" type="line"/>
      <point x="688" y="42" type="line"/>
      <point x="638" y="42" type="line"/>
      <point x="638" y="720" type="line"/>
      <point x="211" y="720" type="line"/>
      <point x="203" y="556"/>
      <point x="200" y="443"/>
      <point x="184" y="304" type="curve" smooth="yes"/>
      <point x="170" y="184"/>
      <point x="164" y="42"/>
      <point x="40" y="42" type="curve"/>
    </contour>
    <contour>
      <point x="149" y="42" type="line"/>
      <point x="198" y="78"/>
      <point x="214" y="162"/>
      <point x="226" y="282" type="curve" smooth="yes"/>
      <point x="240" y="418"/>
      <point x="246" y="545"/>
      <point x="252" y="678" type="curve"/>
      <point x="596" y="678" type="line"/>
      <point x="596" y="42" type="line"/>
    </contour>
  </outline>
</glyph>
<glyph name="Zhe-cy" format="2">
  <advance width="874"/>
  <unicode hex="0416"/>
  <outline>
    <contour>
      <point x="10" y="0" type="line"/>
      <point x="68" y="0" type="line"/>
      <point x="416" y="376" type="line"/>
      <point x="416" y="0" type="line"/>
      <point x="458" y="0" type="line"/>
      <point x="458" y="376" type="line"/>
      <point x="806" y="0" type="line"/>
      <point x="864" y="0" type="line"/>
      <point x="513" y="376" type="line"/>
      <point x="832" y="720" type="line"/>
      <point x="774" y="720" type="line"/>
      <point x="458" y="376" type="line"/>
      <point x="458" y="720" type="line"/>
      <point x="416" y="720" type="line"/>
      <point x="416" y="376" type="line"/>
      <point x="100" y="720" type="line"/>
      <point x="42" y="720" type="line"/>
      <point x="361" y="376" type="line"/>
    </contour>
  </outline>
</glyph>
<glyph name="Ze-cy" format="2">
  <advance width="561"/>
  <unicode hex="0417"/>
  <outline>
    <contour>
      <point x="45" y="574" type="curve"/>
      <point x="89" y="557" type="line"/>
      <point x="133" y="643"/>
      <point x="187" y="693"/>
      <point x="294" y="693" type="curve" smooth="yes"/>
      <point x="390" y="693"/>
      <point x="463" y="633"/>
      <point x="463" y="549" type="curve" smooth="yes"/>
      <point x="463" y="452"/>
      <point x="399" y="394"/>
      <point x="294" y="391" type="curve" smooth="yes"/>
      <point x="261" y="390"/>
      <point x="235" y="390"/>
      <point x="211" y="390" type="curve"/>
      <point x="211" y="348" type="line"/>
      <point x="234" y="348"/>
      <point x="261" y="346"/>
      <point x="294" y="345" type="curve" smooth="yes"/>
      <point x="404" y="341"/>
      <point x="486" y="311"/>
      <point x="486" y="196" type="curve" smooth="yes"/>
      <point x="486" y="90"/>
      <point x="403" y="27"/>
      <point x="294" y="27" type="curve" smooth="yes"/>
      <point x="169" y="27"/>
      <point x="100" y="77"/>
      <point x="73" y="158" type="curve"/>
      <point x="30" y="140" type="line"/>
      <point x="63" y="49"/>
      <point x="139" y="-15"/>
      <point x="294" y="-15" type="curve" smooth="yes"/>
      <point x="436" y="-15"/>
      <point x="531" y="69"/>
      <point x="531" y="195" type="curve" smooth="yes"/>
      <point x="531" y="291"/>
      <point x="481" y="349"/>
      <point x="402" y="369" type="curve"/>
      <point x="470" y="399"/>
      <point x="508" y="460"/>
      <point x="508" y="549" type="curve" smooth="yes"/>
      <point x="508" y="663"/>
      <point x="408" y="735"/>
      <point x="294" y="735" type="curve" smooth="yes"/>
      <point x="167" y="735"/>
      <point x="89" y="670"/>
    </contour>
  </outline>
</glyph>
<glyph name="El-cy" format="2">
  <advance width="684"/>
  <unicode hex="041B"/>
  <outline>
    <contour>
      <point x="614" y="720" type="line"/>
      <point x="178" y="720" type="line"/>
      <point x="171" y="553"/>
      <point x="159" y="367"/>
      <point x="136" y="221" type="curve" smooth="yes"/>
      <point x="113" y="78"/>
      <point x="112" y="29"/>
      <point x="20" y="42" type="curve"/>
      <point x="20" y="0" type="line"/>
      <point x="145" y="-35"/>
      <point x="163" y="70"/>
      <point x="181" y="194" type="curve" smooth="yes"/>
      <point x="205" y="361"/>
      <point x="213" y="538"/>
      <point x="222" y="678" type="curve"/>
      <point x="572" y="678" type="line"/>
      <point x="572" y="0" type="line"/>
      <point x="614" y="0" type="line"/>
    </contour>
  </outline>
</glyph>
<glyph name="U-cy" format="2">
  <advance width="614"/>
  <unicode hex="0423"/>
  <outline>
    <contour>
      <point x="544" y="720" type="line"/>
      <point x="303" y="202" type="line"/>
      <point x="65" y="720" type="line"/>
      <point x="20" y="720" type="line"/>
      <point x="281" y="155" type="line"/>
      <point x="209" y="0" type="line"/>
      <point x="257" y="0" type="line"/>
      <point x="589" y="720" type="line"/>
    </contour>
  </outline>
</glyph>
<glyph name="Ef-cy" format="2">
  <advance width="692"/>
  <unicode hex="0424"/>
  <outline>
    <contour>
      <point x="367" y="91" type="curve"/>
      <point x="325" y="91" type="line"/>
      <point x="177" y="66"/>
      <point x="30" y="173"/>
      <point x="30" y="383" type="curve" smooth="yes"/>
      <point x="30" y="593"/>
      <point x="177" y="700"/>
      <point x="325" y="675" type="curve"/>
      <point x="367" y="675" type="line"/>
      <point x="515" y="700"/>
      <point x="662" y="593"/>
      <point x="662" y="383" type="curve" smooth="yes"/>
      <point x="662" y="173"/>
      <point x="515" y="66"/>
    </contour>
    <contour>
      <point x="325" y="134" type="curve"/>
      <point x="367" y="134" type="line"/>
      <point x="501" y="116"/>
      <point x="617" y="213"/>
      <point x="617" y="383" type="curve" smooth="yes"/>
      <point x="617" y="553"/>
      <point x="501" y="651"/>
      <point x="367" y="633" type="curve"/>
      <point x="325" y="633" type="line"/>
      <point x="191" y="651"/>
      <point x="75" y="553"/>
      <point x="75" y="383" type="curve" smooth="yes"/>
      <point x="75" y="213"/>
      <point x="191" y="116"/>
    </contour>
    <contour>
      <point x="367" y="0" type="line"/>
      <point x="325" y="0" type="line"/>
      <point x="325" y="720" type="line"/>
      <point x="367" y="720" type="line"/>
    </contour>
  </outline>
</glyph>
<glyph name="Tse-cy" format="2">
  <advance width="694"/>
  <unicode hex="0426"/>
  <outline>
    <contour>
      <point x="642" y="-80" type="line"/>
      <point x="684" y="-80" type="line"/>
      <point x="684" y="42" type="line"/>
      <point x="610" y="42" type="line"/>
      <point x="610" y="720" type="line"/>
      <point x="568" y="720" type="line"/>
      <point x="568" y="42" type="line"/>
      <point x="112" y="42" type="line"/>
      <point x="112" y="720" type="line"/>
      <point x="70" y="720" type="line"/>
      <point x="70" y="0" type="line"/>
      <point x="642" y="0" type="line"/>
    </contour>
  </outline>
</glyph>
<glyph name="Che-cy" format="2">
  <advance width="627"/>
  <unicode hex="0427"/>
  <outline>
    <contour>
      <point x="515" y="0" type="line"/>
      <point x="557" y="0" type="line"/>
      <point x="557" y="720" type="line"/>
      <point x="515" y="720" type="line"/>
      <point x="515" y="358" type="line"/>
      <point x="476" y="330"/>
      <point x="410" y="305"/>
      <point x="327" y="305" type="curve" smooth="yes"/>
      <point x="268" y="305"/>
      <point x="209" y="317"/>
      <point x="165" y="365" type="curve" smooth="yes"/>
      <point x="115" y="419"/>
      <point x="112" y="484"/>
      <point x="112" y="586" type="curve"/>
      <point x="112" y="720" type="line"/>
      <point x="70" y="720" type="line"/>
      <point x="70" y="586" type="line"/>
      <point x="70" y="488"/>
      <point x="66" y="406"/>
      <point x="130" y="335" type="curve" smooth="yes"/>
      <point x="179" y="281"/>
      <point x="244" y="261"/>
      <point x="329" y="261" type="curve" smooth="yes"/>
      <point x="409" y="261"/>
      <point x="468" y="279"/>
      <point x="515" y="305" type="curve"/>
    </contour>
  </outline>
</glyph>
<glyph name="Sha-cy" format="2">
  <advance width="880"/>
  <unicode hex="0428"/>
  <outline>
    <contour>
      <point x="419" y="720" type="line"/>
      <point x="419" y="0" type="line"/>
      <point x="461" y="0" type="line"/>
      <point x="461" y="720" type="line"/>
    </contour>
    <component base="Ge-cy" yScale="-1" yOffset="720"/>
    <component base="Ge-cy" xScale="-1" yScale="-1" xOffset="880" yOffset="720"/>
  </outline>
</glyph>
<glyph name="Hardsign-cy" format="2">
  <advance width="591"/>
  <unicode hex="042A"/>
  <outline>
    <contour>
      <point x="80" y="0" type="line"/>
      <point x="345" y="0" type="line" smooth="yes"/>
      <point x="359" y="0"/>
      <point x="373" y="1"/>
      <point x="391" y="4" type="curve" smooth="yes"/>
      <point x="495" y="20"/>
      <point x="561" y="108"/>
      <point x="561" y="216" type="curve" smooth="yes"/>
      <point x="561" y="324"/>
      <point x="495" y="412"/>
      <point x="391" y="428" type="curve" smooth="yes"/>
      <point x="373" y="431"/>
      <point x="359" y="432"/>
      <point x="345" y="432" type="curve" smooth="yes"/>
      <point x="122" y="432" type="line"/>
      <point x="122" y="720" type="line"/>
      <point x="-10" y="720" type="line"/>
      <point x="-10" y="678" type="line"/>
      <point x="80" y="678" type="line"/>
    </contour>
    <contour>
      <point x="122" y="42" type="line"/>
      <point x="122" y="390" type="line"/>
      <point x="345" y="390" type="line" smooth="yes"/>
      <point x="356" y="390"/>
      <point x="373" y="389"/>
      <point x="389" y="386" type="curve" smooth="yes"/>
      <point x="472" y="370"/>
      <point x="516" y="297"/>
      <point x="516" y="216" type="curve" smooth="yes"/>
      <point x="516" y="135"/>
      <point x="472" y="62"/>
      <point x="389" y="46" type="curve" smooth="yes"/>
      <point x="373" y="43"/>
      <point x="356" y="42"/>
      <point x="345" y="42" type="curve" smooth="yes"/>
    </contour>
  </outline>
</glyph>
<glyph name="Ereversed-cy" format="2">
  <advance width="692"/>
  <unicode hex="042D"/>
  <outline>
    <contour>
      <point x="347" y="381" type="line"/>
      <point x="347" y="339" type="line"/>
      <point x="617" y="339" type="line"/>
      <point x="617" y="381" type="line"/>
    </contour>
    <component base="C" xScale="-1" xOffset="692"/>
  </outline>
</glyph>
<glyph name="Iu-cy" format="2">
  <advance width="898"/>
  <unicode hex="042E"/>
  <outline>
    <contour>
      <point x="70" y="720" type="line"/>
      <point x="70" y="0" type="line"/>
      <point x="112" y="0" type="line"/>
      <point x="112" y="720" type="line"/>
    </contour>
    <contour>
      <point x="106" y="381" type="line"/>
      <point x="106" y="339" type="line"/>
      <point x="346" y="339" type="line"/>
      <point x="346" y="381" type="line"/>
    </contour>
    <contour>
      <point x="589" y="-15" type="curve" smooth="yes"/>
      <point x="779" y="-15"/>
      <point x="868" y="160"/>
      <point x="868" y="360" type="curve" smooth="yes"/>
      <point x="868" y="550"/>
      <point x="779" y="734"/>
      <point x="589" y="734" type="curve" smooth="yes"/>
      <point x="399" y="734"/>
      <point x="310" y="550"/>
      <point x="310" y="360" type="curve" smooth="yes"/>
      <point x="310" y="170"/>
      <point x="399" y="-15"/>
    </contour>
    <contour>
      <point x="589" y="27" type="curve" smooth="yes"/>
      <point x="434" y="27"/>
      <point x="353" y="185"/>
      <point x="355" y="360" type="curve" smooth="yes"/>
      <point x="357" y="535"/>
      <point x="434" y="692"/>
      <point x="589" y="692" type="curve" smooth="yes"/>
      <point x="744" y="692"/>
      <point x="825" y="535"/>
      <point x="823" y="360" type="curve" smooth="yes"/>
      <point x="821" y="185"/>
      <point x="744" y="27"/>
    </contour>
  </outline>
</glyph>
<glyph name="be-cy" format="2">
  <advance width="573"/>
  <unicode hex="0431"/>
  <outline>
    <contour>
      <point x="286" y="519" type="curve" smooth="yes"/>
      <point x="204" y="519"/>
      <point x="123" y="475"/>
      <point x="86" y="412" type="curve"/>
      <point x="94" y="514"/>
      <point x="124" y="590"/>
      <point x="182" y="625" type="curve" smooth="yes"/>
      <point x="261" y="673"/>
      <point x="383" y="680"/>
      <point x="474" y="695" type="curve"/>
      <point x="468" y="735" type="line"/>
      <point x="386" y="718"/>
      <point x="241" y="716"/>
      <point x="162" y="664" type="curve" smooth="yes"/>
      <point x="114" y="633"/>
      <point x="84" y="588"/>
      <point x="69" y="537" type="curve" smooth="yes"/>
      <point x="51" y="475"/>
      <point x="40" y="370"/>
      <point x="40" y="252" type="curve" smooth="yes"/>
      <point x="40" y="92"/>
      <point x="132" y="-17"/>
      <point x="286" y="-15" type="curve" smooth="yes"/>
      <point x="439" y="-17"/>
      <point x="530" y="89"/>
      <point x="533" y="252" type="curve" smooth="yes"/>
      <point x="531" y="413"/>
      <point x="444" y="519"/>
    </contour>
    <contour>
      <point x="286" y="477" type="curve" smooth="yes"/>
      <point x="413" y="479"/>
      <point x="488" y="391"/>
      <point x="488" y="252" type="curve" smooth="yes"/>
      <point x="488" y="116"/>
      <point x="418" y="27"/>
      <point x="286" y="27" type="curve" smooth="yes"/>
      <point x="156" y="27"/>
      <point x="85" y="113"/>
      <point x="85" y="255" type="curve" smooth="yes"/>
      <point x="85" y="390"/>
      <point x="157" y="479"/>
    </contour>
  </outline>
</glyph>
<glyph name="ve-cy" format="2">
  <advance width="520"/>
  <unicode hex="0432"/>
  <outline>
    <contour>
      <point x="70" y="540" type="line"/>
      <point x="70" y="0" type="line"/>
      <point x="312" y="0" type="line" smooth="yes"/>
      <point x="336" y="0"/>
      <point x="367" y="0"/>
      <point x="396" y="8" type="curve" smooth="yes"/>
      <point x="452" y="23"/>
      <point x="490" y="70"/>
      <point x="490" y="146" type="curve" smooth="yes"/>
      <point x="490" y="191"/>
      <point x="473" y="234"/>
      <point x="435" y="259" type="curve" smooth="yes"/>
      <point x="423" y="267"/>
      <point x="411" y="273"/>
      <point x="402" y="275" type="curve"/>
      <point x="413" y="281"/>
      <point x="426" y="291"/>
      <point x="435" y="303" type="curve" smooth="yes"/>
      <point x="456" y="331"/>
      <point x="464" y="358"/>
      <point x="464" y="395" type="curve" smooth="yes"/>
      <point x="464" y="453"/>
      <point x="428" y="515"/>
      <point x="362" y="531" type="curve" smooth="yes"/>
      <point x="329" y="539"/>
      <point x="293" y="540"/>
      <point x="277" y="540" type="curve" smooth="yes"/>
    </contour>
    <contour>
      <point x="112" y="498" type="line"/>
      <point x="282" y="498" type="line" smooth="yes"/>
      <point x="305" y="498"/>
      <point x="331" y="496"/>
      <point x="355" y="488" type="curve" smooth="yes"/>
      <point x="397" y="474"/>
      <point x="419" y="436"/>
      <point x="419" y="395" type="curve" smooth="yes"/>
      <point x="419" y="352"/>
      <point x="399" y="313"/>
      <point x="356" y="299" type="curve" smooth="yes"/>
      <point x="338" y="293"/>
      <point x="312" y="291"/>
      <point x="297" y="291" type="curve" smooth="yes"/>
      <point x="112" y="291" type="line"/>
    </contour>
    <contour>
      <point x="112" y="249" type="line"/>
      <point x="296" y="249" type="line" smooth="yes"/>
      <point x="312" y="249"/>
      <point x="329" y="249"/>
      <point x="346" y="247" type="curve" smooth="yes"/>
      <point x="407" y="240"/>
      <point x="445" y="199"/>
      <point x="445" y="146" type="curve" smooth="yes"/>
      <point x="445" y="98"/>
      <point x="423" y="59"/>
      <point x="373" y="48" type="curve" smooth="yes"/>
      <point x="354" y="44"/>
      <point x="326" y="42"/>
      <point x="312" y="42" type="curve" smooth="yes"/>
      <point x="112" y="42" type="line"/>
    </contour>
  </outline>
</glyph>
<glyph name="ge-cy" format="2">
  <advance width="455"/>
  <unicode hex="0433"/>
  <outline>
    <contour>
      <point x="430" y="540" type="line"/>
      <point x="70" y="540" type="line"/>
      <point x="70" y="0" type="line"/>
      <point x="112" y="0" type="line"/>
      <point x="112" y="498" type="line"/>
      <point x="430" y="498" type="line"/>
    </contour>
  </outline>
</glyph>
<glyph name="de-cy" format="2">
  <advance width="575"/>
  <unicode hex="0434"/>
  <outline>
    <contour>
      <point x="495" y="540" type="line"/>
      <point x="168" y="540" type="line"/>
      <point x="161" y="378"/>
      <point x="153" y="242"/>
      <point x="133" y="161" type="curve" smooth="yes"/>
      <point x="112" y="77"/>
      <point x="94" y="42"/>
      <point x="30" y="42" type="curve"/>
      <point x="30" y="-120" type="line"/>
      <point x="72" y="-120" type="line"/>
      <point x="72" y="0" type="line"/>
      <point x="503" y="0" type="line"/>
      <point x="503" y="-120" type="line"/>
      <point x="545" y="-120" type="line"/>
      <point x="545" y="42" type="line"/>
      <point x="495" y="42" type="line"/>
    </contour>
    <contour>
      <point x="453" y="42" type="line"/>
      <point x="130" y="42" type="line"/>
      <point x="151" y="61"/>
      <point x="161" y="95"/>
      <point x="173" y="137" type="curve" smooth="yes"/>
      <point x="196" y="218"/>
      <point x="205" y="382"/>
      <point x="211" y="498" type="curve"/>
      <point x="453" y="498" type="line"/>
    </contour>
  </outline>
</glyph>
<glyph name="ze-cy" format="2">
  <advance width="497"/>
  <unicode hex="0437"/>
  <outline>
    <contour>
      <point x="55" y="461" type="curve"/>
      <point x="88" y="433" type="line"/>
      <point x="106" y="456"/>
      <point x="125" y="471"/>
      <point x="151" y="485" type="curve" smooth="yes"/>
      <point x="185" y="503"/>
      <point x="215" y="513"/>
      <point x="261" y="513" type="curve" smooth="yes"/>
      <point x="302" y="513"/>
      <point x="328" y="506"/>
      <point x="354" y="490" type="curve" smooth="yes"/>
      <point x="390" y="468"/>
      <point x="402" y="436"/>
      <point x="402" y="399" type="curve" smooth="yes"/>
      <point x="402" y="359"/>
      <point x="376" y="332"/>
      <point x="354" y="319" type="curve" smooth="yes"/>
      <point x="327" y="303"/>
      <point x="297" y="300"/>
      <point x="257" y="300" type="curve"/>
      <point x="187" y="300" type="line"/>
      <point x="187" y="259" type="line"/>
      <point x="257" y="259" type="line"/>
      <point x="300" y="259"/>
      <point x="345" y="253"/>
      <point x="367" y="241" type="curve" smooth="yes"/>
      <point x="399" y="223"/>
      <point x="414" y="191"/>
      <point x="414" y="151" type="curve" smooth="yes"/>
      <point x="414" y="111"/>
      <point x="397" y="76"/>
      <point x="361" y="53" type="curve" smooth="yes"/>
      <point x="332" y="34"/>
      <point x="304" y="27"/>
      <point x="261" y="27" type="curve" smooth="yes"/>
      <point x="205" y="27"/>
      <point x="162" y="46"/>
      <point x="135" y="64" type="curve" smooth="yes"/>
      <point x="99" y="88"/>
      <point x="77" y="126"/>
      <point x="65" y="149" type="curve"/>
      <point x="30" y="129" type="line"/>
      <point x="42" y="106"/>
      <point x="67" y="59"/>
      <point x="111" y="30" type="curve" smooth="yes"/>
      <point x="154" y="1"/>
      <point x="202" y="-15"/>
      <point x="261" y="-15" type="curve" smooth="yes"/>
      <point x="310" y="-15"/>
      <point x="336" y="-11"/>
      <point x="378" y="13" type="curve" smooth="yes"/>
      <point x="428" y="41"/>
      <point x="457" y="93"/>
      <point x="457" y="149" type="curve" smooth="yes"/>
      <point x="457" y="199"/>
      <point x="433" y="260"/>
      <point x="377" y="281" type="curve"/>
      <point x="419" y="306"/>
      <point x="445" y="346"/>
      <point x="445" y="403" type="curve" smooth="yes"/>
      <point x="445" y="453"/>
      <point x="424" y="497"/>
      <point x="376" y="527" type="curve" smooth="yes"/>
      <point x="339" y="550"/>
      <point x="307" y="555"/>
      <point x="261" y="555" type="curve" smooth="yes"/>
      <point x="206" y="555"/>
      <point x="166" y="543"/>
      <point x="132" y="525" type="curve" smooth="yes"/>
      <point x="98" y="507"/>
      <point x="73" y="484"/>
    </contour>
  </outline>
</glyph>
<glyph name="ka-cy" format="2">
  <advance width="468"/>
  <unicode hex="043A"/>
  <outline>
    <contour>
      <point x="70" y="0" type="line"/>
      <point x="112" y="0" type="line"/>
      <point x="112" y="260" type="line"/>
      <point x="416" y="0" type="line"/>
      <point x="488" y="0" type="line"/>
      <point x="163" y="270" type="line"/>
      <point x="445" y="540" type="line"/>
      <point x="382" y="540" type="line"/>
      <point x="112" y="280" type="line"/>
      <point x="112" y="540" type="line"/>
      <point x="70" y="540" type="line"/>
    </contour>
  </outline>
</glyph>
<glyph name="el-cy" format="2">
  <advance width="556"/>
  <unicode hex="043B"/>
  <outline>
    <contour>
      <point x="139" y="540" type="line"/>
      <point x="127" y="346"/>
      <point x="117" y="225"/>
      <point x="100" y="122" type="curve" smooth="yes"/>
      <point x="90" y="64"/>
      <point x="81" y="29"/>
      <point x="20" y="40" type="curve"/>
      <point x="20" y="0" type="line"/>
      <point x="108" y="-15"/>
      <point x="124" y="16"/>
      <point x="138" y="86" type="curve" smooth="yes"/>
      <point x="155" y="170"/>
      <point x="170" y="321"/>
      <point x="182" y="498" type="curve"/>
      <point x="444" y="498" type="line"/>
      <point x="444" y="0" type="line"/>
      <point x="486" y="0" type="line"/>
      <point x="486" y="540" type="line"/>
    </contour>
  </outline>
</glyph>
<glyph name="em-cy" format="2">
  <advance width="670"/>
  <unicode hex="043C"/>
  <outline>
    <contour>
      <point x="557" y="540" type="line"/>
      <point x="335" y="52" type="line"/>
      <point x="113" y="540" type="line"/>
      <point x="70" y="540" type="line"/>
      <point x="70" y="0" type="line"/>
      <point x="112" y="0" type="line"/>
      <point x="112" y="440" type="line"/>
      <point x="312" y="0" type="line"/>
      <point x="358" y="0" type="line"/>
      <point x="558" y="440" type="line"/>
      <point x="558" y="0" type="line"/>
      <point x="600" y="0" type="line"/>
      <point x="600" y="540" type="line"/>
    </contour>
  </outline>
</glyph>
<glyph name="en-cy" format="2">
  <advance width="570"/>
  <unicode hex="043D"/>
  <outline>
    <contour>
      <point x="70" y="0" type="line"/>
      <point x="112" y="0" type="line"/>
      <point x="112" y="540" type="line"/>
      <point x="70" y="540" type="line"/>
    </contour>
    <contour>
      <point x="458" y="540" type="line"/>
      <point x="458" y="0" type="line"/>
      <point x="500" y="0" type="line"/>
      <point x="500" y="540" type="line"/>
    </contour>
    <contour>
      <point x="87" y="291" type="line"/>
      <point x="87" y="249" type="line"/>
      <point x="483" y="249" type="line"/>
      <point x="483" y="291" type="line"/>
    </contour>
  </outline>
</glyph>
<glyph name="pe-cy" format="2">
  <advance width="543"/>
  <unicode hex="043F"/>
  <outline>
    <contour>
      <point x="70" y="0" type="line"/>
      <point x="112" y="0" type="line"/>
      <point x="112" y="540" type="line"/>
      <point x="70" y="540" type="line"/>
    </contour>
    <contour>
      <point x="431" y="540" type="line"/>
      <point x="431" y="0" type="line"/>
      <point x="473" y="0" type="line"/>
      <point x="473" y="540" type="line"/>
    </contour>
    <contour>
      <point x="87" y="540" type="line"/>
      <point x="87" y="498" type="line"/>
      <point x="456" y="498" type="line"/>
      <point x="456" y="540" type="line"/>
    </contour>
  </outline>
</glyph>
<glyph name="te-cy" format="2">
  <advance width="490"/>
  <unicode hex="0442"/>
  <outline>
    <contour>
      <point x="224" y="0" type="line"/>
      <point x="266" y="0" type="line"/>
      <point x="266" y="520" type="line"/>
      <point x="224" y="520" type="line"/>
    </contour>
    <contour>
      <point x="25" y="540" type="line"/>
      <point x="25" y="498" type="line"/>
      <point x="465" y="498" type="line"/>
      <point x="465" y="540" type="line"/>
    </contour>
  </outline>
</glyph>
<glyph name="ef-cy" format="2">
  <advance width="698"/>
  <unicode hex="0444"/>
  <outline>
    <contour>
      <point x="328" y="-225" type="line"/>
      <point x="370" y="-225" type="line"/>
      <point x="370" y="-11" type="line"/>
      <point x="528" y="-36"/>
      <point x="658" y="72"/>
      <point x="658" y="269" type="curve" smooth="yes"/>
      <point x="658" y="466"/>
      <point x="528" y="576"/>
      <point x="370" y="551" type="curve"/>
      <point x="370" y="719" type="line"/>
      <point x="328" y="719" type="line"/>
      <point x="328" y="551" type="line"/>
      <point x="170" y="576"/>
      <point x="40" y="466"/>
      <point x="40" y="269" type="curve" smooth="yes"/>
      <point x="40" y="72"/>
      <point x="170" y="-36"/>
      <point x="328" y="-11" type="curve"/>
    </contour>
    <contour>
      <point x="328" y="31" type="line"/>
      <point x="220" y="13"/>
      <point x="85" y="74"/>
      <point x="85" y="269" type="curve" smooth="yes"/>
      <point x="85" y="464"/>
      <point x="220" y="527"/>
      <point x="328" y="509" type="curve"/>
    </contour>
    <contour>
      <point x="370" y="31" type="curve"/>
      <point x="370" y="509" type="line"/>
      <point x="478" y="527"/>
      <point x="613" y="464"/>
      <point x="613" y="269" type="curve" smooth="yes"/>
      <point x="613" y="74"/>
      <point x="478" y="13"/>
    </contour>
  </outline>
</glyph>
<glyph name="tse-cy" format="2">
  <advance width="594"/>
  <unicode hex="0446"/>
  <outline>
    <contour>
      <point x="542" y="-80" type="line"/>
      <point x="584" y="-80" type="line"/>
      <point x="584" y="42" type="line"/>
      <point x="473" y="42" type="line"/>
      <point x="473" y="540" type="line"/>
      <point x="431" y="540" type="line"/>
      <point x="431" y="42" type="line"/>
      <point x="112" y="42" type="line"/>
      <point x="112" y="540" type="line"/>
      <point x="70" y="540" type="line"/>
      <point x="70" y="0" type="line"/>
      <point x="542" y="0" type="line"/>
    </contour>
  </outline>
</glyph>
<glyph name="che-cy" format="2">
  <advance width="523"/>
  <unicode hex="0447"/>
  <outline>
    <contour>
      <point x="82" y="540" type="line"/>
      <point x="40" y="540" type="line"/>
      <point x="40" y="429" type="line" smooth="yes"/>
      <point x="40" y="390"/>
      <point x="42" y="353"/>
      <point x="50" y="317" type="curve" smooth="yes"/>
      <point x="70" y="230"/>
      <point x="145" y="178"/>
      <point x="241" y="178" type="curve" smooth="yes"/>
      <point x="319" y="178"/>
      <point x="371" y="193"/>
      <point x="417" y="217" type="curve"/>
      <point x="417" y="260" type="line"/>
      <point x="377" y="232"/>
      <point x="323" y="215"/>
      <point x="250" y="215" type="curve" smooth="yes"/>
      <point x="161" y="215"/>
      <point x="100" y="262"/>
      <point x="87" y="348" type="curve" smooth="yes"/>
      <point x="83" y="373"/>
      <point x="82" y="402"/>
      <point x="82" y="429" type="curve" smooth="yes"/>
    </contour>
    <contour>
      <point x="453" y="0" type="line"/>
      <point x="453" y="540" type="line"/>
      <point x="411" y="540" type="line"/>
      <point x="411" y="0" type="line"/>
    </contour>
  </outline>
</glyph>
<glyph name="hardsign-cy" format="2">
  <advance width="532"/>
  <unicode hex="044A"/>
  <outline>
    <contour>
      <point x="20" y="540" type="line"/>
      <point x="20" y="498" type="line"/>
      <point x="100" y="498" type="line"/>
      <point x="100" y="540" type="line"/>
    </contour>
    <component base="softsign-cy" xOffset="20"/>
  </outline>
</glyph>
<glyph name="yeru-cy" format="2">
  <advance width="624"/>
  <unicode hex="044B"/>
  <outline>
    <contour>
      <point x="70" y="540" type="line"/>
      <point x="71" y="0" type="line"/>
      <point x="239" y="0" type="line" smooth="yes"/>
      <point x="270" y="0"/>
      <point x="297" y="1"/>
      <point x="325" y="7" type="curve" smooth="yes"/>
      <point x="387" y="20"/>
      <point x="442" y="70"/>
      <point x="442" y="161" type="curve" smooth="yes"/>
      <point x="442" y="263"/>
      <point x="380" y="303"/>
      <point x="308" y="316" type="curve" smooth="yes"/>
      <point x="285" y="320"/>
      <point x="261" y="321"/>
      <point x="229" y="321" type="curve" smooth="yes"/>
      <point x="113" y="321" type="line"/>
      <point x="113" y="540" type="line"/>
    </contour>
    <contour>
      <point x="113" y="279" type="line"/>
      <point x="227" y="279" type="line" smooth="yes"/>
      <point x="254" y="279"/>
      <point x="284" y="278"/>
      <point x="309" y="273" type="curve" smooth="yes"/>
      <point x="364" y="262"/>
      <point x="397" y="233"/>
      <point x="397" y="161" type="curve" smooth="yes"/>
      <point x="397" y="86"/>
      <point x="357" y="60"/>
      <point x="318" y="49" type="curve" smooth="yes"/>
      <point x="293" y="42"/>
      <point x="254" y="42"/>
      <point x="227" y="42" type="curve" smooth="yes"/>
      <point x="113" y="42" type="line"/>
    </contour>
    <component base="idotless" xOffset="432"/>
  </outline>
</glyph>
<glyph name="ereversed-cy" format="2">
  <advance width="539"/>
  <unicode hex="044D"/>
  <outline>
    <contour>
      <point x="253" y="-15" type="curve" smooth="yes"/>
      <point x="408" y="-15"/>
      <point x="499" y="95"/>
      <point x="499" y="270" type="curve" smooth="yes"/>
      <point x="499" y="443"/>
      <point x="411" y="555"/>
      <point x="256" y="555" type="curve" smooth="yes"/>
      <point x="151" y="555"/>
      <point x="68" y="504"/>
      <point x="35" y="421" type="curve"/>
      <point x="75" y="404" type="line"/>
      <point x="105" y="473"/>
      <point x="171" y="513"/>
      <point x="252" y="513" type="curve" smooth="yes"/>
      <point x="381" y="513"/>
      <point x="446" y="424"/>
      <point x="453" y="291" type="curve"/>
      <point x="170" y="291" type="line"/>
      <point x="170" y="249" type="line"/>
      <point x="453" y="249" type="line"/>
      <point x="445" y="114"/>
      <point x="379" y="27"/>
      <point x="252" y="27" type="curve" smooth="yes"/>
      <point x="173" y="27"/>
      <point x="109" y="64"/>
      <point x="76" y="135" type="curve"/>
      <point x="35" y="117" type="line"/>
      <point x="80" y="30"/>
      <point x="154" y="-15"/>
    </contour>
  </outline>
</glyph>
<glyph name="iu-cy" format="2">
  <advance width="751"/>
  <unicode hex="044E"/>
  <outline>
    <contour>
      <point x="70" y="540" type="line"/>
      <point x="70" y="0" type="line"/>
      <point x="112" y="0" type="line"/>
      <point x="112" y="540" type="line"/>
    </contour>
    <contour>
      <point x="106" y="291" type="line"/>
      <point x="106" y="249" type="line"/>
      <point x="241" y="249" type="line"/>
      <point x="241" y="291" type="line"/>
    </contour>
    <contour>
      <point x="464" y="-15" type="curve" smooth="yes"/>
      <point x="541" y="-15"/>
      <point x="608" y="12"/>
      <point x="653" y="72" type="curve"/>
      <point x="698" y="130"/>
      <point x="711" y="202"/>
      <point x="711" y="271" type="curve" smooth="yes"/>
      <point x="711" y="338"/>
      <point x="698" y="411"/>
      <point x="653" y="469" type="curve"/>
      <point x="609" y="527"/>
      <point x="539" y="555"/>
      <point x="464" y="555" type="curve" smooth="yes"/>
      <point x="307" y="555"/>
      <point x="217" y="441"/>
      <point x="217" y="271" type="curve" smooth="yes"/>
      <point x="217" y="103"/>
      <point x="304" y="-15"/>
    </contour>
    <contour>
      <point x="619" y="98" type="curve"/>
      <point x="584" y="51"/>
      <point x="525" y="27"/>
      <point x="464" y="27" type="curve" smooth="yes"/>
      <point x="331" y="27"/>
      <point x="262" y="124"/>
      <point x="262" y="271" type="curve" smooth="yes"/>
      <point x="262" y="413"/>
      <point x="327" y="513"/>
      <point x="464" y="513" type="curve" smooth="yes"/>
      <point x="525" y="513"/>
      <point x="584" y="490"/>
      <point x="619" y="443" type="curve"/>
      <point x="655" y="396"/>
      <point x="666" y="332"/>
      <point x="666" y="271" type="curve" smooth="yes"/>
      <point x="666" y="208"/>
      <point x="655" y="145"/>
    </contour>
  </outline>
</glyph>
<glyph name="ia-cy" format="2">
  <advance width="532"/>
  <unicode hex="044F"/>
  <outline>
    <contour>
      <point x="40" y="0" type="line"/>
      <point x="90" y="0" type="line"/>
      <point x="257" y="240" type="line"/>
      <point x="205" y="240" type="line"/>
    </contour>
    <contour>
      <point x="462" y="0" type="line"/>
      <point x="461" y="540" type="line"/>
      <point x="263" y="540" type="line" smooth="yes"/>
      <point x="232" y="540"/>
      <point x="201" y="539"/>
      <point x="177" y="532" type="curve" smooth="yes"/>
      <point x="116" y="515"/>
      <point x="60" y="463"/>
      <point x="60" y="379" type="curve" smooth="yes"/>
      <point x="60" y="290"/>
      <point x="119" y="240"/>
      <point x="191" y="227" type="curve" smooth="yes"/>
      <point x="214" y="223"/>
      <point x="241" y="219"/>
      <point x="273" y="219" type="curve" smooth="yes"/>
      <point x="419" y="219" type="line"/>
      <point x="419" y="0" type="line"/>
    </contour>
    <contour>
      <point x="419" y="261" type="line"/>
      <point x="275" y="261" type="line" smooth="yes"/>
      <point x="248" y="261"/>
      <point x="216" y="262"/>
      <point x="194" y="268" type="curve" smooth="yes"/>
      <point x="139" y="283"/>
      <point x="105" y="315"/>
      <point x="105" y="379" type="curve" smooth="yes"/>
      <point x="105" y="446"/>
      <point x="148" y="477"/>
      <point x="185" y="489" type="curve" smooth="yes"/>
      <point x="210" y="497"/>
      <point x="248" y="498"/>
      <point x="275" y="498" type="curve" smooth="yes"/>
      <point x="419" y="498" type="line"/>
    </contour>
  </outline>
</glyph>
<glyph name="dje-cy" format="2">
  <advance width="573"/>
  <unicode hex="0452"/>
  <outline>
    <contour>
      <point x="460" y="-178" type="curve" smooth="yes"/>
      <point x="492" y="-173"/>
      <point x="513" y="-150"/>
      <point x="513" y="-95" type="curve" smooth="yes"/>
      <point x="513" y="294" type="line" smooth="yes"/>
      <point x="513" y="454"/>
      <point x="431" y="552"/>
      <point x="294" y="552" type="curve" smooth="yes"/>
      <point x="218" y="552"/>
      <point x="149" y="522"/>
      <point x="109" y="453" type="curve"/>
      <point x="109" y="600" type="line"/>
      <point x="240" y="600" type="line"/>
      <point x="240" y="642" type="line"/>
      <point x="109" y="642" type="line"/>
      <point x="109" y="720" type="line"/>
      <point x="70" y="720" type="line"/>
      <point x="70" y="642" type="line"/>
      <point x="0" y="642" type="line"/>
      <point x="0" y="600" type="line"/>
      <point x="70" y="600" type="line"/>
      <point x="70" y="0" type="line"/>
      <point x="112" y="0" type="line"/>
      <point x="112" y="295" type="line" smooth="yes"/>
      <point x="112" y="411"/>
      <point x="162" y="511"/>
      <point x="294" y="511" type="curve" smooth="yes"/>
      <point x="406" y="511"/>
      <point x="471" y="440"/>
      <point x="471" y="286" type="curve" smooth="yes"/>
      <point x="471" y="-55" type="line" smooth="yes"/>
      <point x="471" y="-126"/>
      <point x="461" y="-143"/>
      <point x="396" y="-133" type="curve"/>
      <point x="396" y="-174" type="line"/>
      <point x="413" y="-179"/>
      <point x="442" y="-181"/>
    </contour>
  </outline>
</glyph>
<glyph name="lje-cy" format="2">
  <advance width="825"/>
  <unicode hex="0459"/>
  <outline>
    <contour>
      <point x="413" y="540" type="line"/>
      <point x="414" y="0" type="line"/>
      <point x="582" y="0" type="line" smooth="yes"/>
      <point x="613" y="0"/>
      <point x="640" y="1"/>
      <point x="668" y="7" type="curve" smooth="yes"/>
      <point x="730" y="20"/>
      <point x="785" y="70"/>
      <point x="785" y="161" type="curve" smooth="yes"/>
      <point x="785" y="263"/>
      <point x="723" y="303"/>
      <point x="651" y="316" type="curve" smooth="yes"/>
      <point x="628" y="320"/>
      <point x="604" y="321"/>
      <point x="572" y="321" type="curve" smooth="yes"/>
      <point x="456" y="321" type="line"/>
      <point x="456" y="540" type="line"/>
    </contour>
    <contour>
      <point x="456" y="279" type="line"/>
      <point x="570" y="279" type="line" smooth="yes"/>
      <point x="597" y="279"/>
      <point x="627" y="278"/>
      <point x="652" y="273" type="curve" smooth="yes"/>
      <point x="707" y="262"/>
      <point x="740" y="233"/>
      <point x="740" y="161" type="curve" smooth="yes"/>
      <point x="740" y="86"/>
      <point x="700" y="60"/>
      <point x="661" y="49" type="curve" smooth="yes"/>
      <point x="636" y="42"/>
      <point x="597" y="42"/>
      <point x="570" y="42" type="curve" smooth="yes"/>
      <point x="456" y="42" type="line"/>
    </contour>
    <contour>
      <point x="139" y="540" type="line"/>
      <point x="127" y="346"/>
      <point x="118" y="225"/>
      <point x="100" y="122" type="curve" smooth="yes"/>
      <point x="90" y="64"/>
      <point x="81" y="29"/>
      <point x="20" y="40" type="curve"/>
      <point x="20" y="0" type="line"/>
      <point x="108" y="-15"/>
      <point x="124" y="16"/>
      <point x="138" y="86" type="curve" smooth="yes"/>
      <point x="155" y="170"/>
      <point x="170" y="321"/>
      <point x="182" y="498" type="curve"/>
      <point x="414" y="498" type="line"/>
      <point x="426" y="540" type="line"/>
    </contour>
  </outline>
</glyph>
<glyph name="nje-cy" format="2">
  <advance width="784"/>
  <unicode hex="045A"/>
  <outline>
    <contour>
      <point x="70" y="0" type="line"/>
      <point x="112" y="0" type="line"/>
      <point x="112" y="540" type="line"/>
      <point x="70" y="540" type="line"/>
    </contour>
    <contour>
      <point x="99" y="321" type="line"/>
      <point x="99" y="279" type="line"/>
      <point x="395" y="279" type="line"/>
      <point x="395" y="321" type="line"/>
    </contour>
    <contour>
      <point x="372" y="540" type="line"/>
      <point x="373" y="0" type="line"/>
      <point x="541" y="0" type="line" smooth="yes"/>
      <point x="572" y="0"/>
      <point x="599" y="1"/>
      <point x="627" y="7" type="curve" smooth="yes"/>
      <point x="689" y="20"/>
      <point x="744" y="70"/>
      <point x="744" y="161" type="curve" smooth="yes"/>
      <point x="744" y="263"/>
      <point x="682" y="303"/>
      <point x="610" y="316" type="curve" smooth="yes"/>
      <point x="587" y="320"/>
      <point x="563" y="321"/>
      <point x="531" y="321" type="curve" smooth="yes"/>
      <point x="415" y="321" type="line"/>
      <point x="415" y="540" type="line"/>
    </contour>
    <contour>
      <point x="415" y="279" type="line"/>
      <point x="529" y="279" type="line" smooth="yes"/>
      <point x="556" y="279"/>
      <point x="586" y="278"/>
      <point x="611" y="273" type="curve" smooth="yes"/>
      <point x="666" y="262"/>
      <point x="699" y="233"/>
      <point x="699" y="161" type="curve" smooth="yes"/>
      <point x="699" y="86"/>
      <point x="659" y="60"/>
      <point x="620" y="49" type="curve" smooth="yes"/>
      <point x="595" y="42"/>
      <point x="556" y="42"/>
      <point x="529" y="42" type="curve" smooth="yes"/>
      <point x="415" y="42" type="line"/>
    </contour>
  </outline>
</glyph>
<glyph name="dzhe-cy" format="2">
  <advance width="543"/>
  <unicode hex="045F"/>
  <outline>
    <contour>
      <point x="264" y="-120" type="line"/>
      <point x="306" y="-120" type="line"/>
      <point x="306" y="0" type="line"/>
      <point x="473" y="0" type="line"/>
      <point x="473" y="540" type="line"/>
      <point x="431" y="540" type="line"/>
      <point x="431" y="42" type="line"/>
      <point x="112" y="42" type="line"/>
      <point x="112" y="540" type="line"/>
      <point x="70" y="540" type="line"/>
      <point x="70" y="0" type="line"/>
      <point x="264" y="0" type="line"/>
    </contour>
  </outline>
</glyph>
<glyph name="Gheupturn-cy" format="2">
  <advance width="530"/>
  <unicode hex="0490"/>
  <outline>
    <contour>
      <point x="70" y="0" type="line"/>
      <point x="112" y="0" type="line"/>
      <point x="112" y="700" type="line"/>
      <point x="70" y="700" type="line"/>
    </contour>
    <contour>
      <point x="70" y="678" type="line"/>
      <point x="510" y="678" type="line"/>
      <point x="510" y="720" type="line"/>
      <point x="70" y="720" type="line"/>
    </contour>
    <contour>
      <point x="408" y="678" type="line"/>
      <point x="520" y="678" type="line"/>
      <point x="520" y="800" type="line"/>
      <point x="478" y="800" type="line"/>
      <point x="478" y="720" type="line"/>
      <point x="408" y="720" type="line"/>
    </contour>
  </outline>
</glyph>
<glyph name="gheupturn-cy" format="2">
  <advance width="455"/>
  <unicode hex="0491"/>
  <outline>
    <contour>
      <point x="70" y="0" type="line"/>
      <point x="112" y="0" type="line"/>
      <point x="112" y="498" type="line"/>
      <point x="430" y="498" type="line"/>
      <point x="430" y="620" type="line"/>
      <point x="388" y="620" type="line"/>
      <point x="388" y="540" type="line"/>
      <point x="70" y="540" type="line"/>
    </contour>
  </outline>
</glyph>
<glyph name="ustrait-cy" format="2">
  <advance width="478"/>
  <unicode hex="04AF"/>
  <outline>
    <contour>
      <point x="216" y="-180" type="line"/>
      <point x="262" y="-180" type="line"/>
      <point x="262" y="0" type="line"/>
      <point x="458" y="540" type="line"/>
      <point x="414" y="540" type="line"/>
      <point x="239" y="61" type="line"/>
      <point x="65" y="540" type="line"/>
      <point x="20" y="540" type="line"/>
      <point x="216" y="0" type="line"/>
    </contour>
  </outline>
</glyph>
<glyph name="Obarred-cy" format="2">
  <advance width="726"/>
  <unicode hex="04E8"/>
  <outline>
    <contour>
      <point x="65" y="381" type="line"/>
      <point x="65" y="339" type="line"/>
      <point x="655" y="339" type="line"/>
      <point x="655" y="381" type="line"/>
    </contour>
    <component base="O"/>
  </outline>
</glyph>
<glyph name="obarred-cy" format="2">
  <advance width="574"/>
  <unicode hex="04E9"/>
  <outline>
    <contour>
      <point x="78" y="291" type="line"/>
      <point x="78" y="249" type="line"/>
      <point x="504" y="249" type="line"/>
      <point x="504" y="291" type="line"/>
    </contour>
    <component base="o"/>
  </outline>
</glyph>
<glyph name="Germandbls" format="2">
  <advance width="575"/>
  <unicode hex="1E9E"/>
  <outline>
    <contour>
      <point x="70" y="0" type="line"/>
      <point x="116" y="0" type="line"/>
      <point x="116" y="491" type="line" smooth="yes"/>
      <point x="116" y="535"/>
      <point x="118" y="577"/>
      <point x="131" y="608" type="curve" smooth="yes"/>
      <point x="155" y="666"/>
      <point x="204" y="693"/>
      <point x="254" y="693" type="curve" smooth="yes"/>
      <point x="315" y="693"/>
      <point x="369" y="656"/>
      <point x="385" y="592" type="curve"/>
      <point x="213" y="413" type="line"/>
      <point x="224" y="364" type="line"/>
      <point x="388" y="410"/>
      <point x="470" y="309"/>
      <point x="470" y="209" type="curve" smooth="yes"/>
      <point x="470" y="95"/>
      <point x="411" y="29"/>
      <point x="299" y="29" type="curve" smooth="yes"/>
      <point x="265" y="29"/>
      <point x="235" y="33"/>
      <point x="200" y="42" type="curve"/>
      <point x="200" y="0" type="line"/>
      <point x="229" y="-9"/>
      <point x="258" y="-15"/>
      <point x="297" y="-15" type="curve" smooth="yes"/>
      <point x="443" y="-15"/>
      <point x="515" y="74"/>
      <point x="515" y="209" type="curve" smooth="yes"/>
      <point x="515" y="341"/>
      <point x="402" y="447"/>
      <point x="275" y="418" type="curve"/>
      <point x="432" y="576" type="line"/>
      <point x="421" y="669"/>
      <point x="352" y="735"/>
      <point x="254" y="735" type="curve" smooth="yes"/>
      <point x="177" y="735"/>
      <point x="122" y="700"/>
      <point x="90" y="631" type="curve" smooth="yes"/>
      <point x="75" y="599"/>
      <point x="70" y="556"/>
      <point x="70" y="512" type="curve" smooth="yes"/>
    </contour>
  </outline>
</glyph>
<glyph name="endash" format="2">
  <advance width="540"/>
  <unicode hex="2013"/>
  <outline>
    <contour>
      <point x="60" y="336" type="line"/>
      <point x="60" y="294" type="line"/>
      <point x="480" y="294" type="line"/>
      <point x="480" y="336" type="line"/>
    </contour>
  </outline>
</glyph>
<glyph name="emdash" format="2">
  <advance width="780"/>
  <unicode hex="2014"/>
  <outline>
    <contour>
      <point x="60" y="336" type="line"/>
      <point x="60" y="294" type="line"/>
      <point x="720" y="294" type="line"/>
      <point x="720" y="336" type="line"/>
    </contour>
  </outline>
</glyph>
<glyph name="bullet" format="2">
  <advance width="620"/>
  <unicode hex="2022"/>
  <outline>
    <contour>
      <point x="312" y="215" type="curve" smooth="yes"/>
      <point x="365" y="215"/>
      <point x="410" y="258"/>
      <point x="410" y="315" type="curve" smooth="yes"/>
      <point x="410" y="372"/>
      <point x="365" y="415"/>
      <point x="312" y="415" type="curve" smooth="yes"/>
      <point x="255" y="415"/>
      <point x="210" y="372"/>
      <point x="210" y="315" type="curve" smooth="yes"/>
      <point x="210" y="258"/>
      <point x="255" y="215"/>
    </contour>
  </outline>
</glyph>
<glyph name="fraction" format="2">
  <advance width="183"/>
  <unicode hex="2044"/>
  <outline>
    <contour>
      <point x="-163" y="0" type="line"/>
      <point x="383" y="691" type="line"/>
      <point x="347" y="720" type="line"/>
      <point x="-200" y="30" type="line"/>
    </contour>
  </outline>
</glyph>
<glyph name="zerosuperior" format="2">
  <advance width="430"/>
  <unicode hex="2070"/>
  <outline>
    <contour>
      <point x="215" y="258" type="curve" smooth="yes"/>
      <point x="297" y="258"/>
      <point x="360" y="321"/>
      <point x="360" y="403" type="curve" smooth="yes"/>
      <point x="360" y="584" type="line" smooth="yes"/>
      <point x="360" y="666"/>
      <point x="297" y="729"/>
      <point x="215" y="729" type="curve" smooth="yes"/>
      <point x="133" y="729"/>
      <point x="70" y="666"/>
      <point x="70" y="584" type="curve" smooth="yes"/>
      <point x="70" y="403" type="line" smooth="yes"/>
      <point x="70" y="321"/>
      <point x="133" y="258"/>
    </contour>
    <contour>
      <point x="215" y="298" type="curve" smooth="yes"/>
      <point x="158" y="298"/>
      <point x="111" y="345"/>
      <point x="111" y="402" type="curve" smooth="yes"/>
      <point x="111" y="586" type="line" smooth="yes"/>
      <point x="111" y="643"/>
      <point x="158" y="689"/>
      <point x="215" y="689" type="curve" smooth="yes"/>
      <point x="272" y="689"/>
      <point x="319" y="643"/>
      <point x="319" y="586" type="curve" smooth="yes"/>
      <point x="319" y="402" type="line" smooth="yes"/>
      <point x="319" y="345"/>
      <point x="272" y="298"/>
    </contour>
  </outline>
</glyph>
<glyph name="fivesuperior" format="2">
  <advance width="398"/>
  <unicode hex="2075"/>
  <outline>
    <contour>
      <point x="77" y="720" type="line"/>
      <point x="63" y="486" type="line"/>
      <point x="101" y="469" type="line"/>
      <point x="121" y="499"/>
      <point x="153" y="521"/>
      <point x="197" y="521" type="curve" smooth="yes"/>
      <point x="258" y="521"/>
      <point x="308" y="471"/>
      <point x="308" y="410" type="curve" smooth="yes"/>
      <point x="308" y="352"/>
      <point x="259" y="300"/>
      <point x="197" y="300" type="curve" smooth="yes"/>
      <point x="148" y="300"/>
      <point x="104" y="332"/>
      <point x="90" y="383" type="curve"/>
      <point x="50" y="372" type="line"/>
      <point x="68" y="308"/>
      <point x="126" y="260"/>
      <point x="197" y="260" type="curve" smooth="yes"/>
      <point x="281" y="260"/>
      <point x="348" y="328"/>
      <point x="348" y="410" type="curve" smooth="yes"/>
      <point x="348" y="494"/>
      <point x="281" y="560"/>
      <point x="200" y="560" type="curve" smooth="yes"/>
      <point x="164" y="560"/>
      <point x="130" y="546"/>
      <point x="105" y="523" type="curve"/>
      <point x="114" y="680" type="line"/>
      <point x="316" y="680" type="line"/>
      <point x="316" y="720" type="line"/>
    </contour>
  </outline>
</glyph>
<glyph name="sevensuperior" format="2">
  <advance width="345"/>
  <unicode hex="2077"/>
  <outline>
    <contour>
      <point x="83" y="270" type="line"/>
      <point x="128" y="270" type="line"/>
      <point x="295" y="680" type="line"/>
      <point x="295" y="720" type="line"/>
      <point x="40" y="720" type="line"/>
      <point x="40" y="680" type="line"/>
      <point x="251" y="680" type="line"/>
    </contour>
  </outline>
</glyph>
<glyph name="eightsuperior" format="2">
  <advance width="406"/>
  <unicode hex="2078"/>
  <outline>
    <contour>
      <point x="203" y="257" type="curve" smooth="yes"/>
      <point x="287" y="257"/>
      <point x="346" y="310"/>
      <point x="346" y="392" type="curve" smooth="yes"/>
      <point x="346" y="454"/>
      <point x="314" y="501"/>
      <point x="249" y="523" type="curve"/>
      <point x="248" y="498" type="line"/>
      <point x="307" y="510"/>
      <point x="335" y="557"/>
      <point x="335" y="608" type="curve" smooth="yes"/>
      <point x="335" y="684"/>
      <point x="280" y="729"/>
      <point x="203" y="729" type="curve" smooth="yes"/>
      <point x="126" y="729"/>
      <point x="71" y="684"/>
      <point x="71" y="608" type="curve" smooth="yes"/>
      <point x="71" y="557"/>
      <point x="99" y="511"/>
      <point x="156" y="496" type="curve"/>
      <point x="156" y="522" type="line"/>
      <point x="91" y="502"/>
      <point x="60" y="454"/>
      <point x="60" y="392" type="curve" smooth="yes"/>
      <point x="60" y="310"/>
      <point x="119" y="257"/>
    </contour>
    <contour>
      <point x="203" y="297" type="curve" smooth="yes"/>
      <point x="144" y="297"/>
      <point x="103" y="331"/>
      <point x="103" y="392" type="curve" smooth="yes"/>
      <point x="103" y="455"/>
      <point x="143" y="488"/>
      <point x="203" y="488" type="curve" smooth="yes"/>
      <point x="263" y="488"/>
      <point x="302" y="455"/>
      <point x="302" y="392" type="curve" smooth="yes"/>
      <point x="302" y="331"/>
      <point x="262" y="297"/>
    </contour>
    <contour>
      <point x="203" y="528" type="curve" smooth="yes"/>
      <point x="151" y="528"/>
      <point x="115" y="555"/>
      <point x="115" y="608" type="curve" smooth="yes"/>
      <point x="115" y="661"/>
      <point x="151" y="688"/>
      <point x="203" y="688" type="curve" smooth="yes"/>
      <point x="256" y="688"/>
      <point x="292" y="661"/>
      <point x="292" y="608" type="curve" smooth="yes"/>
      <point x="292" y="555"/>
      <point x="256" y="528"/>
    </contour>
  </outline>
</glyph>
<glyph name="hryvnia" format="2">
  <advance width="619"/>
  <unicode hex="20B4"/>
  <outline>
    <contour>
      <point x="60" y="311" type="line"/>
      <point x="60" y="269" type="line"/>
      <point x="559" y="269" type="line"/>
      <point x="559" y="311" type="line"/>
    </contour>
    <contour>
      <point x="60" y="449" type="line"/>
      <point x="60" y="407" type="line"/>
      <point x="559" y="407" type="line"/>
      <point x="559" y="449" type="line"/>
    </contour>
    <contour>
      <point x="526" y="174" type="curve"/>
      <point x="484" y="174" type="line"/>
      <point x="478" y="139"/>
      <point x="461" y="107"/>
      <point x="438" y="83" type="curve" smooth="yes"/>
      <point x="406" y="48"/>
      <point x="362" y="27"/>
      <point x="307" y="27" type="curve" smooth="yes"/>
      <point x="263" y="27"/>
      <point x="209" y="40"/>
      <point x="173" y="74" type="curve" smooth="yes"/>
      <point x="149" y="97"/>
      <point x="133" y="130"/>
      <point x="133" y="170" type="curve" smooth="yes"/>
      <point x="133" y="213"/>
      <point x="151" y="243"/>
      <point x="179" y="267" type="curve" smooth="yes"/>
      <point x="198" y="284"/>
      <point x="221" y="298"/>
      <point x="247" y="311" type="curve"/>
      <point x="166" y="311" type="line"/>
      <point x="164" y="310"/>
      <point x="158" y="303"/>
      <point x="155" y="302" type="curve" smooth="yes"/>
      <point x="116" y="270"/>
      <point x="91" y="229"/>
      <point x="91" y="174" type="curve" smooth="yes"/>
      <point x="91" y="119"/>
      <point x="112" y="72"/>
      <point x="149" y="39" type="curve" smooth="yes"/>
      <point x="187" y="5"/>
      <point x="245" y="-15"/>
      <point x="305" y="-15" type="curve" smooth="yes"/>
      <point x="375" y="-15"/>
      <point x="431" y="12"/>
      <point x="471" y="56" type="curve" smooth="yes"/>
      <point x="500" y="88"/>
      <point x="520" y="129"/>
    </contour>
    <contour>
      <point x="107" y="546" type="curve"/>
      <point x="149" y="546" type="line"/>
      <point x="153" y="588"/>
      <point x="172" y="625"/>
      <point x="201" y="651" type="curve" smooth="yes"/>
      <point x="230" y="677"/>
      <point x="268" y="693"/>
      <point x="312" y="693" type="curve" smooth="yes"/>
      <point x="359" y="693"/>
      <point x="399" y="675"/>
      <point x="424" y="653" type="curve" smooth="yes"/>
      <point x="451" y="629"/>
      <point x="471" y="591"/>
      <point x="471" y="544" type="curve" smooth="yes"/>
      <point x="471" y="508"/>
      <point x="459" y="480"/>
      <point x="434" y="454" type="curve" smooth="yes"/>
      <point x="418" y="437"/>
      <point x="396" y="422"/>
      <point x="367" y="407" type="curve"/>
      <point x="445" y="407" type="line"/>
      <point x="453" y="413"/>
      <point x="460" y="419"/>
      <point x="466" y="426" type="curve" smooth="yes"/>
      <point x="498" y="462"/>
      <point x="513" y="496"/>
      <point x="513" y="543" type="curve" smooth="yes"/>
      <point x="513" y="602"/>
      <point x="490" y="649"/>
      <point x="453" y="683" type="curve" smooth="yes"/>
      <point x="417" y="716"/>
      <point x="366" y="735"/>
      <point x="312" y="735" type="curve" smooth="yes"/>
      <point x="257" y="735"/>
      <point x="210" y="715"/>
      <point x="174" y="683" type="curve" smooth="yes"/>
      <point x="136" y="649"/>
      <point x="110" y="600"/>
    </contour>
  </outline>
</glyph>
<glyph name="ruble" format="2">
  <advance width="661"/>
  <unicode hex="20BD"/>
  <outline>
    <contour>
      <point x="70" y="288" type="line"/>
      <point x="415" y="288" type="line" smooth="yes"/>
      <point x="429" y="288"/>
      <point x="443" y="289"/>
      <point x="461" y="292" type="curve" smooth="yes"/>
      <point x="569" y="311"/>
      <point x="631" y="397"/>
      <point x="631" y="504" type="curve" smooth="yes"/>
      <point x="631" y="615"/>
      <point x="565" y="698"/>
      <point x="461" y="716" type="curve" smooth="yes"/>
      <point x="443" y="719"/>
      <point x="429" y="720"/>
      <point x="415" y="720" type="curve" smooth="yes"/>
      <point x="192" y="720" type="line"/>
      <point x="192" y="678" type="line"/>
      <point x="415" y="678" type="line" smooth="yes"/>
      <point x="427" y="678"/>
      <point x="444" y="677"/>
      <point x="459" y="674" type="curve" smooth="yes"/>
      <point x="542" y="658"/>
      <point x="586" y="585"/>
      <point x="586" y="504" type="curve" smooth="yes"/>
      <point x="586" y="423"/>
      <point x="542" y="350"/>
      <point x="459" y="334" type="curve" smooth="yes"/>
      <point x="444" y="331"/>
      <point x="427" y="330"/>
      <point x="415" y="330" type="curve" smooth="yes"/>
      <point x="70" y="330" type="line"/>
    </contour>
    <contour>
      <point x="70" y="138" type="line"/>
      <point x="430" y="138" type="line"/>
      <point x="430" y="180" type="line"/>
      <point x="70" y="180" type="line"/>
    </contour>
    <contour>
      <point x="150" y="0" type="line"/>
      <point x="192" y="0" type="line"/>
      <point x="192" y="720" type="line"/>
      <point x="150" y="720" type="line"/>
    </contour>
  </outline>
</glyph>
<glyph name="trademark" format="2">
  <advance width="877"/>
  <unicode hex="2122"/>
  <outline>
    <contour>
      <point x="444" y="345" type="line"/>
      <point x="484" y="345" type="line"/>
      <point x="484" y="633" type="line"/>
      <point x="613" y="399" type="line"/>
      <point x="647" y="399" type="line"/>
      <point x="777" y="633" type="line"/>
      <point x="777" y="345" type="line"/>
      <point x="817" y="345" type="line"/>
      <point x="816" y="720" type="line"/>
      <point x="779" y="720" type="line"/>
      <point x="630" y="452" type="line"/>
      <point x="481" y="720" type="line"/>
      <point x="444" y="720" type="line"/>
    </contour>
    <contour>
      <point x="195" y="345" type="line"/>
      <point x="237" y="345" type="line"/>
      <point x="237" y="678" type="line"/>
      <point x="371" y="678" type="line"/>
      <point x="371" y="720" type="line"/>
      <point x="60" y="720" type="line"/>
      <point x="60" y="678" type="line"/>
      <point x="195" y="678" type="line"/>
    </contour>
  </outline>
</glyph>
<glyph name="carriagereturn" format="2">
  <advance width="794"/>
  <unicode hex="21B5"/>
  <outline>
    <contour>
      <point x="734" y="294" type="line"/>
      <point x="734" y="336" type="line"/>
      <point x="194" y="336" type="line"/>
      <point x="194" y="294" type="line"/>
    </contour>
    <contour>
      <point x="734" y="314" type="line"/>
      <point x="734" y="720" type="line"/>
      <point x="692" y="720" type="line"/>
      <point x="692" y="314" type="line"/>
    </contour>
    <component base="less"/>
  </outline>
</glyph>
<glyph name="partialdiff" format="2">
  <advance width="573"/>
  <unicode hex="2202"/>
  <outline>
    <contour>
      <point x="287" y="-15" type="curve" smooth="yes"/>
      <point x="439" y="-17"/>
      <point x="533" y="90"/>
      <point x="533" y="253" type="curve"/>
      <point x="533" y="421"/>
      <point x="527" y="497"/>
      <point x="488" y="572" type="curve"/>
      <point x="440" y="670"/>
      <point x="352" y="726"/>
      <point x="235" y="733" type="curve"/>
      <point x="230" y="692" type="line"/>
      <point x="329" y="685"/>
      <point x="407" y="640"/>
      <point x="450" y="553" type="curve"/>
      <point x="469" y="514"/>
      <point x="480" y="470"/>
      <point x="485" y="425" type="curve"/>
      <point x="443" y="488"/>
      <point x="365" y="520"/>
      <point x="287" y="519" type="curve" smooth="yes"/>
      <point x="133" y="521"/>
      <point x="42" y="416"/>
      <point x="40" y="252" type="curve" smooth="yes"/>
      <point x="42" y="90"/>
      <point x="131" y="-17"/>
    </contour>
    <contour>
      <point x="287" y="27" type="curve" smooth="yes"/>
      <point x="157" y="27"/>
      <point x="85" y="111"/>
      <point x="85" y="252" type="curve" smooth="yes"/>
      <point x="85" y="389"/>
      <point x="156" y="479"/>
      <point x="287" y="477" type="curve" smooth="yes"/>
      <point x="414" y="479"/>
      <point x="488" y="392"/>
      <point x="488" y="253" type="curve" smooth="yes"/>
      <point x="488" y="115"/>
      <point x="419" y="27"/>
    </contour>
  </outline>
</glyph>
<glyph name="radical" format="2">
  <advance width="558"/>
  <unicode hex="221A"/>
  <outline>
    <contour>
      <point x="233" y="0" type="line"/>
      <point x="275" y="0" type="line"/>
      <point x="583" y="840" type="line"/>
      <point x="541" y="840" type="line"/>
    </contour>
    <contour>
      <point x="231" y="0" type="line"/>
      <point x="273" y="0" type="line"/>
      <point x="165" y="340" type="line"/>
      <point x="123" y="340" type="line"/>
    </contour>
    <contour>
      <point x="12" y="303" type="line"/>
      <point x="141" y="303" type="line"/>
      <point x="141" y="340" type="line"/>
      <point x="12" y="340" type="line"/>
    </contour>
  </outline>
</glyph>
<glyph name="infinity" format="2">
  <advance width="662"/>
  <unicode hex="221E"/>
  <outline>
    <contour>
      <point x="186" y="115" type="curve" smooth="yes"/>
      <point x="269" y="115"/>
      <point x="307" y="169"/>
      <point x="344" y="262" type="curve"/>
      <point x="318" y="262" type="line"/>
      <point x="355" y="169"/>
      <point x="393" y="115"/>
      <point x="476" y="115" type="curve" smooth="yes"/>
      <point x="576" y="115"/>
      <point x="627" y="195"/>
      <point x="627" y="290" type="curve" smooth="yes"/>
      <point x="627" y="385"/>
      <point x="576" y="463"/>
      <point x="476" y="463" type="curve" smooth="yes"/>
      <point x="393" y="463"/>
      <point x="355" y="409"/>
      <point x="318" y="316" type="curve"/>
      <point x="344" y="316" type="line"/>
      <point x="307" y="409"/>
      <point x="269" y="463"/>
      <point x="187" y="463" type="curve" smooth="yes"/>
      <point x="87" y="463"/>
      <point x="35" y="383"/>
      <point x="35" y="290" type="curve" smooth="yes"/>
      <point x="35" y="205"/>
      <point x="78" y="115"/>
    </contour>
    <contour>
      <point x="189" y="160" type="curve" smooth="yes"/>
      <point x="109" y="160"/>
      <point x="84" y="227"/>
      <point x="84" y="289" type="curve" smooth="yes"/>
      <point x="84" y="351"/>
      <point x="109" y="418"/>
      <point x="189" y="418" type="curve" smooth="yes"/>
      <point x="241" y="418"/>
      <point x="283" y="389"/>
      <point x="317" y="289" type="curve"/>
      <point x="283" y="189"/>
      <point x="241" y="160"/>
    </contour>
    <contour>
      <point x="473" y="160" type="curve" smooth="yes"/>
      <point x="421" y="160"/>
      <point x="379" y="189"/>
      <point x="345" y="289" type="curve"/>
      <point x="379" y="389"/>
      <point x="421" y="418"/>
      <point x="473" y="418" type="curve" smooth="yes"/>
      <point x="553" y="418"/>
      <point x="578" y="351"/>
      <point x="578" y="289" type="curve" smooth="yes"/>
      <point x="578" y="227"/>
      <point x="553" y="160"/>
    </contour>
  </outline>
</glyph>
<glyph name="notequal" format="2">
  <advance width="750"/>
  <unicode hex="2260"/>
  <outline>
    <contour>
      <point x="225" y="180" type="line"/>
      <point x="556" y="511" type="line"/>
      <point x="526" y="540" type="line"/>
      <point x="195" y="210" type="line"/>
    </contour>
    <component base="equal"/>
  </outline>
</glyph>
